{"glyphs":{"0":{"ha":682,"x_min":24,"x_max":663,"o":"m 494 938 q 565 862 533 908 q 618 758 596 815 q 651 634 640 700 q 663 497 663 568 q 640 308 663 396 q 574 153 617 219 q 471 47 532 86 q 335 3 410 7 l 321 3 q 195 37 250 3 q 102 131 140 71 q 44 272 64 190 q 24 451 24 354 q 47 659 24 561 q 114 830 71 757 q 216 946 157 903 q 344 989 275 989 q 424 976 385 989 q 494 938 463 964 m 514 213 q 563 341 546 268 q 579 497 579 414 q 567 637 579 565 q 527 767 554 708 q 457 864 500 825 q 353 906 414 903 l 346 906 q 240 864 285 906 q 166 757 196 822 q 122 610 136 692 q 107 447 107 528 q 122 303 107 369 q 164 190 136 238 q 232 114 192 142 q 322 86 272 86 q 514 213 444 86 z "},"1":{"ha":654,"x_min":10,"x_max":649,"o":"m 607 89 q 637 77 625 89 q 649 47 649 65 q 638 17 649 29 q 608 6 626 6 l 51 3 q 23 15 36 3 q 10 44 10 26 q 22 74 10 63 q 51 86 35 86 l 271 88 q 275 183 272 115 q 281 334 278 251 q 285 501 283 417 q 288 649 288 586 q 286 755 288 711 q 283 829 285 799 q 280 877 282 860 q 276 904 278 894 q 247 890 267 901 q 200 851 228 878 q 171 839 188 839 q 141 852 153 839 q 129 881 129 865 q 144 910 129 892 q 181 947 158 929 q 231 976 203 964 q 283 989 258 989 q 327 976 308 989 q 353 939 346 963 q 358 921 354 933 q 364 878 361 908 q 369 797 367 849 q 371 661 371 744 q 370 568 371 621 q 367 459 369 515 q 364 345 365 403 q 360 237 363 288 q 357 147 358 186 q 354 88 356 108 l 607 89 l 607 89 z "},"2":{"ha":669,"x_min":18,"x_max":657,"o":"m 615 89 q 645 77 633 89 q 657 47 657 65 q 646 18 657 31 q 617 6 635 6 l 60 3 q 31 14 43 3 q 18 44 18 25 q 31 74 18 61 q 222 283 136 178 q 369 483 308 388 q 465 662 431 579 q 499 804 499 744 q 478 878 499 850 q 406 906 458 906 q 283 873 357 906 q 121 757 208 840 q 92 746 110 746 q 63 757 76 746 q 50 786 50 768 q 64 818 50 804 q 240 945 151 901 q 404 989 329 989 q 538 937 494 989 q 581 803 581 885 q 551 657 581 738 q 468 485 522 576 q 336 292 414 393 q 160 86 258 190 l 615 89 l 615 89 z "},"3":{"ha":533,"x_min":13,"x_max":513,"o":"m 406 476 q 484 385 456 439 q 513 274 513 332 q 486 160 513 211 q 415 75 460 110 q 310 22 369 40 q 186 3 251 3 q 138 4 167 3 q 81 11 108 6 q 33 28 53 17 q 13 61 13 40 q 26 92 13 81 q 56 103 39 103 l 64 103 q 186 86 128 86 q 283 100 238 86 q 360 139 328 114 q 410 198 392 164 q 429 272 429 232 q 372 396 429 347 q 224 458 315 444 q 198 473 208 461 q 188 500 188 485 q 207 535 188 522 q 349 668 307 601 q 392 786 392 735 q 345 874 392 843 q 218 906 299 906 q 75 885 151 906 q 64 883 71 883 q 35 894 47 883 q 24 925 24 906 q 47 959 24 946 q 101 978 69 972 q 164 987 132 985 q 215 989 196 989 q 322 974 274 989 q 405 933 371 960 q 458 869 439 907 q 476 786 476 832 q 436 649 476 717 q 324 519 396 582 q 406 476 372 501 z "},"4":{"ha":676,"x_min":15,"x_max":654,"o":"m 613 450 q 641 440 628 450 q 654 414 654 431 q 640 378 654 390 q 600 367 625 367 q 599 238 600 297 q 596 136 597 179 q 594 69 594 93 q 593 43 593 44 q 580 15 592 26 q 551 3 568 3 l 550 3 q 520 17 531 4 q 510 46 510 29 q 510 71 510 47 q 513 136 511 94 q 515 235 514 178 q 517 358 517 292 q 467 356 492 357 q 418 356 442 356 q 122 410 228 356 q 15 571 15 464 q 308 979 15 736 q 335 989 319 989 q 363 978 350 989 q 376 949 376 967 q 363 915 376 928 q 165 719 232 808 q 97 569 97 631 q 129 499 97 525 q 209 460 161 474 q 313 443 257 447 q 415 439 368 439 q 518 443 464 439 l 518 546 q 517 744 518 643 q 510 942 515 844 q 520 971 510 957 q 549 985 531 985 q 579 974 567 985 q 593 946 592 964 q 600 749 599 850 q 601 553 601 649 l 601 450 l 607 450 l 613 450 z "},"5":{"ha":618,"x_min":19,"x_max":589,"o":"m 372 564 q 460 518 421 547 q 528 451 500 489 q 573 370 557 414 q 589 281 589 326 q 562 165 589 217 q 487 78 535 114 q 373 22 439 42 q 228 3 307 3 q 172 4 207 3 q 103 11 136 6 q 44 28 69 17 q 19 63 19 40 q 32 93 19 82 q 61 104 44 104 l 69 104 q 153 90 113 94 q 229 86 193 86 q 343 100 292 86 q 431 140 394 114 q 486 202 467 167 q 506 282 506 238 q 484 371 506 331 q 426 440 463 411 q 342 484 390 468 q 240 500 294 500 q 183 493 213 500 q 124 486 154 486 q 76 513 92 486 q 58 608 61 539 q 65 742 58 681 q 81 847 72 803 q 96 915 89 890 q 101 938 103 939 q 120 958 107 949 q 158 975 133 968 q 222 985 182 982 q 319 989 261 989 q 381 988 351 989 q 433 987 410 988 q 470 985 456 986 q 486 983 485 983 q 513 971 501 982 q 524 943 524 960 q 511 912 524 924 q 479 900 499 900 q 467 901 479 900 q 435 903 456 903 q 389 905 415 904 q 335 906 363 906 q 217 900 251 906 q 172 892 182 894 q 165 849 169 882 q 154 776 160 817 q 145 692 149 735 q 142 621 142 650 q 142 594 142 606 q 144 575 143 583 q 240 583 192 583 q 372 564 307 583 z "},"6":{"ha":611,"x_min":22,"x_max":593,"o":"m 593 301 q 573 186 593 239 q 516 95 553 133 q 428 33 479 57 q 313 6 376 10 l 294 6 q 185 26 235 6 q 99 83 135 46 q 44 173 64 121 q 25 288 25 225 l 25 293 q 24 325 25 308 q 22 357 22 342 q 50 622 22 504 q 129 822 78 740 q 254 948 181 904 q 418 992 328 992 q 464 989 436 992 q 518 979 492 986 q 563 960 544 972 q 582 928 582 947 q 569 897 582 908 q 540 886 556 886 q 526 889 535 886 q 476 903 503 897 q 419 908 449 908 q 219 806 300 908 q 115 517 139 703 q 204 575 158 556 q 307 594 250 594 q 420 572 368 594 q 510 509 472 549 q 569 416 547 469 q 593 301 590 363 m 308 89 q 402 112 364 92 q 465 161 440 132 q 499 226 489 190 q 510 294 510 261 q 497 374 510 335 q 458 442 483 413 q 394 492 432 472 q 307 511 356 511 l 306 511 q 242 501 269 511 q 195 475 215 490 q 162 443 175 460 q 140 413 149 426 q 107 286 107 354 q 158 142 107 196 q 297 89 210 89 l 308 89 z "},"7":{"ha":594,"x_min":7,"x_max":576,"o":"m 444 982 q 547 951 517 974 q 576 886 576 928 q 568 835 576 861 q 549 785 560 808 q 499 681 528 738 q 438 564 469 625 q 374 440 406 503 q 317 317 342 378 q 276 201 292 257 q 260 97 260 144 q 262 72 260 85 q 264 49 264 60 q 254 21 264 33 q 229 6 244 8 l 222 6 q 197 14 206 6 q 183 35 188 22 q 178 63 179 47 q 176 94 176 79 q 192 215 176 153 q 233 342 207 278 q 291 469 258 406 q 356 594 324 533 q 419 709 389 654 q 469 810 449 764 q 489 863 485 846 q 493 886 493 879 q 427 899 486 889 q 260 908 368 908 q 182 907 219 908 q 116 905 144 906 q 69 903 88 904 q 51 901 51 901 l 46 901 q 19 913 31 901 q 7 939 7 924 q 17 969 7 957 q 46 983 26 982 q 67 985 47 983 q 119 988 88 986 q 191 990 150 989 q 275 992 232 992 q 370 990 328 992 q 444 982 413 988 z "},"8":{"ha":678,"x_min":21,"x_max":658,"o":"m 578 472 q 637 384 615 433 q 658 282 658 335 q 635 174 658 224 q 568 88 611 125 q 465 29 525 51 q 332 6 404 7 l 318 6 q 213 19 257 6 q 136 52 168 32 q 85 94 104 72 q 54 135 65 117 q 21 258 21 189 q 62 411 21 342 q 174 521 103 481 q 176 522 175 521 q 101 605 128 553 q 74 718 74 657 q 96 830 74 779 q 156 917 118 881 q 245 972 194 953 q 351 992 296 992 q 465 972 413 992 q 554 916 517 951 q 613 833 592 881 q 635 731 635 785 q 603 610 635 664 q 513 519 571 556 q 578 472 546 501 m 329 89 q 440 108 393 90 q 516 152 486 125 q 560 213 546 179 q 575 282 575 247 q 560 351 575 317 q 517 414 546 386 q 447 459 489 442 q 349 478 404 476 l 331 478 q 243 461 285 478 q 170 416 201 444 q 121 349 139 388 q 103 265 103 310 q 161 135 103 182 q 318 89 219 89 l 329 89 m 178 638 q 238 581 200 601 q 331 561 276 561 l 349 561 q 443 577 404 561 q 506 618 482 593 q 541 673 531 643 q 551 731 551 703 q 539 794 551 763 q 502 850 526 825 q 442 891 478 875 q 358 908 406 907 l 353 908 q 276 894 311 908 q 214 854 240 879 q 172 794 188 829 q 157 718 157 760 q 178 638 157 672 z "},"9":{"ha":611,"x_min":18,"x_max":589,"o":"m 18 714 q 38 829 18 776 q 94 920 58 882 q 183 982 131 958 q 299 1010 235 1006 l 317 1010 q 426 990 376 1010 q 510 932 475 969 q 566 842 546 894 q 586 728 586 790 l 586 722 q 588 690 586 706 q 589 658 589 674 q 561 392 589 510 q 482 193 533 275 q 357 67 431 111 q 193 24 283 24 q 146 26 174 24 q 92 36 118 29 q 48 56 67 43 q 29 88 29 68 q 42 118 29 107 q 71 129 56 129 q 126 118 94 129 q 192 107 157 107 q 392 210 311 107 q 496 499 472 313 q 407 440 453 460 q 304 421 361 421 q 191 444 243 421 q 101 506 139 467 q 42 599 64 546 q 18 714 19 653 m 303 926 q 208 903 246 924 q 146 854 169 883 q 112 790 122 825 q 101 719 101 754 q 115 641 101 679 q 153 573 128 603 q 217 524 179 543 q 304 504 256 504 l 306 504 q 369 515 342 504 q 416 540 396 525 q 449 572 436 556 q 471 603 463 589 q 495 665 488 632 q 503 729 503 697 q 452 873 503 819 q 314 926 401 926 l 303 926 z "},"\u0000":{"ha":0,"x_min":0,"x_max":0,"o":""},"\r":{"ha":344,"x_min":0,"x_max":0,"o":""}," ":{"ha":344,"x_min":0,"x_max":0,"o":""},"e":{"ha":656,"x_min":28,"x_max":636,"o":"m 614 368 q 636 332 636 354 q 631 313 636 324 q 540 172 586 231 q 447 75 493 114 q 359 18 401 36 q 281 0 317 0 q 154 54 207 0 q 81 207 101 108 q 43 216 58 207 q 28 249 28 225 q 40 278 28 265 q 68 290 51 290 q 66 316 67 303 q 65 342 65 329 q 85 484 65 418 q 138 597 104 550 q 220 672 172 644 q 325 699 268 699 q 414 658 381 699 q 447 556 447 618 q 424 444 447 499 q 363 343 401 389 q 272 264 324 297 q 164 218 221 231 q 209 119 179 156 q 281 83 239 83 q 336 97 306 83 q 403 143 367 111 q 478 226 439 175 q 558 353 517 278 q 593 374 569 374 q 614 368 600 374 m 150 301 q 254 351 213 318 q 320 422 296 385 q 354 497 344 460 q 364 556 364 533 q 356 598 364 581 q 325 615 347 615 q 254 595 286 615 q 199 538 222 575 q 162 451 175 501 q 149 343 149 401 q 149 322 149 332 q 150 301 150 311 z "},"f":{"ha":522,"x_min":21,"x_max":515,"o":"m 474 481 q 503 469 492 481 q 515 439 515 457 q 492 381 515 406 q 425 340 468 357 q 320 313 382 324 q 183 294 258 301 q 193 165 188 228 q 206 44 199 103 l 206 39 q 195 12 206 25 q 168 -1 185 -1 q 138 8 151 -1 q 122 35 125 17 q 112 141 118 75 q 101 290 106 207 q 74 289 83 289 q 63 289 64 289 q 33 301 44 289 q 21 331 21 314 q 40 366 21 361 q 97 374 60 371 q 94 436 94 406 q 94 499 94 467 q 103 721 94 621 q 129 900 111 821 q 154 973 139 944 q 188 1017 169 1001 q 223 1040 206 1033 q 256 1046 240 1046 q 306 1029 278 1046 q 364 974 335 1013 q 419 872 393 935 q 464 715 446 808 l 464 710 q 453 681 464 694 q 424 667 443 667 q 396 676 408 667 q 381 701 383 685 q 346 840 365 788 q 307 919 326 892 q 273 954 288 946 q 254 963 258 963 q 220 918 235 963 q 197 806 206 874 q 183 658 188 738 q 178 506 178 578 q 178 442 178 474 q 181 378 179 410 q 313 393 264 383 q 389 414 363 403 q 432 439 419 426 q 444 469 432 457 q 474 481 457 481 z "},"g":{"ha":529,"x_min":31,"x_max":529,"o":"m 306 86 q 302 53 303 71 q 299 19 301 35 q 425 -34 378 11 q 472 -146 472 -79 q 458 -218 472 -182 q 416 -283 443 -254 q 350 -331 389 -312 q 264 -349 311 -349 q 182 -335 219 -349 q 117 -299 144 -322 q 75 -245 90 -276 q 60 -178 60 -214 q 100 -66 60 -117 q 215 7 140 -15 q 215 11 215 10 q 214 15 214 13 q 216 49 214 29 q 222 86 218 69 q 81 174 131 100 q 31 353 31 247 q 51 485 31 422 q 109 594 72 547 q 196 671 146 642 q 304 703 246 700 q 334 692 321 703 q 347 664 347 682 q 338 633 347 646 q 308 619 328 621 q 219 590 256 617 q 158 525 182 564 q 124 441 135 486 q 114 356 114 396 l 114 343 q 117 303 114 329 q 133 249 121 276 q 169 198 146 221 q 231 168 192 175 q 232 199 232 183 q 235 229 232 215 q 248 251 239 243 q 274 260 257 260 q 304 249 292 260 q 317 219 317 238 q 316 197 317 208 q 314 175 315 186 q 389 242 363 190 q 415 361 415 294 q 408 428 415 397 q 388 482 400 460 q 360 517 375 504 q 329 529 344 529 q 319 528 322 529 q 314 528 317 528 q 284 539 297 528 q 271 568 271 550 q 287 602 271 592 q 326 613 303 613 q 396 593 364 613 q 451 540 428 574 q 486 459 474 506 q 499 360 499 413 q 485 259 499 306 q 445 176 471 213 q 384 117 419 140 q 306 86 349 94 m 389 -153 q 365 -92 389 -115 q 293 -64 342 -69 q 186 -99 229 -68 q 143 -172 143 -131 q 149 -203 143 -186 q 167 -233 154 -219 q 203 -256 181 -247 q 260 -265 226 -265 q 351 -231 317 -265 q 389 -153 386 -196 m 382 685 q 418 722 400 700 q 449 775 436 743 q 486 800 460 800 q 517 788 506 800 q 529 760 529 775 q 515 713 529 736 q 485 669 501 689 q 453 636 468 649 q 438 622 439 624 q 408 613 422 613 q 380 624 392 613 q 368 654 368 636 q 382 685 368 672 z "},"h":{"ha":558,"x_min":40,"x_max":540,"o":"m 528 126 q 531 86 529 101 q 533 64 532 71 q 535 55 535 57 q 538 53 536 53 l 539 53 l 539 51 q 540 47 539 50 q 540 42 540 44 q 529 13 540 26 q 499 0 518 0 q 472 8 482 0 q 455 42 461 15 q 446 119 449 68 q 442 257 443 169 q 439 367 440 310 q 433 472 438 424 q 424 548 429 524 q 414 582 418 572 q 353 541 394 575 q 264 433 313 507 q 226 369 247 408 q 184 280 204 331 q 149 168 164 229 q 131 38 135 107 q 117 10 129 22 q 90 -1 106 -1 q 49 32 58 -1 q 40 118 40 65 q 42 269 40 186 q 49 439 44 351 q 60 613 54 526 q 73 777 65 700 q 89 915 81 854 q 106 1013 97 976 q 120 1035 108 1026 q 146 1044 132 1044 q 176 1031 164 1044 q 188 1003 188 1018 q 187 998 188 1000 q 186 993 186 996 q 166 875 175 947 q 149 717 157 803 q 136 540 142 632 q 128 360 131 447 q 197 485 158 428 q 274 582 235 542 q 353 644 314 622 q 424 667 392 667 q 486 614 465 667 q 515 481 507 561 q 524 306 524 400 q 528 126 525 211 z "},"i":{"ha":271,"x_min":26,"x_max":257,"o":"m 132 665 q 159 652 149 664 q 169 625 169 640 l 169 619 q 157 412 160 515 q 154 204 154 308 q 155 122 154 163 q 156 40 156 81 q 144 11 156 24 q 114 -1 132 -1 q 76 31 85 -1 q 68 104 68 63 q 72 363 67 233 q 88 628 76 493 q 102 656 89 646 q 132 665 115 665 m 222 965 q 247 951 238 963 q 257 919 257 939 q 229 831 257 879 q 132 714 201 783 q 126 711 129 711 q 121 719 121 711 q 106 769 121 744 q 74 817 92 793 q 41 863 56 840 q 26 911 26 886 q 41 956 26 940 q 74 972 56 972 q 113 957 93 972 q 142 906 132 942 q 176 951 157 936 q 215 965 196 965 l 222 965 z "},"j":{"ha":276,"x_min":-172,"x_max":256,"o":"m 167 651 q 172 467 167 579 q 176 232 176 356 q 172 34 176 136 q 147 -153 167 -68 q 88 -294 128 -239 q -25 -349 47 -349 q -164 -268 -104 -349 q -172 -243 -172 -258 q -161 -215 -172 -228 q -131 -201 -150 -201 q -105 -211 -118 -201 q -79 -233 -92 -221 q -53 -256 -67 -246 q -25 -265 -40 -265 q 40 -215 17 -265 q 76 -88 64 -164 q 90 76 88 -12 q 93 239 93 164 q 88 470 93 360 q 83 651 83 581 q 95 681 83 669 q 125 693 107 693 q 154 681 142 693 q 167 651 167 669 m 221 965 q 246 951 236 963 q 256 919 256 939 q 228 831 256 879 q 131 714 200 783 q 125 711 128 711 q 119 719 119 711 q 105 769 119 744 q 72 817 90 793 q 40 863 54 840 q 25 911 25 886 q 40 956 25 940 q 72 972 54 972 q 111 957 92 972 q 140 906 131 942 q 175 951 156 936 q 214 965 194 965 l 221 965 z "},"k":{"ha":653,"x_min":35,"x_max":646,"o":"m 479 247 q 646 40 646 178 q 633 10 646 22 q 604 -1 621 -1 q 576 6 583 -1 q 567 27 569 14 q 561 57 564 40 q 548 93 558 74 q 515 132 538 113 q 447 169 492 151 q 307 208 383 196 q 160 232 231 221 q 158 176 158 203 q 158 125 158 149 q 159 79 158 100 q 160 42 160 58 q 148 11 160 24 q 118 -1 136 -1 q 81 21 89 -1 q 74 76 74 43 q 74 154 74 113 q 76 246 74 196 q 47 260 60 254 q 35 289 35 267 q 49 320 35 308 q 79 347 63 332 q 85 531 81 436 q 94 713 89 625 q 107 878 100 801 q 124 1007 114 954 q 139 1032 126 1022 q 167 1042 151 1042 q 197 1028 186 1042 q 207 999 207 1014 l 207 993 q 192 883 199 947 q 180 744 185 819 q 171 588 175 669 q 164 426 167 506 q 272 520 219 476 q 371 597 324 564 q 458 647 418 629 q 526 665 497 665 q 556 653 544 665 q 568 624 568 642 q 556 594 568 607 q 526 582 544 582 q 480 567 514 582 q 376 500 446 553 q 322 455 349 479 q 269 406 296 431 q 217 357 243 381 q 167 315 192 333 q 324 290 242 304 q 479 247 407 276 z "},"l":{"ha":174,"x_min":25,"x_max":142,"o":"m 94 1044 q 133 1014 125 1044 q 142 938 142 983 q 140 724 142 847 q 133 472 138 600 q 123 227 129 343 q 108 36 117 111 q 94 10 106 21 q 67 -1 82 -1 q 37 11 49 -1 q 25 39 25 24 l 25 44 q 38 206 32 108 q 47 415 43 304 q 54 640 51 526 q 57 846 57 753 q 56 931 57 892 q 54 1001 54 971 q 65 1031 54 1018 q 94 1044 75 1043 z "},"m":{"ha":892,"x_min":43,"x_max":856,"o":"m 790 374 q 803 279 796 328 q 819 187 811 231 q 835 108 826 143 q 851 54 843 72 q 856 36 856 46 q 844 8 856 21 q 814 -6 833 -6 q 774 27 790 -6 q 747 112 758 60 q 726 229 735 164 q 707 361 717 294 q 693 472 699 418 q 676 558 688 526 q 605 372 632 456 q 557 228 578 288 q 515 135 536 168 q 460 103 493 103 q 428 111 446 103 q 394 149 410 119 q 365 240 379 179 q 338 369 351 300 q 313 506 325 439 q 290 619 301 574 q 231 431 271 579 q 139 28 192 283 q 124 3 136 13 q 97 -6 113 -6 q 68 7 81 -6 q 56 38 56 19 q 60 296 60 164 q 56 476 60 388 q 43 653 53 565 l 43 658 q 55 688 43 676 q 85 699 67 699 q 112 688 100 699 q 126 663 124 678 q 137 542 133 603 q 142 421 140 482 q 172 538 157 482 q 203 636 186 593 q 242 704 219 679 q 293 729 264 729 q 337 702 318 729 q 369 630 356 675 q 394 528 383 585 q 415 415 406 472 q 435 302 425 357 q 460 207 446 247 q 468 224 464 214 q 478 249 472 235 q 540 419 514 340 q 588 557 565 499 q 633 649 610 615 q 688 682 656 682 q 722 665 708 682 q 747 612 736 649 q 768 516 758 575 q 790 374 778 457 z "},"n":{"ha":589,"x_min":42,"x_max":550,"o":"m 497 632 q 538 541 525 601 q 550 372 550 481 q 547 230 550 311 q 536 38 543 149 q 523 10 535 21 q 494 -1 511 -1 q 464 12 475 -1 q 453 43 453 25 q 463 232 460 151 q 467 372 467 313 q 462 488 467 446 q 450 550 457 529 q 436 576 443 571 q 426 581 429 581 q 408 571 424 581 q 369 542 392 561 q 318 494 346 522 q 265 428 290 465 q 225 363 247 401 q 182 275 203 325 q 146 165 161 225 q 126 38 131 106 q 113 10 125 21 q 83 -1 100 -1 q 48 21 54 -1 q 42 69 42 43 q 45 228 42 144 q 55 393 49 311 q 70 551 61 475 q 92 685 79 626 q 106 709 94 700 q 133 718 118 718 q 163 706 151 718 q 175 679 175 694 q 174 674 175 676 q 174 669 174 672 q 153 536 163 611 q 138 378 144 461 q 206 490 168 438 q 283 581 244 543 q 360 642 322 619 q 425 664 397 664 q 497 632 468 664 z "},"o":{"ha":543,"x_min":31,"x_max":515,"o":"m 318 578 q 398 547 361 571 q 460 488 435 524 q 501 405 486 451 q 515 307 515 358 q 495 184 515 240 q 438 88 475 128 q 349 24 400 47 q 235 1 297 1 q 149 21 186 1 q 85 76 111 40 q 44 160 58 111 q 31 269 31 210 q 53 426 31 350 q 113 560 75 501 q 202 653 151 618 q 310 689 253 689 q 339 677 326 689 q 351 647 351 665 q 339 618 351 631 q 310 606 326 606 q 263 595 285 606 q 225 569 242 585 q 195 535 208 553 q 174 503 182 517 q 130 391 146 453 q 114 269 114 329 q 144 135 114 185 q 235 85 175 85 q 328 106 290 85 q 388 160 365 128 q 422 232 411 193 q 432 307 432 271 q 426 366 432 335 q 405 424 419 397 q 367 471 390 451 q 307 496 343 490 q 281 510 290 499 q 271 538 271 521 q 284 567 271 556 q 313 578 297 578 l 318 578 l 318 578 z "},"p":{"ha":556,"x_min":47,"x_max":532,"o":"m 408 647 q 465 596 442 628 q 503 524 489 564 q 525 440 518 485 q 532 349 532 394 q 517 218 532 281 q 478 108 503 156 q 418 30 453 60 q 342 -1 383 0 q 228 53 279 -1 q 132 221 178 107 q 131 163 131 192 q 131 106 131 133 q 135 -117 131 -12 q 156 -297 140 -222 l 156 -306 q 144 -334 156 -321 q 114 -347 133 -347 q 88 -337 99 -347 q 74 -312 76 -328 q 53 -128 58 -235 q 47 100 47 -21 q 51 319 47 208 q 54 532 54 429 q 53 569 54 550 q 53 607 53 588 q 60 670 53 643 q 97 697 68 697 q 132 677 125 697 q 139 635 139 657 l 139 614 q 231 658 189 643 q 314 672 274 672 q 408 647 364 672 m 444 271 q 449 310 447 290 q 450 349 450 329 q 442 438 450 394 q 418 515 435 482 q 376 569 401 549 q 315 589 350 589 q 225 566 272 589 q 138 513 178 543 q 138 494 138 503 q 142 476 138 485 q 188 312 163 385 q 238 188 213 239 q 289 110 264 138 q 338 82 314 82 q 369 98 353 82 q 401 140 386 114 q 428 201 417 167 q 444 271 439 235 z "},"q":{"ha":578,"x_min":18,"x_max":575,"o":"m 574 -86 q 574 -91 574 -89 q 575 -96 575 -93 q 560 -128 575 -121 q 500 -146 544 -136 q 506 -231 501 -190 q 511 -306 511 -271 q 500 -334 511 -321 q 469 -347 489 -347 q 438 -329 449 -347 q 424 -284 428 -311 q 419 -224 419 -257 q 417 -162 418 -192 q 219 -183 288 -183 q 149 -178 175 -183 q 109 -164 122 -172 q 92 -145 96 -156 q 88 -125 88 -135 q 100 -94 88 -106 q 129 -83 113 -83 q 153 -90 142 -83 q 167 -96 154 -92 q 217 -100 181 -100 q 297 -96 244 -100 q 414 -78 349 -92 q 412 -4 413 -42 q 411 74 411 33 q 225 7 307 7 q 132 34 171 7 q 67 106 93 61 q 30 211 42 151 q 18 338 18 271 q 33 461 18 401 q 76 566 49 521 q 143 638 104 611 q 229 665 182 665 q 271 658 247 665 q 319 633 294 651 q 369 581 344 614 q 415 494 393 547 q 414 545 415 518 q 413 597 413 572 q 421 667 413 638 q 458 697 429 697 q 488 685 476 697 q 500 656 500 672 q 497 403 500 544 q 494 113 494 261 q 495 24 494 68 q 497 -61 496 -19 q 520 -57 514 -58 q 527 -55 526 -56 q 528 -54 528 -54 q 533 -54 528 -54 q 558 -63 547 -54 q 574 -86 569 -72 m 182 100 q 226 90 200 90 q 411 175 301 90 q 413 196 411 189 q 406 213 408 200 q 374 362 392 293 q 333 479 356 431 q 283 556 310 528 q 228 583 257 583 q 176 561 200 583 q 136 504 153 539 q 110 425 119 469 q 101 338 101 381 q 122 185 101 249 q 182 100 143 121 z "},"r":{"ha":513,"x_min":42,"x_max":504,"o":"m 454 518 q 481 451 471 478 q 497 409 492 425 q 503 386 501 393 q 504 378 504 379 q 492 346 504 360 q 463 332 481 332 q 422 363 432 332 q 417 373 421 363 q 409 400 414 383 q 397 438 404 417 q 381 481 389 458 q 340 564 357 539 q 317 596 324 589 q 292 547 308 583 q 255 442 276 510 q 207 274 233 375 q 150 31 181 172 q 136 8 147 17 q 110 -1 125 -1 q 79 10 90 -1 q 68 40 68 22 q 61 354 68 193 q 42 653 54 515 l 42 657 q 52 685 42 672 q 79 699 63 699 q 108 688 94 699 q 124 660 121 678 q 135 519 129 593 q 143 365 140 444 q 190 513 169 453 q 228 612 210 574 q 267 667 247 650 q 311 685 286 685 q 384 645 350 685 q 454 518 418 606 z "},"s":{"ha":549,"x_min":26,"x_max":525,"o":"m 458 297 q 525 167 525 247 q 508 100 525 131 q 461 47 490 69 q 393 10 432 24 q 311 -3 354 -3 q 142 55 217 -3 q 29 214 67 113 q 27 222 28 218 q 26 229 26 225 q 38 257 26 244 q 67 269 49 269 q 107 243 96 269 q 148 167 124 197 q 199 117 172 136 q 255 89 226 97 q 310 81 283 81 q 405 106 368 81 q 442 167 442 132 q 433 203 442 188 q 408 231 425 218 q 366 254 392 243 q 306 279 340 265 q 221 316 260 296 q 153 362 182 336 q 109 422 125 388 q 93 501 93 456 q 107 578 93 543 q 144 641 121 614 q 200 683 168 668 q 268 699 232 699 q 375 656 328 699 q 450 536 422 613 q 451 522 451 532 q 440 494 451 507 q 410 481 429 481 q 387 488 399 481 q 371 508 375 496 q 268 614 335 614 q 207 585 236 614 q 178 501 178 556 q 188 451 178 472 q 218 413 199 429 q 267 384 238 397 q 335 357 297 371 q 399 331 367 344 q 458 297 431 317 z "},"t":{"ha":614,"x_min":25,"x_max":599,"o":"m 571 497 q 599 458 599 486 q 596 444 599 453 q 279 0 432 0 q 185 51 221 0 q 130 179 150 101 q 103 350 110 257 q 96 526 96 443 q 97 593 96 560 q 99 658 97 626 q 44 666 63 661 q 25 700 25 671 q 37 731 25 718 q 67 743 49 743 q 77 742 68 743 q 103 742 86 742 q 102 780 103 760 q 101 822 101 800 q 103 877 101 850 q 110 926 106 904 q 125 960 115 947 q 151 974 135 974 q 181 961 168 974 q 193 932 193 949 q 190 844 193 892 q 186 744 186 796 q 322 753 269 744 q 402 772 374 761 q 440 790 431 782 q 450 797 450 797 q 463 826 450 814 q 492 838 475 838 q 522 826 510 838 q 533 796 533 814 q 513 745 533 769 q 450 702 493 721 q 341 672 407 683 q 182 661 275 661 q 180 596 181 629 q 179 528 179 563 q 185 388 179 464 q 201 244 190 311 q 231 132 213 178 q 278 83 250 86 q 286 85 279 83 q 305 93 293 86 q 331 115 317 100 q 365 156 346 129 q 440 284 401 204 q 518 472 479 364 q 556 500 528 500 q 563 499 560 500 q 571 497 567 499 z "},"u":{"ha":593,"x_min":38,"x_max":550,"o":"m 513 676 q 545 650 540 672 q 550 597 550 628 q 545 429 550 522 q 534 249 540 336 q 521 90 528 161 q 508 -12 514 19 q 494 -37 506 -28 q 467 -47 482 -47 q 436 -35 447 -47 q 425 -4 425 -22 q 428 45 425 13 q 437 122 432 78 q 447 219 442 167 q 456 328 453 272 q 324 90 393 169 q 192 11 256 11 q 81 98 125 11 q 38 342 38 185 q 71 643 38 481 q 85 667 74 658 q 111 675 96 675 q 142 663 131 675 q 153 635 153 650 l 153 626 q 121 340 121 467 q 132 195 121 246 q 157 122 143 144 q 182 97 171 100 q 192 94 193 94 q 251 137 215 94 q 326 253 288 179 q 402 427 365 326 q 467 644 439 528 q 483 668 469 660 q 513 676 497 676 z "},"v":{"ha":572,"x_min":24,"x_max":539,"o":"m 496 693 q 533 669 526 693 q 539 615 539 646 q 534 525 539 583 q 517 398 529 467 q 486 258 506 329 q 438 128 467 186 q 372 32 410 69 q 285 -6 333 -6 q 203 47 233 -6 q 152 183 172 100 q 115 365 132 265 q 76 558 99 464 q 53 635 63 613 q 37 665 43 657 q 27 676 31 674 q 24 693 24 678 q 36 722 24 710 q 64 733 49 733 q 121 688 100 733 q 158 566 142 643 q 193 387 175 489 q 240 172 211 285 q 267 97 256 114 q 281 78 278 79 q 283 77 282 78 q 285 76 283 76 q 325 103 304 76 q 365 175 346 131 q 400 276 383 219 q 429 393 417 333 q 449 510 442 453 q 456 613 456 567 q 455 634 456 624 q 454 651 454 644 q 465 678 454 667 q 490 693 475 690 l 496 693 z "},"w":{"ha":874,"x_min":39,"x_max":840,"o":"m 840 610 q 821 364 840 465 q 781 201 801 263 q 709 55 749 108 q 633 1 669 1 q 600 13 614 1 q 576 49 586 25 q 556 111 565 74 q 535 201 546 149 q 513 293 525 247 q 488 376 500 339 q 463 438 475 414 q 439 464 450 461 q 425 448 436 461 q 390 389 414 435 q 358 309 372 353 q 328 221 343 265 q 292 122 308 164 q 260 51 275 79 q 228 10 244 24 q 190 -3 211 -3 q 143 19 163 -3 q 118 64 131 33 q 93 163 106 94 q 67 348 81 232 q 39 649 53 464 q 49 678 39 664 q 78 693 58 693 q 108 683 94 693 q 122 656 121 674 q 156 286 140 428 q 193 103 172 144 q 258 261 232 182 q 310 404 285 340 q 364 508 335 468 q 439 547 393 547 q 499 524 474 547 q 542 462 524 500 q 575 376 561 424 q 601 278 589 328 q 622 184 613 229 q 643 106 632 139 q 675 158 656 122 q 713 253 694 193 q 744 400 731 313 q 757 610 757 488 q 769 639 757 626 q 799 651 782 651 q 828 639 817 651 q 840 610 840 626 z "},"x":{"ha":567,"x_min":38,"x_max":538,"o":"m 325 319 q 419 185 369 250 q 525 67 469 121 q 538 36 538 54 q 525 8 538 21 q 496 -4 513 -4 q 467 7 478 -4 q 363 124 413 61 q 268 256 313 188 q 181 151 221 203 q 118 39 142 99 q 79 13 107 13 q 49 26 60 13 q 38 54 38 39 q 40 69 38 64 q 120 207 71 144 q 222 329 169 269 q 126 508 168 419 q 54 672 83 596 q 51 686 51 681 q 63 716 51 703 q 93 729 74 729 q 132 701 121 729 q 196 553 158 632 q 279 394 233 475 q 370 517 329 454 q 428 654 411 579 q 442 678 431 669 q 468 686 453 686 q 498 674 486 686 q 510 646 510 663 q 509 641 510 643 q 508 636 508 639 q 438 465 489 540 q 325 319 386 389 z "},"y":{"ha":536,"x_min":22,"x_max":522,"o":"m 486 692 q 513 677 503 689 q 522 650 522 665 l 522 644 q 486 471 511 558 q 429 298 461 383 q 363 130 397 213 q 301 -30 329 47 q 256 -177 274 -107 q 238 -307 238 -247 q 226 -336 238 -324 q 196 -349 214 -349 q 167 -336 179 -349 q 154 -307 154 -324 q 176 -155 154 -235 q 229 13 197 -75 q 133 97 172 32 q 69 248 93 163 q 33 427 44 333 q 22 596 22 521 q 35 626 22 614 q 64 638 47 638 q 94 626 82 638 q 106 596 106 614 q 115 438 106 529 q 149 264 125 347 q 165 214 154 242 q 189 161 175 186 q 220 117 203 136 q 260 92 238 97 q 315 230 288 160 q 368 371 343 300 q 412 513 393 442 q 440 656 431 585 q 454 681 443 671 q 481 692 465 692 l 486 692 l 486 692 z "},"z":{"ha":639,"x_min":39,"x_max":608,"o":"m 549 126 q 565 131 557 131 q 594 119 581 131 q 608 89 608 107 q 576 48 608 65 q 499 19 544 31 q 402 1 453 7 q 313 -4 351 -4 q 204 8 254 -4 q 117 44 154 19 q 60 105 81 68 q 39 190 39 142 q 64 291 39 243 q 127 381 89 339 q 213 459 165 422 q 306 527 260 496 q 389 583 351 558 q 447 629 426 608 q 432 631 440 631 q 408 632 424 632 q 368 631 392 632 q 313 624 344 629 q 236 610 264 615 q 194 601 208 604 q 176 596 179 597 q 171 594 172 594 q 142 606 154 594 q 129 636 129 617 q 137 662 129 650 q 160 676 144 674 q 188 683 160 676 q 258 696 217 689 q 341 709 299 703 q 410 715 383 715 q 479 707 453 715 q 519 686 506 699 q 536 659 532 674 q 540 631 540 644 q 509 578 540 607 q 432 517 478 550 q 331 447 386 485 q 231 369 276 410 q 153 283 185 328 q 122 192 122 239 q 167 109 122 139 q 313 79 213 79 q 438 92 374 79 q 549 126 503 106 z "},"d":{"ha":525,"x_min":13,"x_max":481,"o":"m 417 1047 q 444 1037 432 1047 q 458 1011 456 1026 q 469 883 465 956 q 476 728 474 810 q 478 558 478 646 q 479 385 479 471 l 479 183 q 480 138 479 161 q 481 90 481 114 q 472 18 481 49 q 436 -12 464 -12 q 407 -1 419 -12 q 394 29 394 11 q 395 117 394 69 q 396 214 396 164 q 288 53 343 106 q 178 1 232 1 q 110 24 140 1 q 58 87 79 46 q 24 186 36 128 q 13 317 13 244 q 26 448 13 389 q 67 549 40 507 q 132 615 93 592 q 219 639 171 639 q 396 579 297 639 q 390 812 393 701 q 376 1000 386 922 l 376 1006 q 386 1033 376 1021 q 413 1047 396 1044 l 417 1047 m 258 147 q 327 263 293 192 q 396 429 361 333 l 396 478 q 309 531 356 507 q 221 556 263 556 q 153 529 178 556 q 115 465 128 503 q 98 386 101 428 q 94 314 94 344 q 99 236 94 276 q 115 163 104 196 q 140 107 125 129 q 176 85 156 85 q 258 147 211 85 z "},"H":{"ha":818,"x_min":32,"x_max":825,"o":"m 815 549 q 825 522 825 538 q 808 489 825 506 q 765 455 792 472 q 705 421 738 438 q 640 390 672 404 q 638 329 638 358 q 638 272 638 300 q 641 144 638 193 q 649 67 644 96 q 659 27 653 39 q 669 10 665 15 q 677 1 674 4 q 681 -14 681 -3 q 669 -42 681 -29 q 639 -56 657 -56 q 606 -39 618 -56 q 588 -10 597 -29 q 572 44 579 8 q 559 135 564 79 q 554 276 554 192 q 554 315 554 296 q 556 354 554 333 q 453 311 506 332 q 353 270 401 290 q 260 232 304 250 q 183 197 217 214 l 183 126 q 185 80 183 101 q 186 43 186 58 q 174 13 186 25 q 144 0 161 0 q 108 23 114 0 q 101 74 101 46 q 56 101 81 83 q 32 151 32 119 q 42 193 32 176 q 64 221 51 210 q 87 238 76 232 q 100 244 97 243 q 99 342 99 292 q 99 443 99 392 q 99 594 99 519 q 103 737 100 669 q 110 860 106 804 q 121 951 114 915 q 135 976 124 967 q 163 986 147 986 q 191 974 179 986 q 203 944 203 961 l 203 938 q 192 844 196 901 q 185 715 188 786 q 183 566 183 644 q 182 410 182 488 l 182 290 q 360 365 260 326 q 560 446 460 404 q 561 465 560 460 q 575 628 567 547 q 594 777 583 708 q 615 900 604 846 q 639 985 626 954 q 655 1003 644 996 q 678 1011 665 1011 q 708 999 696 1011 q 719 969 719 986 q 719 962 719 965 q 717 954 718 958 q 695 880 706 928 q 676 769 685 832 q 659 633 667 707 q 646 485 651 560 q 690 510 668 496 q 729 535 711 524 q 761 555 747 547 q 783 563 775 563 q 815 549 803 563 z "},"C":{"ha":713,"x_min":35,"x_max":694,"o":"m 249 -6 q 90 106 144 -6 q 35 417 35 218 q 56 634 35 533 q 116 809 78 735 q 206 926 154 883 q 319 969 258 969 q 384 953 350 969 q 450 899 418 936 q 510 805 482 863 q 557 665 538 747 l 557 657 q 546 628 557 642 q 517 614 535 614 q 490 623 501 614 q 475 647 478 632 q 408 823 450 760 q 317 886 365 886 q 241 848 276 886 q 178 745 206 810 q 134 595 150 681 q 118 417 118 510 q 127 278 118 340 q 153 171 136 215 q 193 102 169 126 q 247 78 217 78 q 324 104 282 78 q 414 180 367 131 q 513 300 461 229 q 617 461 564 371 q 653 482 626 482 q 683 469 672 482 q 694 440 694 456 q 689 419 694 431 q 455 103 565 211 q 249 -6 344 -6 z "},"A":{"ha":801,"x_min":21,"x_max":785,"o":"m 779 468 q 785 447 785 458 q 744 400 785 417 q 647 371 704 383 q 656 213 654 285 q 658 96 658 140 q 653 21 658 42 q 617 0 647 0 q 587 13 599 0 q 575 43 575 26 l 575 81 q 574 194 575 121 q 565 354 572 267 q 374 319 478 336 q 175 279 269 303 q 173 231 174 256 q 172 178 172 206 q 174 124 172 151 q 175 67 175 96 q 168 19 175 39 q 133 0 161 0 q 108 3 117 0 q 94 20 99 7 q 90 60 90 33 q 89 135 89 88 q 90 189 89 158 q 90 253 90 219 q 76 247 83 250 q 63 244 69 244 q 33 257 46 244 q 21 286 21 269 q 28 309 21 300 q 45 324 35 318 q 69 333 56 329 q 93 342 82 338 q 123 617 103 497 q 176 819 143 738 q 258 944 210 901 q 371 986 306 986 q 542 858 475 986 q 640 454 608 729 q 705 477 678 465 q 743 489 732 489 q 779 468 767 489 m 558 438 q 529 633 547 546 q 487 779 511 719 q 434 871 463 839 q 372 903 406 903 q 303 871 332 903 q 268 820 288 854 q 231 727 249 786 q 199 580 214 668 q 178 365 185 492 q 310 394 242 382 q 442 417 378 406 l 558 438 z "},"B":{"ha":699,"x_min":38,"x_max":676,"o":"m 611 410 q 676 267 676 347 q 640 159 676 208 q 535 74 603 110 q 374 19 468 39 q 168 0 281 0 q 156 -28 165 -15 q 129 -42 146 -42 q 99 -32 111 -42 q 85 -3 86 -22 q 78 119 81 46 q 76 279 76 192 q 77 351 76 315 q 78 425 78 388 q 50 438 63 426 q 38 467 38 449 q 47 494 38 482 q 74 508 57 506 q 78 544 76 508 q 82 630 81 579 q 84 735 83 681 q 85 829 85 790 q 85 881 85 868 q 85 860 85 893 l 85 908 q 92 983 85 953 q 131 1014 99 1014 q 160 1001 149 1014 q 172 972 172 989 q 172 938 172 957 q 169 897 171 918 q 436 967 338 967 q 547 929 508 967 q 592 825 586 892 q 574 745 592 786 q 523 664 556 704 q 445 585 490 624 q 344 517 400 547 q 499 478 432 504 q 611 410 567 453 m 593 268 q 566 338 593 307 q 492 392 539 369 q 381 426 444 414 q 246 439 318 439 q 161 435 204 439 q 160 355 160 394 q 160 276 160 315 q 160 174 160 224 q 163 83 161 125 q 369 103 290 83 q 489 144 447 124 q 593 261 586 192 l 593 268 m 485 874 q 467 881 478 878 q 436 883 456 883 q 338 867 401 883 q 168 806 274 851 l 163 528 q 289 582 226 547 q 400 658 351 617 q 478 740 449 699 q 508 815 508 782 q 499 858 508 846 q 485 874 490 869 z "},"D":{"ha":692,"x_min":38,"x_max":663,"o":"m 451 932 q 509 888 483 913 q 555 835 535 863 q 590 778 575 807 q 615 724 604 749 q 651 606 639 667 q 663 488 663 546 q 638 296 663 385 q 568 141 613 207 q 462 37 524 75 q 326 -1 400 -1 q 250 9 290 -1 q 164 43 210 19 q 152 6 157 22 q 121 -11 147 -11 q 91 1 103 -11 q 79 29 79 14 q 80 60 79 43 q 82 97 81 78 q 53 120 68 107 q 38 153 38 133 q 49 181 38 168 q 81 194 61 194 l 85 194 q 88 388 86 282 q 93 599 90 494 q 98 795 96 703 q 100 946 100 888 l 100 965 q 112 995 100 983 q 142 1007 124 1007 q 172 994 160 1007 q 183 964 183 981 l 183 944 q 182 929 182 940 q 258 956 222 949 q 325 964 293 964 q 396 955 364 964 q 451 932 428 946 m 579 489 q 569 591 579 538 q 539 693 558 644 q 509 755 528 722 q 464 816 490 788 q 402 863 438 844 q 324 882 367 882 q 181 835 260 882 q 178 669 179 760 q 174 483 176 578 q 170 299 172 389 q 167 139 168 210 q 326 82 251 82 q 424 112 379 82 q 503 194 469 142 q 557 318 538 247 q 579 472 576 389 l 579 489 z "},"F":{"ha":553,"x_min":32,"x_max":551,"o":"m 511 972 q 540 960 528 972 q 551 929 551 947 q 538 901 551 913 q 508 889 525 889 l 456 889 q 310 883 367 889 q 220 869 253 876 q 174 856 188 863 q 158 847 160 849 q 156 833 157 843 q 153 803 154 824 q 152 751 153 783 q 151 671 151 719 q 153 570 151 629 q 154 453 154 511 q 223 458 185 454 q 299 469 261 463 q 373 485 338 475 q 435 508 408 494 q 453 513 443 513 q 482 501 468 513 q 496 471 496 490 q 476 438 496 451 q 427 413 457 424 q 359 394 397 401 q 283 381 321 386 q 212 374 246 376 q 157 369 178 371 q 163 186 160 274 q 168 40 165 99 q 156 10 168 24 q 128 -3 144 -3 q 97 8 108 -3 q 85 38 85 19 q 79 183 82 96 q 74 367 76 271 q 44 379 57 367 q 32 408 32 392 q 44 437 32 425 q 71 450 56 449 q 69 574 71 513 q 68 683 68 635 q 69 781 68 743 q 74 840 71 818 q 79 871 76 861 q 85 886 82 881 q 139 930 99 913 q 233 956 179 947 q 349 969 288 965 q 464 972 410 972 l 511 972 l 511 972 z "},"E":{"ha":635,"x_min":33,"x_max":619,"o":"m 569 129 q 574 130 572 129 q 579 131 576 131 q 608 118 596 131 q 619 88 619 106 q 610 63 619 74 q 586 49 601 51 q 545 41 585 49 q 450 25 506 33 q 334 10 394 17 q 231 3 274 3 q 138 15 169 3 q 97 56 107 28 q 94 73 97 57 q 87 128 90 89 q 79 236 83 168 q 74 411 75 304 q 46 423 58 411 q 33 451 33 435 q 44 481 33 468 q 74 494 56 493 q 73 531 74 514 q 72 567 72 549 q 74 723 72 665 q 80 812 76 781 q 86 853 83 843 q 90 868 89 864 q 202 941 114 915 q 447 967 290 967 q 472 967 458 967 q 499 963 486 967 q 519 952 511 960 q 528 928 528 944 q 517 899 528 911 q 489 883 507 886 l 447 883 q 307 876 361 883 q 222 860 253 869 q 178 843 190 851 q 165 833 167 835 q 160 768 165 831 q 156 564 156 706 q 156 532 156 549 q 157 499 157 515 q 240 503 193 500 q 333 511 286 507 q 424 519 381 515 q 501 529 468 524 l 508 529 q 537 518 524 529 q 550 490 550 507 q 540 463 550 475 q 515 447 531 450 q 434 437 481 442 q 339 428 388 432 q 242 420 290 424 q 157 415 194 417 q 164 204 160 289 q 174 92 168 119 q 192 88 179 89 q 229 86 204 86 q 275 90 243 86 q 345 97 307 93 q 424 108 383 101 q 497 118 464 114 q 551 126 531 122 q 569 129 571 129 z "},"G":{"ha":806,"x_min":36,"x_max":797,"o":"m 756 531 q 785 518 774 531 q 797 489 797 506 q 792 464 797 472 q 776 451 788 456 q 746 447 765 447 q 696 444 726 446 l 696 439 q 692 421 696 429 q 473 106 582 214 q 264 -3 364 -3 q 193 16 232 -3 q 119 82 154 35 q 60 210 83 129 q 36 417 36 292 q 55 641 36 539 q 107 817 74 743 q 188 931 140 890 q 294 972 236 972 q 360 956 325 972 q 433 906 396 940 q 508 815 471 871 q 581 681 546 760 q 583 665 583 669 q 572 635 583 649 q 543 622 561 622 q 519 629 531 622 q 503 647 508 636 q 399 826 454 763 q 296 889 344 889 q 227 852 260 889 q 171 751 194 815 q 133 600 147 686 q 119 417 119 514 q 127 291 119 351 q 152 184 135 231 q 197 109 169 138 q 264 81 224 81 q 340 106 299 81 q 424 176 381 131 q 515 289 468 222 q 607 439 561 356 q 474 418 525 429 q 394 397 422 407 q 355 377 365 386 q 344 363 344 368 q 333 333 344 344 q 303 321 321 321 q 273 333 285 321 q 261 363 261 344 q 265 387 261 374 q 278 415 268 400 q 308 444 289 429 q 357 472 326 460 q 425 494 385 485 q 508 509 465 503 q 595 519 551 515 q 674 526 639 524 q 731 530 708 529 q 756 531 753 531 z "},"I":{"ha":168,"x_min":26,"x_max":133,"o":"m 86 986 q 125 953 117 986 q 133 869 133 919 q 133 737 133 810 q 131 585 132 664 q 127 425 129 506 q 122 272 125 344 q 117 140 119 200 q 110 42 114 81 q 95 15 107 25 q 68 4 83 4 q 38 17 49 4 q 26 50 26 31 q 35 182 31 99 q 42 363 39 265 q 47 565 46 461 q 49 760 49 669 q 47 861 49 814 q 46 943 46 908 q 56 972 46 960 q 86 986 67 985 z "},"J":{"ha":651,"x_min":31,"x_max":622,"o":"m 571 971 q 581 972 574 972 q 610 960 597 972 q 622 929 622 949 q 619 910 622 917 q 608 897 617 903 q 582 888 599 892 q 538 878 565 883 q 551 738 544 821 q 557 561 557 654 q 488 144 557 286 q 285 0 419 3 q 196 17 233 0 q 133 62 158 35 q 91 122 107 89 q 66 188 75 156 q 54 249 57 221 q 51 294 51 278 q 60 334 51 318 q 93 350 69 350 q 124 337 111 350 q 136 307 136 324 q 150 194 135 243 q 166 153 156 174 q 192 118 176 133 q 231 93 208 103 q 283 83 253 83 q 426 208 379 86 q 474 557 474 329 q 468 725 474 644 q 456 863 463 806 q 371 853 415 857 q 288 849 326 849 q 200 854 246 849 q 117 872 154 860 q 55 900 79 883 q 31 940 31 917 q 44 970 31 958 q 72 982 57 982 q 96 975 85 982 q 174 942 126 953 q 285 932 222 932 q 363 935 321 932 q 444 944 406 939 q 442 953 442 951 q 442 958 442 956 q 455 986 442 974 q 485 999 468 999 q 513 988 500 999 q 526 960 526 976 q 571 971 568 971 z "},"K":{"ha":760,"x_min":35,"x_max":722,"o":"m 569 260 q 721 54 685 172 q 722 42 722 50 q 711 13 722 26 q 682 0 700 0 q 657 8 668 0 q 642 29 646 15 q 488 215 606 140 q 179 326 371 289 q 176 216 175 274 q 174 110 176 158 q 161 31 171 63 q 126 0 151 0 q 97 13 108 0 q 85 40 85 25 q 89 169 85 92 q 96 338 93 246 q 52 347 69 340 q 35 382 35 354 q 36 399 35 393 q 44 409 38 404 q 64 421 51 414 q 100 443 76 428 q 104 608 103 526 q 106 761 106 689 q 103 853 106 810 q 101 928 101 896 q 111 958 101 943 q 139 972 121 972 q 183 937 174 972 q 192 849 192 901 q 190 685 192 774 q 185 500 188 596 q 279 572 224 528 q 390 672 335 615 q 490 797 444 729 q 557 942 536 865 q 572 964 560 956 q 597 972 585 972 q 627 960 615 972 q 639 931 639 947 q 638 919 639 924 q 574 777 618 847 q 469 641 529 707 q 340 516 410 575 q 199 407 269 457 q 294 385 243 399 q 394 352 344 371 q 488 310 443 333 q 569 260 533 286 z "},"L":{"ha":596,"x_min":53,"x_max":589,"o":"m 533 133 q 549 136 542 136 q 576 124 564 136 q 589 93 589 113 q 561 56 589 65 q 529 47 560 56 q 454 27 499 38 q 360 8 410 17 q 268 -1 310 -1 q 140 26 189 -1 q 81 110 92 53 q 59 281 65 186 q 53 481 53 376 q 58 710 53 596 q 71 924 64 825 q 84 951 72 939 q 113 963 96 963 q 143 949 132 963 q 154 918 154 935 q 142 707 147 821 q 136 479 136 593 q 142 289 136 379 q 163 126 147 199 q 168 110 164 118 q 183 96 172 103 q 215 85 194 89 q 269 81 235 81 q 341 88 296 81 q 430 104 386 94 q 504 122 474 114 q 533 133 535 131 z "},"M":{"ha":890,"x_min":43,"x_max":851,"o":"m 793 825 q 812 708 803 778 q 827 560 821 639 q 838 400 833 481 q 846 249 843 319 q 850 124 849 178 q 851 47 851 71 q 839 17 851 29 q 810 6 826 6 q 780 17 792 6 q 768 47 768 29 q 767 132 768 81 q 763 245 765 183 q 758 376 761 307 q 749 513 754 444 q 722 742 738 649 q 696 868 706 836 q 675 764 683 828 q 658 628 667 700 q 640 484 650 557 q 617 353 631 411 q 587 269 603 300 q 554 220 571 238 q 521 197 538 203 q 489 192 504 192 q 417 226 451 192 q 353 315 383 260 q 294 440 322 369 q 241 582 267 510 q 192 723 215 654 q 149 844 169 792 q 140 765 144 813 q 133 658 136 717 q 128 531 131 599 q 126 393 126 464 q 130 258 126 321 q 138 147 133 194 q 145 69 142 99 q 149 38 149 40 q 137 7 149 19 q 107 -6 125 -6 q 82 2 93 -6 q 67 24 71 10 q 56 85 60 44 q 49 177 51 125 q 44 289 46 229 q 43 408 43 349 q 47 610 43 517 q 57 778 50 704 q 66 854 61 824 q 76 904 71 885 q 86 934 81 924 q 96 951 92 944 q 119 971 107 967 q 139 975 132 975 q 184 948 163 975 q 226 876 206 921 q 267 772 247 831 q 309 648 288 713 q 353 519 331 583 q 401 399 375 454 q 438 328 422 353 q 465 291 454 303 q 483 277 476 279 q 489 275 489 275 q 515 310 503 275 q 539 398 528 344 q 559 516 550 451 q 575 639 568 581 q 598 806 586 740 q 624 908 610 871 q 655 958 638 944 q 694 972 672 972 q 751 938 726 972 q 793 825 776 904 z "},"N":{"ha":814,"x_min":42,"x_max":765,"o":"m 714 864 q 733 789 724 828 q 750 703 743 750 q 761 598 757 656 q 765 465 765 540 q 697 118 765 242 q 499 -6 628 -6 q 374 40 429 -6 q 274 172 318 86 q 198 383 231 258 q 143 665 165 508 q 135 540 139 603 q 128 417 131 476 q 125 306 126 358 q 124 217 124 254 q 130 81 124 118 q 136 40 136 43 q 124 13 136 25 q 93 0 113 0 q 69 8 81 0 q 54 29 58 15 q 49 48 51 36 q 46 81 47 60 q 43 135 44 101 q 42 217 42 168 q 44 350 42 275 q 50 504 46 425 q 59 659 54 583 q 71 793 64 735 q 81 876 76 844 q 89 924 85 907 q 97 949 93 942 q 103 960 100 956 q 124 978 113 975 q 139 982 136 982 q 182 942 169 982 q 204 826 194 901 q 228 645 214 751 q 276 406 243 539 q 500 78 360 78 q 586 112 551 78 q 642 201 621 146 q 673 324 664 256 q 682 461 682 393 q 678 572 682 522 q 669 664 675 622 q 656 743 664 706 q 640 817 649 781 q 617 894 625 875 q 603 916 608 913 q 597 918 599 919 q 596 936 596 917 q 612 968 596 958 q 647 978 628 978 q 660 974 653 978 q 675 960 667 971 q 693 926 683 949 q 714 864 703 903 z "},"O":{"ha":733,"x_min":33,"x_max":706,"o":"m 660 731 q 698 708 690 731 q 706 660 706 685 q 680 402 706 522 q 606 192 654 282 q 488 51 557 103 q 332 0 419 0 q 208 35 264 0 q 114 135 153 71 q 54 287 75 199 q 33 479 33 375 q 60 669 33 581 q 131 824 86 758 q 237 927 176 889 q 365 965 297 965 q 474 936 426 965 q 552 854 521 907 q 599 727 583 801 q 615 564 615 653 q 608 515 615 538 q 572 492 601 492 q 542 503 553 492 q 531 533 531 515 q 531 563 531 549 q 532 592 532 578 q 488 803 532 725 q 367 882 444 882 q 269 849 314 882 q 190 762 224 817 q 136 634 156 707 q 117 482 117 561 q 133 320 117 393 q 176 194 149 247 q 244 113 204 142 q 332 83 283 83 q 427 115 376 83 q 522 211 478 146 q 594 379 565 276 q 622 625 622 482 q 622 656 622 640 q 621 688 621 672 q 631 717 621 704 q 660 731 642 729 z "},"P":{"ha":672,"x_min":44,"x_max":663,"o":"m 435 943 q 551 924 507 943 q 621 877 596 906 q 654 815 646 849 q 663 754 663 782 q 627 612 663 679 q 534 494 592 544 q 405 414 476 443 q 261 385 333 385 q 132 407 194 385 q 130 272 131 336 q 129 154 129 208 q 130 93 129 121 q 131 43 131 65 q 119 13 131 26 q 90 0 107 0 q 52 24 60 0 q 44 83 44 47 q 45 213 44 139 q 47 371 46 288 q 51 542 49 454 q 56 710 53 629 q 63 858 60 790 q 71 972 67 926 q 85 999 72 988 q 114 1010 97 1010 q 142 997 131 1010 q 154 967 154 983 q 152 926 154 949 q 147 875 150 903 q 435 943 314 940 m 576 724 q 578 738 578 731 q 579 753 579 744 q 544 831 579 801 q 436 860 508 860 q 143 783 321 860 q 138 644 140 717 q 133 494 136 571 q 260 468 199 468 q 382 493 326 468 q 478 556 438 518 q 544 640 519 594 q 576 724 569 685 z "},"Q":{"ha":732,"x_min":25,"x_max":697,"o":"m 551 121 q 651 32 610 81 q 697 -78 692 -17 q 688 -109 697 -94 q 660 -124 678 -124 q 630 -114 643 -124 q 614 -85 617 -104 q 576 -9 611 -46 q 490 61 540 28 q 409 15 453 29 q 325 0 365 0 q 202 35 257 0 q 108 133 147 69 q 47 285 68 197 q 25 479 25 372 q 51 667 25 579 q 122 822 78 756 q 227 927 167 889 q 357 965 288 965 q 465 937 418 965 q 544 856 513 908 q 591 729 575 803 q 607 564 607 656 q 600 515 607 538 q 564 492 593 492 q 534 503 546 492 q 522 533 522 515 q 523 563 522 549 q 524 592 524 578 q 480 803 524 724 q 358 882 436 882 q 258 848 304 882 q 179 758 213 814 q 127 628 146 701 q 108 474 108 554 q 125 313 108 385 q 171 189 142 240 q 240 110 200 138 q 324 82 279 82 q 414 108 365 82 q 331 155 378 132 q 244 203 285 178 q 176 261 204 229 q 149 333 149 293 q 160 363 149 351 q 190 375 172 375 q 216 369 211 375 q 224 353 221 364 q 234 327 226 343 q 271 290 242 311 q 366 231 308 263 q 481 167 424 200 q 574 343 535 229 q 614 625 614 457 q 613 656 614 640 q 613 688 613 671 q 623 717 613 703 q 651 731 633 731 q 690 708 682 731 q 697 660 697 686 q 663 352 697 492 q 551 121 628 213 z "},"R":{"ha":731,"x_min":36,"x_max":697,"o":"m 694 46 q 697 31 697 35 q 685 1 697 14 q 656 -11 674 -11 q 617 15 625 -11 q 550 133 593 75 q 449 241 507 192 q 321 326 390 290 q 176 375 251 361 q 156 374 169 374 q 153 254 154 311 q 153 149 153 197 q 153 92 153 118 q 154 43 154 65 q 142 13 154 26 q 114 0 131 0 q 76 23 83 0 q 68 82 68 46 q 69 218 68 142 q 72 382 69 294 q 47 395 57 382 q 36 422 36 408 q 47 451 36 439 q 74 464 58 463 q 76 603 75 533 q 81 735 78 672 q 87 852 83 799 q 94 944 90 906 q 108 971 96 960 q 138 982 119 982 q 166 969 154 982 q 178 939 178 956 q 176 910 178 926 q 172 876 175 894 q 469 947 351 947 q 611 905 560 947 q 663 788 663 863 q 636 678 663 735 q 565 570 610 622 q 463 476 521 518 q 340 410 404 433 q 454 342 400 382 q 554 256 508 303 q 635 156 600 210 q 694 46 671 103 m 157 461 q 168 460 163 461 q 181 458 174 460 q 328 496 256 463 q 456 577 400 529 q 545 681 511 625 q 579 788 579 736 q 471 864 579 864 q 168 783 354 864 q 162 630 164 713 q 157 461 160 547 z "},"S":{"ha":626,"x_min":24,"x_max":592,"o":"m 357 553 q 446 481 403 518 q 521 403 489 444 q 572 317 553 363 q 592 221 592 272 q 535 65 592 125 q 376 6 478 6 q 279 22 328 6 q 186 67 231 38 q 143 101 165 81 q 99 148 121 121 q 58 210 76 175 q 25 290 39 246 q 24 301 24 293 q 35 331 24 317 q 64 344 46 344 q 90 336 78 344 q 106 314 101 328 q 158 202 125 246 q 230 133 192 158 q 306 99 268 108 q 375 89 344 89 q 406 91 383 89 q 451 105 428 93 q 492 142 474 117 q 510 215 510 168 q 480 319 510 274 q 405 406 450 365 q 307 485 360 447 q 209 563 254 522 q 134 651 164 604 q 104 757 104 697 q 121 846 104 806 q 165 915 138 886 q 231 958 193 943 q 310 974 268 974 q 476 904 401 974 q 586 717 550 835 q 588 704 588 713 q 576 675 588 688 q 546 663 564 663 q 506 693 515 663 q 424 838 478 785 q 307 890 371 890 q 222 854 257 890 q 188 761 188 818 q 235 656 188 706 q 357 553 283 606 z "},"T":{"ha":736,"x_min":14,"x_max":722,"o":"m 671 957 q 681 958 674 958 q 710 947 697 958 q 722 915 722 935 q 690 878 722 892 q 610 857 658 864 q 506 848 563 850 q 403 846 450 846 q 397 683 400 776 q 392 491 394 590 q 388 297 389 392 q 386 128 386 201 q 387 65 386 93 q 388 15 388 36 q 376 -14 388 0 q 347 -28 364 -28 q 308 -4 315 -28 q 300 60 300 19 q 301 167 300 106 q 303 299 301 229 q 306 443 304 368 q 310 590 308 518 q 315 728 313 663 q 319 847 317 794 q 131 866 206 858 q 49 876 56 874 q 24 890 33 879 q 14 917 14 901 q 27 947 14 935 q 56 958 40 958 l 64 958 q 85 955 64 958 q 141 947 106 951 q 224 938 176 942 q 325 931 271 933 q 341 950 331 942 q 364 958 351 958 q 390 950 379 958 q 404 929 401 942 q 542 935 474 929 q 671 957 610 942 z "},"U":{"ha":718,"x_min":38,"x_max":676,"o":"m 639 974 q 665 959 654 971 q 676 931 676 947 q 669 747 674 843 q 660 556 664 651 q 652 368 656 460 q 649 197 649 276 q 651 96 649 142 q 660 18 653 50 l 660 11 q 648 -19 660 -6 q 618 -32 636 -32 q 588 -16 599 -32 q 573 27 578 0 q 567 88 568 54 q 565 160 565 122 q 567 322 565 235 q 575 507 569 410 q 476 265 531 374 q 431 182 457 228 q 371 96 404 136 q 300 28 338 56 q 224 1 263 1 q 151 28 185 1 q 92 106 117 54 q 52 233 67 158 q 38 407 38 308 q 56 667 38 532 q 114 943 75 801 q 128 965 117 957 q 154 974 139 974 q 185 961 174 974 q 196 932 196 949 q 194 921 196 924 q 140 663 158 790 q 121 419 121 535 q 128 289 121 350 q 150 183 136 228 q 183 111 164 138 q 224 85 201 85 q 250 95 233 85 q 293 133 267 106 q 385 269 340 185 q 469 459 431 353 q 540 688 508 565 q 593 939 572 811 q 609 964 596 954 q 639 974 622 974 z "},"V":{"ha":639,"x_min":39,"x_max":610,"o":"m 568 985 q 598 973 586 985 q 610 943 610 961 q 606 831 610 896 q 593 694 601 767 q 573 544 585 621 q 546 396 561 468 q 444 101 503 201 q 306 0 385 0 q 240 26 269 0 q 187 94 211 51 q 144 188 163 136 q 111 292 125 240 q 88 392 97 344 q 72 472 78 440 q 47 652 56 564 q 39 815 39 740 q 39 875 39 844 q 44 930 39 906 q 59 970 49 954 q 90 986 69 986 q 119 973 108 986 q 131 943 131 960 q 126 887 131 918 q 122 819 122 856 q 131 670 122 751 q 153 508 139 589 q 185 349 167 426 q 224 213 203 272 q 265 119 244 154 q 306 83 286 83 q 365 130 336 83 q 417 251 393 176 q 462 421 442 326 q 497 610 482 515 q 519 793 511 706 q 526 943 526 881 q 539 973 526 961 q 568 985 551 985 z "},"W":{"ha":1025,"x_min":44,"x_max":990,"o":"m 949 985 q 978 973 965 985 q 990 943 990 961 q 986 834 990 897 q 974 699 982 771 q 955 549 967 626 q 928 397 943 471 q 829 95 885 190 q 707 0 774 0 q 653 17 676 0 q 615 61 631 35 q 588 119 599 88 q 569 179 576 150 q 539 326 551 246 q 517 481 526 406 q 501 566 510 524 q 493 638 493 608 q 469 548 482 601 q 446 436 457 494 q 417 291 432 368 q 379 149 401 214 q 326 42 357 85 q 250 0 296 0 q 164 59 201 0 q 99 218 126 118 q 58 450 72 318 q 44 728 44 582 q 45 821 44 775 q 51 903 46 867 q 67 963 56 940 q 100 986 78 986 q 130 974 118 986 q 142 946 142 961 q 134 856 142 911 q 126 733 126 800 q 137 506 126 617 q 164 304 147 394 q 203 155 181 214 q 249 83 225 96 q 255 89 250 85 q 267 106 260 93 q 283 141 274 118 q 304 200 293 164 q 358 416 338 313 q 397 598 378 519 q 438 723 415 676 q 499 769 460 769 q 538 750 518 769 q 572 665 558 731 q 588 576 579 632 q 606 456 596 521 q 626 325 615 392 q 650 205 638 258 q 676 117 663 151 q 707 83 690 83 q 757 131 732 83 q 804 254 782 178 q 845 426 826 331 q 878 616 864 521 q 899 798 892 711 q 907 943 907 885 q 919 973 907 961 q 949 985 931 985 z "},"X":{"ha":724,"x_min":29,"x_max":686,"o":"m 372 474 q 519 225 442 344 q 676 14 597 106 q 686 -14 686 3 q 674 -44 686 -32 q 644 -56 663 -56 q 613 -42 626 -56 q 468 151 542 42 q 319 394 394 261 q 208 217 261 306 q 110 31 154 129 q 71 6 99 6 q 41 19 53 6 q 29 47 29 32 q 33 64 29 56 q 146 278 85 178 q 275 478 207 378 q 162 706 214 590 q 69 931 110 822 q 67 944 67 939 q 78 973 67 960 q 108 986 90 986 q 131 978 121 986 q 147 960 142 971 q 226 768 181 871 q 328 558 272 665 q 444 747 386 650 q 551 961 501 844 q 590 986 563 986 q 621 973 610 986 q 632 944 632 960 q 628 928 632 936 q 504 685 569 794 q 372 474 439 575 z "},"Y":{"ha":681,"x_min":26,"x_max":667,"o":"m 635 971 q 658 956 649 967 q 667 931 667 944 q 666 926 667 928 q 665 921 665 924 q 621 797 651 864 q 552 656 590 729 q 472 508 514 583 q 392 360 429 432 q 407 341 400 350 q 414 319 414 332 q 401 290 414 303 q 372 278 389 278 q 354 282 363 278 q 305 154 324 215 q 286 43 286 93 q 274 14 286 26 q 244 1 261 1 q 215 14 226 1 q 203 43 203 26 q 228 188 203 110 q 294 350 254 267 q 227 459 260 399 q 165 581 194 519 q 112 702 136 643 q 69 808 88 761 q 41 884 51 854 q 29 918 31 914 q 26 931 26 926 q 38 960 26 947 q 69 974 50 974 q 108 946 99 974 q 117 919 108 944 q 142 854 126 894 q 178 761 157 814 q 225 652 200 708 q 278 540 250 596 q 338 436 307 483 q 412 574 374 506 q 484 708 450 643 q 544 833 518 774 q 583 940 571 892 q 599 963 586 954 q 625 972 611 972 q 630 972 628 972 q 635 971 632 971 z "},"Z":{"ha":628,"x_min":29,"x_max":600,"o":"m 536 147 q 558 154 547 154 q 587 142 574 154 q 600 113 600 131 q 567 67 600 88 q 488 31 535 46 q 390 8 440 17 q 304 0 339 0 q 98 70 167 0 q 29 258 29 140 q 59 403 29 335 q 134 531 89 471 q 232 640 179 590 q 332 731 285 690 q 403 797 376 768 q 433 831 431 826 l 433 829 l 433 831 q 435 833 433 831 q 428 846 435 838 q 399 862 422 854 q 333 876 376 869 q 214 882 289 882 q 123 879 161 882 q 83 876 85 876 l 78 876 q 49 888 61 876 q 38 918 38 900 q 48 945 38 933 q 75 958 58 957 q 117 963 78 960 q 214 965 157 965 q 443 932 369 965 q 517 829 517 899 q 487 766 517 800 q 412 692 457 732 q 315 605 367 651 q 217 505 263 558 q 142 390 172 451 q 113 257 113 328 q 161 125 113 167 q 306 83 210 83 q 430 101 368 83 q 536 147 492 119 z "},"":{"ha":150,"x_min":26,"x_max":129,"o":"m 92 665 q 119 652 108 664 q 129 625 129 640 l 129 619 q 117 412 119 515 q 114 204 114 308 q 115 122 114 163 q 115 40 115 81 q 103 11 115 24 q 74 -1 92 -1 q 36 31 44 -1 q 28 104 28 63 q 31 363 26 233 q 47 628 36 493 q 62 656 49 646 q 92 665 75 665 z "},"`":{"ha":231,"x_min":18,"x_max":217,"o":"m 203 818 q 217 788 217 806 q 204 758 217 769 q 176 746 192 746 q 147 756 161 746 q 126 775 146 757 q 81 819 106 793 q 38 874 57 844 q 18 926 18 903 q 30 954 18 942 q 60 967 42 967 q 99 942 88 967 q 118 908 104 926 q 148 872 132 889 q 179 840 164 854 q 203 818 194 826 z "},"":{"ha":232,"x_min":15,"x_max":214,"o":"m 29 818 q 53 840 38 826 q 84 872 68 854 q 113 908 100 889 q 133 942 126 926 q 171 967 144 967 q 202 954 190 967 q 214 926 214 942 q 205 892 214 911 q 181 855 196 874 q 150 819 167 836 q 119 788 133 801 q 95 765 106 774 q 85 756 85 756 q 56 746 69 746 q 27 758 39 746 q 15 788 15 769 q 29 818 15 806 z "},"":{"ha":432,"x_min":26,"x_max":401,"o":"m 40 818 q 64 840 49 826 q 95 872 79 854 q 124 908 111 889 q 144 942 138 926 q 182 967 156 967 q 213 954 201 967 q 225 926 225 942 q 216 892 225 911 q 192 855 207 874 q 161 819 178 836 q 131 788 144 801 q 106 765 117 774 q 96 756 96 756 q 67 746 81 746 q 38 758 50 746 q 26 788 26 769 q 40 818 26 806 m 217 818 q 240 840 225 826 q 272 872 256 854 q 301 908 288 889 q 321 942 314 926 q 358 967 332 967 q 390 954 378 967 q 401 926 401 942 q 392 892 401 911 q 368 855 382 874 q 338 819 354 836 q 307 788 321 801 q 283 765 293 774 q 272 756 272 756 q 243 746 257 746 q 215 758 226 746 q 203 788 203 769 q 217 818 203 806 z "},"":{"ha":372,"x_min":40,"x_max":332,"o":"m 275 871 q 315 854 299 871 q 332 814 332 838 q 315 772 332 789 q 275 756 299 756 q 233 772 250 756 q 217 814 217 789 q 233 854 217 838 q 275 871 250 871 m 99 871 q 139 854 122 871 q 156 814 156 838 q 139 772 156 789 q 99 756 122 756 q 57 772 74 756 q 40 814 40 789 q 57 854 40 838 q 99 871 74 871 z "},"":{"ha":181,"x_min":32,"x_max":147,"o":"m 90 871 q 131 854 114 871 q 147 814 147 838 q 131 772 147 789 q 90 756 114 756 q 49 772 65 756 q 32 814 32 789 q 49 854 32 838 q 90 871 65 871 z "},"":{"ha":378,"x_min":28,"x_max":349,"o":"m 79 850 q 52 886 63 872 q 37 908 42 900 q 30 919 32 915 q 28 925 28 922 q 38 960 28 943 q 71 976 47 976 q 97 963 85 976 q 122 931 108 950 q 149 892 135 913 q 183 858 164 872 q 201 872 189 861 q 233 904 214 882 q 265 941 254 928 q 281 960 275 954 q 290 968 286 967 q 301 969 293 969 q 338 953 326 969 q 349 917 349 938 q 347 908 349 913 q 340 897 346 904 q 322 876 333 889 q 289 842 310 863 q 228 789 254 806 q 182 772 203 772 q 135 791 158 772 q 79 850 111 810 z "},"":{"ha":381,"x_min":28,"x_max":349,"o":"m 299 897 q 325 861 315 875 q 340 840 335 847 q 347 828 344 832 q 349 822 349 825 q 339 788 349 804 q 307 771 329 771 q 281 784 293 771 q 256 816 268 797 q 228 855 243 835 q 194 889 213 875 q 176 876 189 886 q 144 843 164 865 q 113 806 124 819 q 97 787 103 793 q 88 779 92 781 q 76 778 85 778 q 40 793 51 778 q 28 831 28 808 q 38 850 28 836 q 89 906 49 864 q 149 958 124 942 q 196 975 174 975 q 243 956 219 975 q 299 897 267 938 z "},"":{"ha":501,"x_min":38,"x_max":471,"o":"m 429 896 q 458 884 446 896 q 471 854 471 872 q 438 760 471 793 q 357 728 404 728 q 292 743 318 728 q 244 777 265 758 q 205 811 224 796 q 165 826 186 826 q 134 812 142 826 q 122 781 126 797 q 110 749 118 764 q 79 735 103 735 q 49 747 61 735 q 38 775 38 758 q 49 829 38 804 q 77 872 60 854 q 117 900 94 890 q 165 910 140 910 q 231 893 197 910 q 288 847 264 876 q 319 822 299 832 q 358 811 340 811 q 380 824 375 811 q 388 853 385 838 q 398 883 390 869 q 429 896 406 896 z "},"":{"ha":371,"x_min":33,"x_max":333,"o":"m 163 1035 q 199 1039 181 1039 q 253 1026 228 1039 q 296 990 278 1013 q 324 938 314 968 q 333 876 333 908 q 322 809 333 840 q 288 753 310 778 q 235 715 265 729 q 169 701 206 701 q 73 742 113 701 q 33 854 33 782 q 69 970 33 921 q 163 1035 104 1019 m 244 843 q 249 860 247 851 q 250 878 250 868 q 237 931 250 907 q 197 956 224 956 q 161 946 176 956 q 137 922 146 936 q 123 890 128 907 q 118 857 118 872 q 133 803 118 821 q 169 785 147 785 q 222 806 206 785 q 244 843 239 826 z "},"":{"ha":415,"x_min":35,"x_max":381,"o":"m 339 967 q 368 954 356 967 q 381 925 381 942 q 331 804 381 847 q 197 761 282 761 q 115 778 147 761 q 65 820 83 796 q 41 871 47 844 q 35 915 35 897 q 47 945 35 933 q 76 957 58 957 q 110 940 106 957 q 119 901 115 922 q 135 862 122 879 q 196 844 149 844 q 297 925 297 844 q 309 954 297 942 q 339 967 321 967 z "},"":{"ha":628,"x_min":29,"x_max":600,"o":"m 536 147 q 558 154 547 154 q 587 142 574 154 q 600 113 600 131 q 567 67 600 88 q 488 31 535 46 q 390 8 440 17 q 304 0 339 0 q 98 70 167 0 q 29 258 29 140 q 59 403 29 335 q 134 531 89 471 q 232 640 179 590 q 332 731 285 690 q 403 797 376 768 q 433 831 431 826 l 433 829 l 433 831 q 435 833 433 831 q 428 846 435 838 q 399 862 422 854 q 333 876 376 869 q 214 882 289 882 q 123 879 161 882 q 83 876 85 876 l 78 876 q 49 888 61 876 q 38 918 38 900 q 48 945 38 933 q 75 958 58 957 q 117 963 78 960 q 214 965 157 965 q 443 932 369 965 q 517 829 517 899 q 487 766 517 800 q 412 692 457 732 q 315 605 367 651 q 217 505 263 558 q 142 390 172 451 q 113 257 113 328 q 161 125 113 167 q 306 83 210 83 q 430 101 368 83 q 536 147 492 119 m 204 1128 q 177 1164 188 1150 q 162 1185 167 1178 q 155 1197 157 1193 q 153 1203 153 1200 q 163 1238 153 1221 q 196 1254 172 1254 q 222 1241 210 1254 q 247 1209 233 1228 q 274 1170 260 1190 q 308 1136 289 1150 q 326 1149 314 1139 q 358 1182 339 1160 q 390 1219 379 1206 q 406 1238 400 1232 q 415 1246 411 1244 q 426 1247 418 1247 q 463 1231 451 1247 q 474 1194 474 1215 q 472 1186 474 1190 q 465 1174 471 1182 q 447 1153 458 1167 q 414 1119 435 1140 q 353 1067 379 1083 q 307 1050 328 1050 q 260 1069 283 1050 q 204 1128 236 1088 z "},"":{"ha":626,"x_min":24,"x_max":592,"o":"m 357 553 q 446 481 403 518 q 521 403 489 444 q 572 317 553 363 q 592 221 592 272 q 535 65 592 125 q 376 6 478 6 q 279 22 328 6 q 186 67 231 38 q 143 101 165 81 q 99 148 121 121 q 58 210 76 175 q 25 290 39 246 q 24 301 24 293 q 35 331 24 317 q 64 344 46 344 q 90 336 78 344 q 106 314 101 328 q 158 202 125 246 q 230 133 192 158 q 306 99 268 108 q 375 89 344 89 q 406 91 383 89 q 451 105 428 93 q 492 142 474 117 q 510 215 510 168 q 480 319 510 274 q 405 406 450 365 q 307 485 360 447 q 209 563 254 522 q 134 651 164 604 q 104 757 104 697 q 121 846 104 806 q 165 915 138 886 q 231 958 193 943 q 310 974 268 974 q 476 904 401 974 q 586 717 550 835 q 588 704 588 713 q 576 675 588 688 q 546 663 564 663 q 506 693 515 663 q 424 838 478 785 q 307 890 371 890 q 222 854 257 890 q 188 761 188 818 q 235 656 188 706 q 357 553 283 606 m 203 1128 q 176 1164 186 1150 q 160 1185 165 1178 q 153 1197 156 1193 q 151 1203 151 1200 q 161 1238 151 1221 q 194 1254 171 1254 q 220 1241 208 1254 q 245 1209 232 1228 q 273 1170 258 1190 q 307 1136 288 1150 q 325 1149 313 1139 q 357 1182 338 1160 q 388 1219 378 1206 q 404 1238 399 1232 q 413 1246 410 1244 q 425 1247 417 1247 q 461 1231 450 1247 q 472 1194 472 1215 q 471 1186 472 1190 q 463 1174 469 1182 q 445 1153 457 1167 q 413 1119 433 1140 q 352 1067 378 1083 q 306 1050 326 1050 q 258 1069 282 1050 q 203 1128 235 1088 z "},"":{"ha":681,"x_min":26,"x_max":667,"o":"m 635 971 q 658 956 649 967 q 667 931 667 944 q 666 926 667 928 q 665 921 665 924 q 621 797 651 864 q 552 656 590 729 q 472 508 514 583 q 392 360 429 432 q 407 341 400 350 q 414 319 414 332 q 401 290 414 303 q 372 278 389 278 q 354 282 363 278 q 305 154 324 215 q 286 43 286 93 q 274 14 286 26 q 244 1 261 1 q 215 14 226 1 q 203 43 203 26 q 228 188 203 110 q 294 350 254 267 q 227 459 260 399 q 165 581 194 519 q 112 702 136 643 q 69 808 88 761 q 41 884 51 854 q 29 918 31 914 q 26 931 26 926 q 38 960 26 947 q 69 974 50 974 q 108 946 99 974 q 117 919 108 944 q 142 854 126 894 q 178 761 157 814 q 225 652 200 708 q 278 540 250 596 q 338 436 307 483 q 412 574 374 506 q 484 708 450 643 q 544 833 518 774 q 583 940 571 892 q 599 963 586 954 q 625 972 611 972 q 630 972 628 972 q 635 971 632 971 m 429 1149 q 469 1132 453 1149 q 486 1092 486 1115 q 469 1050 486 1067 q 429 1033 453 1033 q 388 1050 404 1033 q 371 1092 371 1067 q 388 1132 371 1115 q 429 1149 404 1149 m 253 1149 q 293 1132 276 1149 q 310 1092 310 1115 q 293 1050 310 1067 q 253 1033 276 1033 q 211 1050 228 1033 q 194 1092 194 1067 q 211 1132 194 1115 q 253 1149 228 1149 z "},"":{"ha":801,"x_min":21,"x_max":785,"o":"m 779 468 q 785 447 785 458 q 744 400 785 417 q 647 371 704 383 q 656 213 654 285 q 658 96 658 140 q 653 21 658 42 q 617 0 647 0 q 587 13 599 0 q 575 43 575 26 l 575 81 q 574 194 575 121 q 565 354 572 267 q 374 319 478 336 q 175 279 269 303 q 173 231 174 256 q 172 178 172 206 q 174 124 172 151 q 175 67 175 96 q 168 19 175 39 q 133 0 161 0 q 108 3 117 0 q 94 20 99 7 q 90 60 90 33 q 89 135 89 88 q 90 189 89 158 q 90 253 90 219 q 76 247 83 250 q 63 244 69 244 q 33 257 46 244 q 21 286 21 269 q 28 309 21 300 q 45 324 35 318 q 69 333 56 329 q 93 342 82 338 q 123 617 103 497 q 176 819 143 738 q 258 944 210 901 q 371 986 306 986 q 542 858 475 986 q 640 454 608 729 q 705 477 678 465 q 743 489 732 489 q 779 468 767 489 m 558 438 q 529 633 547 546 q 487 779 511 719 q 434 871 463 839 q 372 903 406 903 q 303 871 332 903 q 268 820 288 854 q 231 727 249 786 q 199 580 214 668 q 178 365 185 492 q 310 394 242 382 q 442 417 378 406 l 558 438 m 417 1096 q 431 1065 431 1083 q 418 1035 431 1047 q 390 1024 406 1024 q 361 1033 375 1024 q 340 1053 360 1035 q 295 1097 319 1071 q 251 1151 271 1122 q 232 1204 232 1181 q 244 1232 232 1219 q 274 1244 256 1244 q 313 1219 301 1244 q 332 1185 318 1204 q 362 1149 346 1167 q 393 1118 378 1132 q 417 1096 408 1104 z "},"":{"ha":801,"x_min":21,"x_max":785,"o":"m 779 468 q 785 447 785 458 q 744 400 785 417 q 647 371 704 383 q 656 213 654 285 q 658 96 658 140 q 653 21 658 42 q 617 0 647 0 q 587 13 599 0 q 575 43 575 26 l 575 81 q 574 194 575 121 q 565 354 572 267 q 374 319 478 336 q 175 279 269 303 q 173 231 174 256 q 172 178 172 206 q 174 124 172 151 q 175 67 175 96 q 168 19 175 39 q 133 0 161 0 q 108 3 117 0 q 94 20 99 7 q 90 60 90 33 q 89 135 89 88 q 90 189 89 158 q 90 253 90 219 q 76 247 83 250 q 63 244 69 244 q 33 257 46 244 q 21 286 21 269 q 28 309 21 300 q 45 324 35 318 q 69 333 56 329 q 93 342 82 338 q 123 617 103 497 q 176 819 143 738 q 258 944 210 901 q 371 986 306 986 q 542 858 475 986 q 640 454 608 729 q 705 477 678 465 q 743 489 732 489 q 779 468 767 489 m 558 438 q 529 633 547 546 q 487 779 511 719 q 434 871 463 839 q 372 903 406 903 q 303 871 332 903 q 268 820 288 854 q 231 727 249 786 q 199 580 214 668 q 178 365 185 492 q 310 394 242 382 q 442 417 378 406 l 558 438 m 315 1096 q 339 1118 324 1104 q 370 1149 354 1132 q 399 1185 386 1167 q 419 1219 413 1204 q 457 1244 431 1244 q 488 1232 476 1244 q 500 1204 500 1219 q 491 1170 500 1189 q 467 1133 482 1151 q 436 1097 453 1115 q 406 1065 419 1079 q 381 1042 392 1051 q 371 1033 371 1033 q 342 1024 356 1024 q 313 1035 325 1024 q 301 1065 301 1047 q 315 1096 301 1083 z "},"":{"ha":801,"x_min":21,"x_max":785,"o":"m 779 468 q 785 447 785 458 q 744 400 785 417 q 647 371 704 383 q 656 213 654 285 q 658 96 658 140 q 653 21 658 42 q 617 0 647 0 q 587 13 599 0 q 575 43 575 26 l 575 81 q 574 194 575 121 q 565 354 572 267 q 374 319 478 336 q 175 279 269 303 q 173 231 174 256 q 172 178 172 206 q 174 124 172 151 q 175 67 175 96 q 168 19 175 39 q 133 0 161 0 q 108 3 117 0 q 94 20 99 7 q 90 60 90 33 q 89 135 89 88 q 90 189 89 158 q 90 253 90 219 q 76 247 83 250 q 63 244 69 244 q 33 257 46 244 q 21 286 21 269 q 28 309 21 300 q 45 324 35 318 q 69 333 56 329 q 93 342 82 338 q 123 617 103 497 q 176 819 143 738 q 258 944 210 901 q 371 986 306 986 q 542 858 475 986 q 640 454 608 729 q 705 477 678 465 q 743 489 732 489 q 779 468 767 489 m 558 438 q 529 633 547 546 q 487 779 511 719 q 434 871 463 839 q 372 903 406 903 q 303 871 332 903 q 268 820 288 854 q 231 727 249 786 q 199 580 214 668 q 178 365 185 492 q 310 394 242 382 q 442 417 378 406 l 558 438 m 469 1175 q 496 1139 486 1153 q 510 1117 506 1125 q 517 1106 515 1110 q 519 1100 519 1103 q 510 1065 519 1082 q 478 1049 500 1049 q 451 1062 464 1049 q 426 1094 439 1075 q 399 1133 414 1113 q 365 1167 383 1153 q 347 1153 360 1164 q 315 1121 335 1143 q 284 1084 294 1097 q 268 1065 274 1071 q 259 1057 263 1058 q 247 1056 256 1056 q 210 1071 222 1056 q 199 1108 199 1086 q 209 1128 199 1114 q 260 1183 219 1142 q 319 1236 294 1219 q 367 1253 344 1253 q 414 1234 390 1253 q 469 1175 438 1215 z "},"":{"ha":801,"x_min":21,"x_max":785,"o":"m 779 468 q 785 447 785 458 q 744 400 785 417 q 647 371 704 383 q 656 213 654 285 q 658 96 658 140 q 653 21 658 42 q 617 0 647 0 q 587 13 599 0 q 575 43 575 26 l 575 81 q 574 194 575 121 q 565 354 572 267 q 374 319 478 336 q 175 279 269 303 q 173 231 174 256 q 172 178 172 206 q 174 124 172 151 q 175 67 175 96 q 168 19 175 39 q 133 0 161 0 q 108 3 117 0 q 94 20 99 7 q 90 60 90 33 q 89 135 89 88 q 90 189 89 158 q 90 253 90 219 q 76 247 83 250 q 63 244 69 244 q 33 257 46 244 q 21 286 21 269 q 28 309 21 300 q 45 324 35 318 q 69 333 56 329 q 93 342 82 338 q 123 617 103 497 q 176 819 143 738 q 258 944 210 901 q 371 986 306 986 q 542 858 475 986 q 640 454 608 729 q 705 477 678 465 q 743 489 732 489 q 779 468 767 489 m 558 438 q 529 633 547 546 q 487 779 511 719 q 434 871 463 839 q 372 903 406 903 q 303 871 332 903 q 268 820 288 854 q 231 727 249 786 q 199 580 214 668 q 178 365 185 492 q 310 394 242 382 q 442 417 378 406 l 558 438 m 547 1174 q 576 1162 564 1174 q 589 1132 589 1150 q 556 1038 589 1071 q 475 1006 522 1006 q 410 1021 436 1006 q 363 1055 383 1036 q 323 1089 342 1074 q 283 1104 304 1104 q 252 1090 260 1104 q 240 1058 244 1075 q 228 1027 236 1042 q 197 1013 221 1013 q 167 1024 179 1013 q 156 1053 156 1036 q 167 1107 156 1082 q 195 1150 178 1132 q 235 1178 213 1168 q 283 1188 258 1188 q 349 1171 315 1188 q 406 1125 382 1154 q 438 1099 417 1110 q 476 1089 458 1089 q 498 1102 493 1089 q 506 1131 503 1115 q 516 1160 508 1147 q 547 1174 524 1174 z "},"":{"ha":801,"x_min":21,"x_max":785,"o":"m 779 468 q 785 447 785 458 q 744 400 785 417 q 647 371 704 383 q 656 213 654 285 q 658 96 658 140 q 653 21 658 42 q 617 0 647 0 q 587 13 599 0 q 575 43 575 26 l 575 81 q 574 194 575 121 q 565 354 572 267 q 374 319 478 336 q 175 279 269 303 q 173 231 174 256 q 172 178 172 206 q 174 124 172 151 q 175 67 175 96 q 168 19 175 39 q 133 0 161 0 q 108 3 117 0 q 94 20 99 7 q 90 60 90 33 q 89 135 89 88 q 90 189 89 158 q 90 253 90 219 q 76 247 83 250 q 63 244 69 244 q 33 257 46 244 q 21 286 21 269 q 28 309 21 300 q 45 324 35 318 q 69 333 56 329 q 93 342 82 338 q 123 617 103 497 q 176 819 143 738 q 258 944 210 901 q 371 986 306 986 q 542 858 475 986 q 640 454 608 729 q 705 477 678 465 q 743 489 732 489 q 779 468 767 489 m 558 438 q 529 633 547 546 q 487 779 511 719 q 434 871 463 839 q 372 903 406 903 q 303 871 332 903 q 268 820 288 854 q 231 727 249 786 q 199 580 214 668 q 178 365 185 492 q 310 394 242 382 q 442 417 378 406 l 558 438 m 447 1149 q 488 1132 471 1149 q 504 1092 504 1115 q 488 1050 504 1067 q 447 1033 471 1033 q 406 1050 422 1033 q 389 1092 389 1067 q 406 1132 389 1115 q 447 1149 422 1149 m 271 1149 q 311 1132 294 1149 q 328 1092 328 1115 q 311 1050 328 1067 q 271 1033 294 1033 q 229 1050 246 1033 q 213 1092 213 1067 q 229 1132 213 1115 q 271 1149 246 1149 z "},"":{"ha":801,"x_min":21,"x_max":785,"o":"m 779 468 q 785 447 785 458 q 744 400 785 417 q 647 371 704 383 q 656 213 654 285 q 658 96 658 140 q 653 21 658 42 q 617 0 647 0 q 587 13 599 0 q 575 43 575 26 l 575 81 q 574 194 575 121 q 565 354 572 267 q 374 319 478 336 q 175 279 269 303 q 173 231 174 256 q 172 178 172 206 q 174 124 172 151 q 175 67 175 96 q 168 19 175 39 q 133 0 161 0 q 108 3 117 0 q 94 20 99 7 q 90 60 90 33 q 89 135 89 88 q 90 189 89 158 q 90 253 90 219 q 76 247 83 250 q 63 244 69 244 q 33 257 46 244 q 21 286 21 269 q 28 309 21 300 q 45 324 35 318 q 69 333 56 329 q 93 342 82 338 q 123 617 103 497 q 176 819 143 738 q 258 944 210 901 q 371 986 306 986 q 542 858 475 986 q 640 454 608 729 q 705 477 678 465 q 743 489 732 489 q 779 468 767 489 m 558 438 q 529 633 547 546 q 487 779 511 719 q 434 871 463 839 q 372 903 406 903 q 303 871 332 903 q 268 820 288 854 q 231 727 249 786 q 199 580 214 668 q 178 365 185 492 q 310 394 242 382 q 442 417 378 406 l 558 438 m 338 1340 q 374 1344 356 1344 q 428 1331 403 1344 q 471 1296 453 1318 q 499 1244 489 1274 q 508 1182 508 1214 q 497 1115 508 1146 q 463 1059 485 1083 q 410 1021 440 1035 q 344 1007 381 1007 q 248 1047 288 1007 q 208 1160 208 1088 q 244 1276 208 1226 q 338 1340 279 1325 m 419 1149 q 424 1165 422 1157 q 425 1183 425 1174 q 412 1237 425 1213 q 372 1261 399 1261 q 336 1251 351 1261 q 312 1227 321 1242 q 298 1195 303 1213 q 293 1163 293 1178 q 308 1108 293 1126 q 344 1090 322 1090 q 397 1111 381 1090 q 419 1149 414 1132 z "},"":{"ha":635,"x_min":33,"x_max":619,"o":"m 569 129 q 574 130 572 129 q 579 131 576 131 q 608 118 596 131 q 619 88 619 106 q 610 63 619 74 q 586 49 601 51 q 545 41 585 49 q 450 25 506 33 q 334 10 394 17 q 231 3 274 3 q 138 15 169 3 q 97 56 107 28 q 94 73 97 57 q 87 128 90 89 q 79 236 83 168 q 74 411 75 304 q 46 423 58 411 q 33 451 33 435 q 44 481 33 468 q 74 494 56 493 q 73 531 74 514 q 72 567 72 549 q 74 723 72 665 q 80 812 76 781 q 86 853 83 843 q 90 868 89 864 q 202 941 114 915 q 447 967 290 967 q 472 967 458 967 q 499 963 486 967 q 519 952 511 960 q 528 928 528 944 q 517 899 528 911 q 489 883 507 886 l 447 883 q 307 876 361 883 q 222 860 253 869 q 178 843 190 851 q 165 833 167 835 q 160 768 165 831 q 156 564 156 706 q 156 532 156 549 q 157 499 157 515 q 240 503 193 500 q 333 511 286 507 q 424 519 381 515 q 501 529 468 524 l 508 529 q 537 518 524 529 q 550 490 550 507 q 540 463 550 475 q 515 447 531 450 q 434 437 481 442 q 339 428 388 432 q 242 420 290 424 q 157 415 194 417 q 164 204 160 289 q 174 92 168 119 q 192 88 179 89 q 229 86 204 86 q 275 90 243 86 q 345 97 307 93 q 424 108 383 101 q 497 118 464 114 q 551 126 531 122 q 569 129 571 129 m 403 1096 q 417 1065 417 1083 q 404 1035 417 1047 q 376 1024 392 1024 q 347 1033 361 1024 q 326 1053 346 1035 q 281 1097 306 1071 q 238 1151 257 1122 q 218 1204 218 1181 q 230 1232 218 1219 q 260 1244 242 1244 q 299 1219 288 1244 q 318 1185 304 1204 q 348 1149 332 1167 q 379 1118 364 1132 q 403 1096 394 1104 z "},"":{"ha":635,"x_min":33,"x_max":619,"o":"m 569 129 q 574 130 572 129 q 579 131 576 131 q 608 118 596 131 q 619 88 619 106 q 610 63 619 74 q 586 49 601 51 q 545 41 585 49 q 450 25 506 33 q 334 10 394 17 q 231 3 274 3 q 138 15 169 3 q 97 56 107 28 q 94 73 97 57 q 87 128 90 89 q 79 236 83 168 q 74 411 75 304 q 46 423 58 411 q 33 451 33 435 q 44 481 33 468 q 74 494 56 493 q 73 531 74 514 q 72 567 72 549 q 74 723 72 665 q 80 812 76 781 q 86 853 83 843 q 90 868 89 864 q 202 941 114 915 q 447 967 290 967 q 472 967 458 967 q 499 963 486 967 q 519 952 511 960 q 528 928 528 944 q 517 899 528 911 q 489 883 507 886 l 447 883 q 307 876 361 883 q 222 860 253 869 q 178 843 190 851 q 165 833 167 835 q 160 768 165 831 q 156 564 156 706 q 156 532 156 549 q 157 499 157 515 q 240 503 193 500 q 333 511 286 507 q 424 519 381 515 q 501 529 468 524 l 508 529 q 537 518 524 529 q 550 490 550 507 q 540 463 550 475 q 515 447 531 450 q 434 437 481 442 q 339 428 388 432 q 242 420 290 424 q 157 415 194 417 q 164 204 160 289 q 174 92 168 119 q 192 88 179 89 q 229 86 204 86 q 275 90 243 86 q 345 97 307 93 q 424 108 383 101 q 497 118 464 114 q 551 126 531 122 q 569 129 571 129 m 232 1096 q 256 1118 240 1104 q 287 1149 271 1132 q 316 1185 303 1167 q 336 1219 329 1204 q 374 1244 347 1244 q 405 1232 393 1244 q 417 1204 417 1219 q 408 1170 417 1189 q 384 1133 399 1151 q 353 1097 369 1115 q 322 1065 336 1079 q 298 1042 308 1051 q 288 1033 288 1033 q 258 1024 272 1024 q 230 1035 242 1024 q 218 1065 218 1047 q 232 1096 218 1083 z "},"":{"ha":635,"x_min":33,"x_max":619,"o":"m 569 129 q 574 130 572 129 q 579 131 576 131 q 608 118 596 131 q 619 88 619 106 q 610 63 619 74 q 586 49 601 51 q 545 41 585 49 q 450 25 506 33 q 334 10 394 17 q 231 3 274 3 q 138 15 169 3 q 97 56 107 28 q 94 73 97 57 q 87 128 90 89 q 79 236 83 168 q 74 411 75 304 q 46 423 58 411 q 33 451 33 435 q 44 481 33 468 q 74 494 56 493 q 73 531 74 514 q 72 567 72 549 q 74 723 72 665 q 80 812 76 781 q 86 853 83 843 q 90 868 89 864 q 202 941 114 915 q 447 967 290 967 q 472 967 458 967 q 499 963 486 967 q 519 952 511 960 q 528 928 528 944 q 517 899 528 911 q 489 883 507 886 l 447 883 q 307 876 361 883 q 222 860 253 869 q 178 843 190 851 q 165 833 167 835 q 160 768 165 831 q 156 564 156 706 q 156 532 156 549 q 157 499 157 515 q 240 503 193 500 q 333 511 286 507 q 424 519 381 515 q 501 529 468 524 l 508 529 q 537 518 524 529 q 550 490 550 507 q 540 463 550 475 q 515 447 531 450 q 434 437 481 442 q 339 428 388 432 q 242 420 290 424 q 157 415 194 417 q 164 204 160 289 q 174 92 168 119 q 192 88 179 89 q 229 86 204 86 q 275 90 243 86 q 345 97 307 93 q 424 108 383 101 q 497 118 464 114 q 551 126 531 122 q 569 129 571 129 m 428 1175 q 454 1139 444 1153 q 469 1117 464 1125 q 476 1106 474 1110 q 478 1100 478 1103 q 468 1065 478 1082 q 436 1049 458 1049 q 410 1062 422 1049 q 385 1094 397 1075 q 357 1133 372 1113 q 324 1167 342 1153 q 306 1153 318 1164 q 274 1121 293 1143 q 242 1084 253 1097 q 226 1065 232 1071 q 217 1057 221 1058 q 206 1056 214 1056 q 169 1071 181 1056 q 157 1108 157 1086 q 167 1128 157 1114 q 218 1183 178 1142 q 278 1236 253 1219 q 325 1253 303 1253 q 372 1234 349 1253 q 428 1175 396 1215 z "},"":{"ha":635,"x_min":33,"x_max":619,"o":"m 569 129 q 574 130 572 129 q 579 131 576 131 q 608 118 596 131 q 619 88 619 106 q 610 63 619 74 q 586 49 601 51 q 545 41 585 49 q 450 25 506 33 q 334 10 394 17 q 231 3 274 3 q 138 15 169 3 q 97 56 107 28 q 94 73 97 57 q 87 128 90 89 q 79 236 83 168 q 74 411 75 304 q 46 423 58 411 q 33 451 33 435 q 44 481 33 468 q 74 494 56 493 q 73 531 74 514 q 72 567 72 549 q 74 723 72 665 q 80 812 76 781 q 86 853 83 843 q 90 868 89 864 q 202 941 114 915 q 447 967 290 967 q 472 967 458 967 q 499 963 486 967 q 519 952 511 960 q 528 928 528 944 q 517 899 528 911 q 489 883 507 886 l 447 883 q 307 876 361 883 q 222 860 253 869 q 178 843 190 851 q 165 833 167 835 q 160 768 165 831 q 156 564 156 706 q 156 532 156 549 q 157 499 157 515 q 240 503 193 500 q 333 511 286 507 q 424 519 381 515 q 501 529 468 524 l 508 529 q 537 518 524 529 q 550 490 550 507 q 540 463 550 475 q 515 447 531 450 q 434 437 481 442 q 339 428 388 432 q 242 420 290 424 q 157 415 194 417 q 164 204 160 289 q 174 92 168 119 q 192 88 179 89 q 229 86 204 86 q 275 90 243 86 q 345 97 307 93 q 424 108 383 101 q 497 118 464 114 q 551 126 531 122 q 569 129 571 129 m 229 1149 q 269 1132 253 1149 q 286 1092 286 1115 q 269 1050 286 1067 q 229 1033 253 1033 q 188 1050 204 1033 q 171 1092 171 1067 q 188 1132 171 1115 q 229 1149 204 1149 m 406 1149 q 446 1132 429 1149 q 463 1092 463 1115 q 446 1050 463 1067 q 406 1033 429 1033 q 364 1050 381 1033 q 347 1092 347 1067 q 364 1132 347 1115 q 406 1149 381 1149 z "},"":{"ha":168,"x_min":-15,"x_max":183,"o":"m 86 986 q 125 953 117 986 q 133 869 133 919 q 133 737 133 810 q 131 585 132 664 q 127 425 129 506 q 122 272 125 344 q 117 140 119 200 q 110 42 114 81 q 95 15 107 25 q 68 4 83 4 q 38 17 49 4 q 26 50 26 31 q 35 182 31 99 q 42 363 39 265 q 47 565 46 461 q 49 760 49 669 q 47 861 49 814 q 46 943 46 908 q 56 972 46 960 q 86 986 67 985 m 169 1096 q 183 1065 183 1083 q 171 1035 183 1047 q 143 1024 158 1024 q 114 1033 128 1024 q 92 1053 113 1035 q 48 1097 72 1071 q 4 1151 24 1122 q -15 1204 -15 1181 q -3 1232 -15 1219 q 26 1244 8 1244 q 65 1219 54 1244 q 85 1185 71 1204 q 115 1149 99 1167 q 146 1118 131 1132 q 169 1096 161 1104 z "},"":{"ha":168,"x_min":-15,"x_max":183,"o":"m 86 986 q 125 953 117 986 q 133 869 133 919 q 133 737 133 810 q 131 585 132 664 q 127 425 129 506 q 122 272 125 344 q 117 140 119 200 q 110 42 114 81 q 95 15 107 25 q 68 4 83 4 q 38 17 49 4 q 26 50 26 31 q 35 182 31 99 q 42 363 39 265 q 47 565 46 461 q 49 760 49 669 q 47 861 49 814 q 46 943 46 908 q 56 972 46 960 q 86 986 67 985 m -1 1096 q 22 1118 7 1104 q 53 1149 38 1132 q 83 1185 69 1167 q 103 1219 96 1204 q 140 1244 114 1244 q 172 1232 160 1244 q 183 1204 183 1219 q 174 1170 183 1189 q 151 1133 165 1151 q 119 1097 136 1115 q 89 1065 103 1079 q 65 1042 75 1051 q 54 1033 54 1033 q 25 1024 39 1024 q -3 1035 8 1024 q -15 1065 -15 1047 q -1 1096 -15 1083 z "},"":{"ha":168,"x_min":-76,"x_max":244,"o":"m 86 986 q 125 953 117 986 q 133 869 133 919 q 133 737 133 810 q 131 585 132 664 q 127 425 129 506 q 122 272 125 344 q 117 140 119 200 q 110 42 114 81 q 95 15 107 25 q 68 4 83 4 q 38 17 49 4 q 26 50 26 31 q 35 182 31 99 q 42 363 39 265 q 47 565 46 461 q 49 760 49 669 q 47 861 49 814 q 46 943 46 908 q 56 972 46 960 q 86 986 67 985 m 194 1175 q 221 1139 211 1153 q 235 1117 231 1125 q 242 1106 240 1110 q 244 1100 244 1103 q 235 1065 244 1082 q 203 1049 225 1049 q 176 1062 189 1049 q 151 1094 164 1075 q 124 1133 139 1113 q 90 1167 108 1153 q 72 1153 85 1164 q 40 1121 60 1143 q 9 1084 19 1097 q -7 1065 -1 1071 q -16 1057 -12 1058 q -28 1056 -19 1056 q -65 1071 -53 1056 q -76 1108 -76 1086 q -66 1128 -76 1114 q -15 1183 -56 1142 q 44 1236 19 1219 q 92 1253 69 1253 q 139 1234 115 1253 q 194 1175 163 1215 z "},"":{"ha":168,"x_min":-61,"x_max":231,"o":"m 86 986 q 125 953 117 986 q 133 869 133 919 q 133 737 133 810 q 131 585 132 664 q 127 425 129 506 q 122 272 125 344 q 117 140 119 200 q 110 42 114 81 q 95 15 107 25 q 68 4 83 4 q 38 17 49 4 q 26 50 26 31 q 35 182 31 99 q 42 363 39 265 q 47 565 46 461 q 49 760 49 669 q 47 861 49 814 q 46 943 46 908 q 56 972 46 960 q 86 986 67 985 m 174 1149 q 214 1132 197 1149 q 231 1092 231 1115 q 214 1050 231 1067 q 174 1033 197 1033 q 132 1050 149 1033 q 115 1092 115 1067 q 132 1132 115 1115 q 174 1149 149 1149 m -3 1149 q 38 1132 21 1149 q 54 1092 54 1115 q 38 1050 54 1067 q -3 1033 21 1033 q -44 1050 -28 1033 q -61 1092 -61 1067 q -44 1132 -61 1115 q -3 1149 -28 1149 z "},"":{"ha":814,"x_min":42,"x_max":765,"o":"m 714 864 q 733 789 724 828 q 750 703 743 750 q 761 598 757 656 q 765 465 765 540 q 697 118 765 242 q 499 -6 628 -6 q 374 40 429 -6 q 274 172 318 86 q 198 383 231 258 q 143 665 165 508 q 135 540 139 603 q 128 417 131 476 q 125 306 126 358 q 124 217 124 254 q 130 81 124 118 q 136 40 136 43 q 124 13 136 25 q 93 0 113 0 q 69 8 81 0 q 54 29 58 15 q 49 48 51 36 q 46 81 47 60 q 43 135 44 101 q 42 217 42 168 q 44 350 42 275 q 50 504 46 425 q 59 659 54 583 q 71 793 64 735 q 81 876 76 844 q 89 924 85 907 q 97 949 93 942 q 103 960 100 956 q 124 978 113 975 q 139 982 136 982 q 182 942 169 982 q 204 826 194 901 q 228 645 214 751 q 276 406 243 539 q 500 78 360 78 q 586 112 551 78 q 642 201 621 146 q 673 324 664 256 q 682 461 682 393 q 678 572 682 522 q 669 664 675 622 q 656 743 664 706 q 640 817 649 781 q 617 894 625 875 q 603 916 608 913 q 597 918 599 919 q 596 936 596 917 q 612 968 596 958 q 647 978 628 978 q 660 974 653 978 q 675 960 667 971 q 693 926 683 949 q 714 864 703 903 m 582 1174 q 611 1162 599 1174 q 624 1132 624 1150 q 590 1038 624 1071 q 510 1006 557 1006 q 444 1021 471 1006 q 397 1055 418 1036 q 358 1089 376 1074 q 318 1104 339 1104 q 287 1090 294 1104 q 275 1058 279 1075 q 263 1027 271 1042 q 232 1013 256 1013 q 202 1024 214 1013 q 190 1053 190 1036 q 201 1107 190 1082 q 230 1150 213 1132 q 270 1178 247 1168 q 318 1188 293 1188 q 383 1171 350 1188 q 440 1125 417 1154 q 472 1099 451 1110 q 511 1089 493 1089 q 533 1102 528 1089 q 540 1131 538 1115 q 551 1160 543 1147 q 582 1174 558 1174 z "},"":{"ha":733,"x_min":33,"x_max":706,"o":"m 660 731 q 698 708 690 731 q 706 660 706 685 q 680 402 706 522 q 606 192 654 282 q 488 51 557 103 q 332 0 419 0 q 208 35 264 0 q 114 135 153 71 q 54 287 75 199 q 33 479 33 375 q 60 669 33 581 q 131 824 86 758 q 237 927 176 889 q 365 965 297 965 q 474 936 426 965 q 552 854 521 907 q 599 727 583 801 q 615 564 615 653 q 608 515 615 538 q 572 492 601 492 q 542 503 553 492 q 531 533 531 515 q 531 563 531 549 q 532 592 532 578 q 488 803 532 725 q 367 882 444 882 q 269 849 314 882 q 190 762 224 817 q 136 634 156 707 q 117 482 117 561 q 133 320 117 393 q 176 194 149 247 q 244 113 204 142 q 332 83 283 83 q 427 115 376 83 q 522 211 478 146 q 594 379 565 276 q 622 625 622 482 q 622 656 622 640 q 621 688 621 672 q 631 717 621 704 q 660 731 642 729 m 451 1096 q 465 1065 465 1083 q 453 1035 465 1047 q 425 1024 440 1024 q 396 1033 410 1024 q 374 1053 394 1035 q 330 1097 354 1071 q 286 1151 306 1122 q 267 1204 267 1181 q 278 1232 267 1219 q 308 1244 290 1244 q 347 1219 336 1244 q 367 1185 353 1204 q 397 1149 381 1167 q 428 1118 413 1132 q 451 1096 443 1104 z "},"":{"ha":733,"x_min":33,"x_max":706,"o":"m 660 731 q 698 708 690 731 q 706 660 706 685 q 680 402 706 522 q 606 192 654 282 q 488 51 557 103 q 332 0 419 0 q 208 35 264 0 q 114 135 153 71 q 54 287 75 199 q 33 479 33 375 q 60 669 33 581 q 131 824 86 758 q 237 927 176 889 q 365 965 297 965 q 474 936 426 965 q 552 854 521 907 q 599 727 583 801 q 615 564 615 653 q 608 515 615 538 q 572 492 601 492 q 542 503 553 492 q 531 533 531 515 q 531 563 531 549 q 532 592 532 578 q 488 803 532 725 q 367 882 444 882 q 269 849 314 882 q 190 762 224 817 q 136 634 156 707 q 117 482 117 561 q 133 320 117 393 q 176 194 149 247 q 244 113 204 142 q 332 83 283 83 q 427 115 376 83 q 522 211 478 146 q 594 379 565 276 q 622 625 622 482 q 622 656 622 640 q 621 688 621 672 q 631 717 621 704 q 660 731 642 729 m 281 1096 q 304 1118 289 1104 q 335 1149 319 1132 q 365 1185 351 1167 q 385 1219 378 1204 q 422 1244 396 1244 q 453 1232 442 1244 q 465 1204 465 1219 q 456 1170 465 1189 q 432 1133 446 1151 q 401 1097 418 1115 q 371 1065 385 1079 q 347 1042 357 1051 q 336 1033 336 1033 q 307 1024 321 1024 q 278 1035 290 1024 q 267 1065 267 1047 q 281 1096 267 1083 z "},"":{"ha":733,"x_min":33,"x_max":706,"o":"m 660 731 q 698 708 690 731 q 706 660 706 685 q 680 402 706 522 q 606 192 654 282 q 488 51 557 103 q 332 0 419 0 q 208 35 264 0 q 114 135 153 71 q 54 287 75 199 q 33 479 33 375 q 60 669 33 581 q 131 824 86 758 q 237 927 176 889 q 365 965 297 965 q 474 936 426 965 q 552 854 521 907 q 599 727 583 801 q 615 564 615 653 q 608 515 615 538 q 572 492 601 492 q 542 503 553 492 q 531 533 531 515 q 531 563 531 549 q 532 592 532 578 q 488 803 532 725 q 367 882 444 882 q 269 849 314 882 q 190 762 224 817 q 136 634 156 707 q 117 482 117 561 q 133 320 117 393 q 176 194 149 247 q 244 113 204 142 q 332 83 283 83 q 427 115 376 83 q 522 211 478 146 q 594 379 565 276 q 622 625 622 482 q 622 656 622 640 q 621 688 621 672 q 631 717 621 704 q 660 731 642 729 m 476 1175 q 503 1139 493 1153 q 517 1117 513 1125 q 524 1106 522 1110 q 526 1100 526 1103 q 517 1065 526 1082 q 485 1049 507 1049 q 458 1062 471 1049 q 433 1094 446 1075 q 406 1133 421 1113 q 372 1167 390 1153 q 354 1153 367 1164 q 322 1121 342 1143 q 291 1084 301 1097 q 275 1065 281 1071 q 266 1057 269 1058 q 254 1056 263 1056 q 217 1071 229 1056 q 206 1108 206 1086 q 216 1128 206 1114 q 267 1183 226 1142 q 326 1236 301 1219 q 374 1253 351 1253 q 421 1234 397 1253 q 476 1175 444 1215 z "},"":{"ha":733,"x_min":33,"x_max":706,"o":"m 660 731 q 698 708 690 731 q 706 660 706 685 q 680 402 706 522 q 606 192 654 282 q 488 51 557 103 q 332 0 419 0 q 208 35 264 0 q 114 135 153 71 q 54 287 75 199 q 33 479 33 375 q 60 669 33 581 q 131 824 86 758 q 237 927 176 889 q 365 965 297 965 q 474 936 426 965 q 552 854 521 907 q 599 727 583 801 q 615 564 615 653 q 608 515 615 538 q 572 492 601 492 q 542 503 553 492 q 531 533 531 515 q 531 563 531 549 q 532 592 532 578 q 488 803 532 725 q 367 882 444 882 q 269 849 314 882 q 190 762 224 817 q 136 634 156 707 q 117 482 117 561 q 133 320 117 393 q 176 194 149 247 q 244 113 204 142 q 332 83 283 83 q 427 115 376 83 q 522 211 478 146 q 594 379 565 276 q 622 625 622 482 q 622 656 622 640 q 621 688 621 672 q 631 717 621 704 q 660 731 642 729 m 542 1174 q 571 1162 558 1174 q 583 1132 583 1150 q 550 1038 583 1071 q 469 1006 517 1006 q 404 1021 431 1006 q 357 1055 378 1036 q 317 1089 336 1074 q 278 1104 299 1104 q 247 1090 254 1104 q 235 1058 239 1075 q 223 1027 231 1042 q 192 1013 215 1013 q 162 1024 174 1013 q 150 1053 150 1036 q 161 1107 150 1082 q 190 1150 172 1132 q 230 1178 207 1168 q 278 1188 253 1188 q 343 1171 310 1188 q 400 1125 376 1154 q 432 1099 411 1110 q 471 1089 453 1089 q 492 1102 488 1089 q 500 1131 497 1115 q 510 1160 503 1147 q 542 1174 518 1174 z "},"":{"ha":733,"x_min":33,"x_max":706,"o":"m 660 731 q 698 708 690 731 q 706 660 706 685 q 680 402 706 522 q 606 192 654 282 q 488 51 557 103 q 332 0 419 0 q 208 35 264 0 q 114 135 153 71 q 54 287 75 199 q 33 479 33 375 q 60 669 33 581 q 131 824 86 758 q 237 927 176 889 q 365 965 297 965 q 474 936 426 965 q 552 854 521 907 q 599 727 583 801 q 615 564 615 653 q 608 515 615 538 q 572 492 601 492 q 542 503 553 492 q 531 533 531 515 q 531 563 531 549 q 532 592 532 578 q 488 803 532 725 q 367 882 444 882 q 269 849 314 882 q 190 762 224 817 q 136 634 156 707 q 117 482 117 561 q 133 320 117 393 q 176 194 149 247 q 244 113 204 142 q 332 83 283 83 q 427 115 376 83 q 522 211 478 146 q 594 379 565 276 q 622 625 622 482 q 622 656 622 640 q 621 688 621 672 q 631 717 621 704 q 660 731 642 729 m 456 1149 q 496 1132 479 1149 q 513 1092 513 1115 q 496 1050 513 1067 q 456 1033 479 1033 q 414 1050 431 1033 q 397 1092 397 1067 q 414 1132 397 1115 q 456 1149 431 1149 m 279 1149 q 319 1132 303 1149 q 336 1092 336 1115 q 319 1050 336 1067 q 279 1033 303 1033 q 238 1050 254 1033 q 221 1092 221 1067 q 238 1132 221 1115 q 279 1149 254 1149 z "},"":{"ha":718,"x_min":38,"x_max":676,"o":"m 639 974 q 665 959 654 971 q 676 931 676 947 q 669 747 674 843 q 660 556 664 651 q 652 368 656 460 q 649 197 649 276 q 651 96 649 142 q 660 18 653 50 l 660 11 q 648 -19 660 -6 q 618 -32 636 -32 q 588 -16 599 -32 q 573 27 578 0 q 567 88 568 54 q 565 160 565 122 q 567 322 565 235 q 575 507 569 410 q 476 265 531 374 q 431 182 457 228 q 371 96 404 136 q 300 28 338 56 q 224 1 263 1 q 151 28 185 1 q 92 106 117 54 q 52 233 67 158 q 38 407 38 308 q 56 667 38 532 q 114 943 75 801 q 128 965 117 957 q 154 974 139 974 q 185 961 174 974 q 196 932 196 949 q 194 921 196 924 q 140 663 158 790 q 121 419 121 535 q 128 289 121 350 q 150 183 136 228 q 183 111 164 138 q 224 85 201 85 q 250 95 233 85 q 293 133 267 106 q 385 269 340 185 q 469 459 431 353 q 540 688 508 565 q 593 939 572 811 q 609 964 596 954 q 639 974 622 974 m 444 1096 q 458 1065 458 1083 q 446 1035 458 1047 q 418 1024 433 1024 q 389 1033 403 1024 q 367 1053 388 1035 q 323 1097 347 1071 q 279 1151 299 1122 q 260 1204 260 1181 q 272 1232 260 1219 q 301 1244 283 1244 q 340 1219 329 1244 q 360 1185 346 1204 q 390 1149 374 1167 q 421 1118 406 1132 q 444 1096 436 1104 z "},"":{"ha":718,"x_min":38,"x_max":676,"o":"m 639 974 q 665 959 654 971 q 676 931 676 947 q 669 747 674 843 q 660 556 664 651 q 652 368 656 460 q 649 197 649 276 q 651 96 649 142 q 660 18 653 50 l 660 11 q 648 -19 660 -6 q 618 -32 636 -32 q 588 -16 599 -32 q 573 27 578 0 q 567 88 568 54 q 565 160 565 122 q 567 322 565 235 q 575 507 569 410 q 476 265 531 374 q 431 182 457 228 q 371 96 404 136 q 300 28 338 56 q 224 1 263 1 q 151 28 185 1 q 92 106 117 54 q 52 233 67 158 q 38 407 38 308 q 56 667 38 532 q 114 943 75 801 q 128 965 117 957 q 154 974 139 974 q 185 961 174 974 q 196 932 196 949 q 194 921 196 924 q 140 663 158 790 q 121 419 121 535 q 128 289 121 350 q 150 183 136 228 q 183 111 164 138 q 224 85 201 85 q 250 95 233 85 q 293 133 267 106 q 385 269 340 185 q 469 459 431 353 q 540 688 508 565 q 593 939 572 811 q 609 964 596 954 q 639 974 622 974 m 315 1096 q 339 1118 324 1104 q 370 1149 354 1132 q 399 1185 386 1167 q 419 1219 413 1204 q 457 1244 431 1244 q 488 1232 476 1244 q 500 1204 500 1219 q 491 1170 500 1189 q 467 1133 482 1151 q 436 1097 453 1115 q 406 1065 419 1079 q 381 1042 392 1051 q 371 1033 371 1033 q 342 1024 356 1024 q 313 1035 325 1024 q 301 1065 301 1047 q 315 1096 301 1083 z "},"":{"ha":718,"x_min":38,"x_max":676,"o":"m 639 974 q 665 959 654 971 q 676 931 676 947 q 669 747 674 843 q 660 556 664 651 q 652 368 656 460 q 649 197 649 276 q 651 96 649 142 q 660 18 653 50 l 660 11 q 648 -19 660 -6 q 618 -32 636 -32 q 588 -16 599 -32 q 573 27 578 0 q 567 88 568 54 q 565 160 565 122 q 567 322 565 235 q 575 507 569 410 q 476 265 531 374 q 431 182 457 228 q 371 96 404 136 q 300 28 338 56 q 224 1 263 1 q 151 28 185 1 q 92 106 117 54 q 52 233 67 158 q 38 407 38 308 q 56 667 38 532 q 114 943 75 801 q 128 965 117 957 q 154 974 139 974 q 185 961 174 974 q 196 932 196 949 q 194 921 196 924 q 140 663 158 790 q 121 419 121 535 q 128 289 121 350 q 150 183 136 228 q 183 111 164 138 q 224 85 201 85 q 250 95 233 85 q 293 133 267 106 q 385 269 340 185 q 469 459 431 353 q 540 688 508 565 q 593 939 572 811 q 609 964 596 954 q 639 974 622 974 m 469 1175 q 496 1139 486 1153 q 510 1117 506 1125 q 517 1106 515 1110 q 519 1100 519 1103 q 510 1065 519 1082 q 478 1049 500 1049 q 451 1062 464 1049 q 426 1094 439 1075 q 399 1133 414 1113 q 365 1167 383 1153 q 347 1153 360 1164 q 315 1121 335 1143 q 284 1084 294 1097 q 268 1065 274 1071 q 259 1057 263 1058 q 247 1056 256 1056 q 210 1071 222 1056 q 199 1108 199 1086 q 209 1128 199 1114 q 260 1183 219 1142 q 319 1236 294 1219 q 367 1253 344 1253 q 414 1234 390 1253 q 469 1175 438 1215 z "},"":{"ha":718,"x_min":38,"x_max":676,"o":"m 639 974 q 665 959 654 971 q 676 931 676 947 q 669 747 674 843 q 660 556 664 651 q 652 368 656 460 q 649 197 649 276 q 651 96 649 142 q 660 18 653 50 l 660 11 q 648 -19 660 -6 q 618 -32 636 -32 q 588 -16 599 -32 q 573 27 578 0 q 567 88 568 54 q 565 160 565 122 q 567 322 565 235 q 575 507 569 410 q 476 265 531 374 q 431 182 457 228 q 371 96 404 136 q 300 28 338 56 q 224 1 263 1 q 151 28 185 1 q 92 106 117 54 q 52 233 67 158 q 38 407 38 308 q 56 667 38 532 q 114 943 75 801 q 128 965 117 957 q 154 974 139 974 q 185 961 174 974 q 196 932 196 949 q 194 921 196 924 q 140 663 158 790 q 121 419 121 535 q 128 289 121 350 q 150 183 136 228 q 183 111 164 138 q 224 85 201 85 q 250 95 233 85 q 293 133 267 106 q 385 269 340 185 q 469 459 431 353 q 540 688 508 565 q 593 939 572 811 q 609 964 596 954 q 639 974 622 974 m 271 1149 q 311 1132 294 1149 q 328 1092 328 1115 q 311 1050 328 1067 q 271 1033 294 1033 q 229 1050 246 1033 q 213 1092 213 1067 q 229 1132 213 1115 q 271 1149 246 1149 m 447 1149 q 488 1132 471 1149 q 504 1092 504 1115 q 488 1050 504 1067 q 447 1033 471 1033 q 406 1050 422 1033 q 389 1092 389 1067 q 406 1132 389 1115 q 447 1149 422 1149 z "},"":{"ha":681,"x_min":26,"x_max":667,"o":"m 635 971 q 658 956 649 967 q 667 931 667 944 q 666 926 667 928 q 665 921 665 924 q 621 797 651 864 q 552 656 590 729 q 472 508 514 583 q 392 360 429 432 q 407 341 400 350 q 414 319 414 332 q 401 290 414 303 q 372 278 389 278 q 354 282 363 278 q 305 154 324 215 q 286 43 286 93 q 274 14 286 26 q 244 1 261 1 q 215 14 226 1 q 203 43 203 26 q 228 188 203 110 q 294 350 254 267 q 227 459 260 399 q 165 581 194 519 q 112 702 136 643 q 69 808 88 761 q 41 884 51 854 q 29 918 31 914 q 26 931 26 926 q 38 960 26 947 q 69 974 50 974 q 108 946 99 974 q 117 919 108 944 q 142 854 126 894 q 178 761 157 814 q 225 652 200 708 q 278 540 250 596 q 338 436 307 483 q 412 574 374 506 q 484 708 450 643 q 544 833 518 774 q 583 940 571 892 q 599 963 586 954 q 625 972 611 972 q 630 972 628 972 q 635 971 632 971 m 254 1096 q 278 1118 263 1104 q 309 1149 293 1132 q 338 1185 325 1167 q 358 1219 351 1204 q 396 1244 369 1244 q 427 1232 415 1244 q 439 1204 439 1219 q 429 1170 439 1189 q 406 1133 419 1151 q 375 1097 392 1115 q 344 1065 358 1079 q 320 1042 331 1051 q 310 1033 310 1033 q 281 1024 294 1024 q 252 1035 264 1024 q 240 1065 240 1047 q 254 1096 240 1083 z "},"":{"ha":542,"x_min":25,"x_max":490,"o":"m 358 681 q 458 548 425 650 q 490 264 490 446 q 488 160 490 215 q 481 44 485 106 q 467 17 479 28 q 439 6 456 6 q 409 18 421 6 q 397 47 397 31 q 399 77 397 63 q 401 107 400 92 q 291 31 349 57 q 181 4 233 4 q 67 48 108 4 q 25 163 25 92 q 50 244 25 208 q 118 305 75 281 q 220 342 161 329 q 347 356 279 356 q 375 356 361 356 q 404 354 389 356 q 385 494 399 443 q 358 572 372 546 q 328 603 343 597 q 307 610 314 610 q 227 582 275 610 q 119 494 179 554 q 89 482 107 482 q 60 494 72 482 q 47 524 47 507 q 60 553 47 540 q 190 658 132 624 q 301 693 249 693 q 358 681 331 693 m 400 235 q 406 260 406 247 q 398 268 406 265 q 380 272 390 271 q 358 273 369 274 q 342 272 347 272 q 252 265 294 272 q 178 243 210 257 q 127 209 146 229 q 108 163 108 189 q 126 107 108 126 q 181 88 144 88 q 220 92 197 88 q 272 111 243 96 q 333 156 300 126 q 400 235 365 185 m 356 818 q 369 788 369 806 q 357 758 369 769 q 329 746 344 746 q 300 756 314 746 q 278 775 299 757 q 234 819 258 793 q 190 874 210 844 q 171 926 171 903 q 183 954 171 942 q 213 967 194 967 q 251 942 240 967 q 271 908 257 926 q 301 872 285 889 q 332 840 317 854 q 356 818 347 826 z "},"":{"ha":542,"x_min":25,"x_max":490,"o":"m 358 681 q 458 548 425 650 q 490 264 490 446 q 488 160 490 215 q 481 44 485 106 q 467 17 479 28 q 439 6 456 6 q 409 18 421 6 q 397 47 397 31 q 399 77 397 63 q 401 107 400 92 q 291 31 349 57 q 181 4 233 4 q 67 48 108 4 q 25 163 25 92 q 50 244 25 208 q 118 305 75 281 q 220 342 161 329 q 347 356 279 356 q 375 356 361 356 q 404 354 389 356 q 385 494 399 443 q 358 572 372 546 q 328 603 343 597 q 307 610 314 610 q 227 582 275 610 q 119 494 179 554 q 89 482 107 482 q 60 494 72 482 q 47 524 47 507 q 60 553 47 540 q 190 658 132 624 q 301 693 249 693 q 358 681 331 693 m 400 235 q 406 260 406 247 q 398 268 406 265 q 380 272 390 271 q 358 273 369 274 q 342 272 347 272 q 252 265 294 272 q 178 243 210 257 q 127 209 146 229 q 108 163 108 189 q 126 107 108 126 q 181 88 144 88 q 220 92 197 88 q 272 111 243 96 q 333 156 300 126 q 400 235 365 185 m 185 818 q 208 840 193 826 q 240 872 224 854 q 269 908 256 889 q 289 942 282 926 q 326 967 300 967 q 358 954 346 967 q 369 926 369 942 q 360 892 369 911 q 336 855 350 874 q 306 819 322 836 q 275 788 289 801 q 251 765 261 774 q 240 756 240 756 q 211 746 225 746 q 183 758 194 746 q 171 788 171 769 q 185 818 171 806 z "},"":{"ha":542,"x_min":25,"x_max":490,"o":"m 358 681 q 458 548 425 650 q 490 264 490 446 q 488 160 490 215 q 481 44 485 106 q 467 17 479 28 q 439 6 456 6 q 409 18 421 6 q 397 47 397 31 q 399 77 397 63 q 401 107 400 92 q 291 31 349 57 q 181 4 233 4 q 67 48 108 4 q 25 163 25 92 q 50 244 25 208 q 118 305 75 281 q 220 342 161 329 q 347 356 279 356 q 375 356 361 356 q 404 354 389 356 q 385 494 399 443 q 358 572 372 546 q 328 603 343 597 q 307 610 314 610 q 227 582 275 610 q 119 494 179 554 q 89 482 107 482 q 60 494 72 482 q 47 524 47 507 q 60 553 47 540 q 190 658 132 624 q 301 693 249 693 q 358 681 331 693 m 400 235 q 406 260 406 247 q 398 268 406 265 q 380 272 390 271 q 358 273 369 274 q 342 272 347 272 q 252 265 294 272 q 178 243 210 257 q 127 209 146 229 q 108 163 108 189 q 126 107 108 126 q 181 88 144 88 q 220 92 197 88 q 272 111 243 96 q 333 156 300 126 q 400 235 365 185 m 381 897 q 407 861 397 875 q 422 840 417 847 q 428 828 426 832 q 431 822 431 825 q 421 788 431 804 q 389 771 411 771 q 363 784 375 771 q 338 816 350 797 q 310 855 325 835 q 276 889 294 875 q 258 876 271 886 q 226 843 246 865 q 195 806 206 819 q 179 787 185 793 q 170 779 174 781 q 158 778 167 778 q 122 793 133 778 q 110 831 110 808 q 120 850 110 836 q 171 906 131 864 q 231 958 206 942 q 278 975 256 975 q 325 956 301 975 q 381 897 349 938 z "},"":{"ha":542,"x_min":25,"x_max":490,"o":"m 358 681 q 458 548 425 650 q 490 264 490 446 q 488 160 490 215 q 481 44 485 106 q 467 17 479 28 q 439 6 456 6 q 409 18 421 6 q 397 47 397 31 q 399 77 397 63 q 401 107 400 92 q 291 31 349 57 q 181 4 233 4 q 67 48 108 4 q 25 163 25 92 q 50 244 25 208 q 118 305 75 281 q 220 342 161 329 q 347 356 279 356 q 375 356 361 356 q 404 354 389 356 q 385 494 399 443 q 358 572 372 546 q 328 603 343 597 q 307 610 314 610 q 227 582 275 610 q 119 494 179 554 q 89 482 107 482 q 60 494 72 482 q 47 524 47 507 q 60 553 47 540 q 190 658 132 624 q 301 693 249 693 q 358 681 331 693 m 400 235 q 406 260 406 247 q 398 268 406 265 q 380 272 390 271 q 358 273 369 274 q 342 272 347 272 q 252 265 294 272 q 178 243 210 257 q 127 209 146 229 q 108 163 108 189 q 126 107 108 126 q 181 88 144 88 q 220 92 197 88 q 272 111 243 96 q 333 156 300 126 q 400 235 365 185 m 446 896 q 475 884 463 896 q 488 854 488 872 q 454 760 488 793 q 374 728 421 728 q 308 743 335 728 q 261 777 282 758 q 222 811 240 796 q 182 826 203 826 q 151 812 158 826 q 139 781 143 797 q 127 749 135 764 q 96 735 119 735 q 66 747 78 735 q 54 775 54 758 q 65 829 54 804 q 94 872 76 854 q 134 900 111 890 q 182 910 157 910 q 247 893 214 910 q 304 847 281 876 q 336 822 315 832 q 375 811 357 811 q 397 824 392 811 q 404 853 401 838 q 415 883 407 869 q 446 896 422 896 z "},"":{"ha":542,"x_min":25,"x_max":490,"o":"m 358 681 q 458 548 425 650 q 490 264 490 446 q 488 160 490 215 q 481 44 485 106 q 467 17 479 28 q 439 6 456 6 q 409 18 421 6 q 397 47 397 31 q 399 77 397 63 q 401 107 400 92 q 291 31 349 57 q 181 4 233 4 q 67 48 108 4 q 25 163 25 92 q 50 244 25 208 q 118 305 75 281 q 220 342 161 329 q 347 356 279 356 q 375 356 361 356 q 404 354 389 356 q 385 494 399 443 q 358 572 372 546 q 328 603 343 597 q 307 610 314 610 q 227 582 275 610 q 119 494 179 554 q 89 482 107 482 q 60 494 72 482 q 47 524 47 507 q 60 553 47 540 q 190 658 132 624 q 301 693 249 693 q 358 681 331 693 m 400 235 q 406 260 406 247 q 398 268 406 265 q 380 272 390 271 q 358 273 369 274 q 342 272 347 272 q 252 265 294 272 q 178 243 210 257 q 127 209 146 229 q 108 163 108 189 q 126 107 108 126 q 181 88 144 88 q 220 92 197 88 q 272 111 243 96 q 333 156 300 126 q 400 235 365 185 m 360 871 q 400 854 383 871 q 417 814 417 838 q 400 772 417 789 q 360 756 383 756 q 318 772 335 756 q 301 814 301 789 q 318 854 301 838 q 360 871 335 871 m 183 871 q 224 854 207 871 q 240 814 240 838 q 224 772 240 789 q 183 756 207 756 q 142 772 158 756 q 125 814 125 789 q 142 854 125 838 q 183 871 158 871 z "},"":{"ha":542,"x_min":25,"x_max":490,"o":"m 358 681 q 458 548 425 650 q 490 264 490 446 q 488 160 490 215 q 481 44 485 106 q 467 17 479 28 q 439 6 456 6 q 409 18 421 6 q 397 47 397 31 q 399 77 397 63 q 401 107 400 92 q 291 31 349 57 q 181 4 233 4 q 67 48 108 4 q 25 163 25 92 q 50 244 25 208 q 118 305 75 281 q 220 342 161 329 q 347 356 279 356 q 375 356 361 356 q 404 354 389 356 q 385 494 399 443 q 358 572 372 546 q 328 603 343 597 q 307 610 314 610 q 227 582 275 610 q 119 494 179 554 q 89 482 107 482 q 60 494 72 482 q 47 524 47 507 q 60 553 47 540 q 190 658 132 624 q 301 693 249 693 q 358 681 331 693 m 400 235 q 406 260 406 247 q 398 268 406 265 q 380 272 390 271 q 358 273 369 274 q 342 272 347 272 q 252 265 294 272 q 178 243 210 257 q 127 209 146 229 q 108 163 108 189 q 126 107 108 126 q 181 88 144 88 q 220 92 197 88 q 272 111 243 96 q 333 156 300 126 q 400 235 365 185 m 250 1035 q 286 1039 268 1039 q 340 1026 315 1039 q 383 990 365 1013 q 411 938 401 968 q 421 876 421 908 q 409 809 421 840 q 375 753 397 778 q 323 715 353 729 q 257 701 293 701 q 160 742 200 701 q 121 854 121 782 q 156 970 121 921 q 250 1035 192 1019 m 332 843 q 336 860 335 851 q 338 878 338 868 q 324 931 338 907 q 285 956 311 956 q 249 946 264 956 q 224 922 233 936 q 210 890 215 907 q 206 857 206 872 q 220 803 206 821 q 257 785 235 785 q 310 806 293 785 q 332 843 326 826 z "},"":{"ha":656,"x_min":28,"x_max":636,"o":"m 614 368 q 636 332 636 354 q 631 313 636 324 q 540 172 586 231 q 447 75 493 114 q 359 18 401 36 q 281 0 317 0 q 154 54 207 0 q 81 207 101 108 q 43 216 58 207 q 28 249 28 225 q 40 278 28 265 q 68 290 51 290 q 66 316 67 303 q 65 342 65 329 q 85 484 65 418 q 138 597 104 550 q 220 672 172 644 q 325 699 268 699 q 414 658 381 699 q 447 556 447 618 q 424 444 447 499 q 363 343 401 389 q 272 264 324 297 q 164 218 221 231 q 209 119 179 156 q 281 83 239 83 q 336 97 306 83 q 403 143 367 111 q 478 226 439 175 q 558 353 517 278 q 593 374 569 374 q 614 368 600 374 m 150 301 q 254 351 213 318 q 320 422 296 385 q 354 497 344 460 q 364 556 364 533 q 356 598 364 581 q 325 615 347 615 q 254 595 286 615 q 199 538 222 575 q 162 451 175 501 q 149 343 149 401 q 149 322 149 332 q 150 301 150 311 m 329 818 q 343 788 343 806 q 331 758 343 769 q 303 746 318 746 q 274 756 288 746 q 252 775 272 757 q 208 819 232 793 q 164 874 183 844 q 144 926 144 903 q 156 954 144 942 q 186 967 168 967 q 225 942 214 967 q 244 908 231 926 q 274 872 258 889 q 306 840 290 854 q 329 818 321 826 z "},"":{"ha":656,"x_min":28,"x_max":636,"o":"m 614 368 q 636 332 636 354 q 631 313 636 324 q 540 172 586 231 q 447 75 493 114 q 359 18 401 36 q 281 0 317 0 q 154 54 207 0 q 81 207 101 108 q 43 216 58 207 q 28 249 28 225 q 40 278 28 265 q 68 290 51 290 q 66 316 67 303 q 65 342 65 329 q 85 484 65 418 q 138 597 104 550 q 220 672 172 644 q 325 699 268 699 q 414 658 381 699 q 447 556 447 618 q 424 444 447 499 q 363 343 401 389 q 272 264 324 297 q 164 218 221 231 q 209 119 179 156 q 281 83 239 83 q 336 97 306 83 q 403 143 367 111 q 478 226 439 175 q 558 353 517 278 q 593 374 569 374 q 614 368 600 374 m 150 301 q 254 351 213 318 q 320 422 296 385 q 354 497 344 460 q 364 556 364 533 q 356 598 364 581 q 325 615 347 615 q 254 595 286 615 q 199 538 222 575 q 162 451 175 501 q 149 343 149 401 q 149 322 149 332 q 150 301 150 311 m 242 818 q 265 840 250 826 q 297 872 281 854 q 326 908 313 889 q 346 942 339 926 q 383 967 357 967 q 415 954 403 967 q 426 926 426 942 q 417 892 426 911 q 394 855 408 874 q 363 819 379 836 q 332 788 346 801 q 308 765 318 774 q 297 756 297 756 q 268 746 282 746 q 240 758 251 746 q 228 788 228 769 q 242 818 228 806 z "},"":{"ha":656,"x_min":28,"x_max":636,"o":"m 614 368 q 636 332 636 354 q 631 313 636 324 q 540 172 586 231 q 447 75 493 114 q 359 18 401 36 q 281 0 317 0 q 154 54 207 0 q 81 207 101 108 q 43 216 58 207 q 28 249 28 225 q 40 278 28 265 q 68 290 51 290 q 66 316 67 303 q 65 342 65 329 q 85 484 65 418 q 138 597 104 550 q 220 672 172 644 q 325 699 268 699 q 414 658 381 699 q 447 556 447 618 q 424 444 447 499 q 363 343 401 389 q 272 264 324 297 q 164 218 221 231 q 209 119 179 156 q 281 83 239 83 q 336 97 306 83 q 403 143 367 111 q 478 226 439 175 q 558 353 517 278 q 593 374 569 374 q 614 368 600 374 m 150 301 q 254 351 213 318 q 320 422 296 385 q 354 497 344 460 q 364 556 364 533 q 356 598 364 581 q 325 615 347 615 q 254 595 286 615 q 199 538 222 575 q 162 451 175 501 q 149 343 149 401 q 149 322 149 332 q 150 301 150 311 m 438 897 q 464 861 454 875 q 478 840 474 847 q 485 828 483 832 q 488 822 488 825 q 478 788 488 804 q 446 771 468 771 q 419 784 432 771 q 394 816 407 797 q 367 855 382 835 q 333 889 351 875 q 315 876 328 886 q 283 843 303 865 q 252 806 263 819 q 236 787 242 793 q 227 779 231 781 q 215 778 224 778 q 178 793 190 778 q 167 831 167 808 q 177 850 167 836 q 228 906 188 864 q 288 958 263 942 q 335 975 313 975 q 382 956 358 975 q 438 897 406 938 z "},"":{"ha":656,"x_min":28,"x_max":636,"o":"m 614 368 q 636 332 636 354 q 631 313 636 324 q 540 172 586 231 q 447 75 493 114 q 359 18 401 36 q 281 0 317 0 q 154 54 207 0 q 81 207 101 108 q 43 216 58 207 q 28 249 28 225 q 40 278 28 265 q 68 290 51 290 q 66 316 67 303 q 65 342 65 329 q 85 484 65 418 q 138 597 104 550 q 220 672 172 644 q 325 699 268 699 q 414 658 381 699 q 447 556 447 618 q 424 444 447 499 q 363 343 401 389 q 272 264 324 297 q 164 218 221 231 q 209 119 179 156 q 281 83 239 83 q 336 97 306 83 q 403 143 367 111 q 478 226 439 175 q 558 353 517 278 q 593 374 569 374 q 614 368 600 374 m 150 301 q 254 351 213 318 q 320 422 296 385 q 354 497 344 460 q 364 556 364 533 q 356 598 364 581 q 325 615 347 615 q 254 595 286 615 q 199 538 222 575 q 162 451 175 501 q 149 343 149 401 q 149 322 149 332 q 150 301 150 311 m 417 871 q 457 854 440 871 q 474 814 474 838 q 457 772 474 789 q 417 756 440 756 q 375 772 392 756 q 358 814 358 789 q 375 854 358 838 q 417 871 392 871 m 240 871 q 281 854 264 871 q 297 814 297 838 q 281 772 297 789 q 240 756 264 756 q 199 772 215 756 q 182 814 182 789 q 199 854 182 838 q 240 871 215 871 z "},"":{"ha":194,"x_min":-7,"x_max":192,"o":"m 108 665 q 135 652 125 664 q 146 625 146 640 l 146 619 q 133 412 136 515 q 131 204 131 308 q 131 122 131 163 q 132 40 132 81 q 120 11 132 24 q 90 -1 108 -1 q 53 31 61 -1 q 44 104 44 63 q 48 363 43 233 q 64 628 53 493 q 78 656 65 646 q 108 665 92 665 m 178 818 q 192 788 192 806 q 179 758 192 769 q 151 746 167 746 q 122 756 136 746 q 101 775 121 757 q 56 819 81 793 q 13 874 32 844 q -7 926 -7 903 q 5 954 -7 942 q 35 967 17 967 q 74 942 63 967 q 93 908 79 926 q 123 872 107 889 q 154 840 139 854 q 178 818 169 826 z "},"":{"ha":189,"x_min":-1,"x_max":197,"o":"m 114 665 q 141 652 131 664 q 151 625 151 640 l 151 619 q 139 412 142 515 q 136 204 136 308 q 137 122 136 163 q 138 40 138 81 q 126 11 138 24 q 96 -1 114 -1 q 58 31 67 -1 q 50 104 50 63 q 53 363 49 233 q 69 628 58 493 q 84 656 71 646 q 114 665 97 665 m 13 818 q 36 840 21 826 q 67 872 51 854 q 97 908 83 889 q 117 942 110 926 q 154 967 128 967 q 185 954 174 967 q 197 926 197 942 q 188 892 197 911 q 164 855 178 874 q 133 819 150 836 q 103 788 117 801 q 78 765 89 774 q 68 756 68 756 q 39 746 53 746 q 10 758 22 746 q -1 788 -1 769 q 13 818 -1 806 z "},"":{"ha":322,"x_min":4,"x_max":325,"o":"m 181 665 q 208 652 197 664 q 218 625 218 640 l 218 619 q 206 412 208 515 q 203 204 203 308 q 203 122 203 163 q 204 40 204 81 q 192 11 204 24 q 163 -1 181 -1 q 125 31 133 -1 q 117 104 117 63 q 120 363 115 233 q 136 628 125 493 q 151 656 138 646 q 181 665 164 665 m 275 897 q 301 861 292 875 q 316 840 311 847 q 323 828 321 832 q 325 822 325 825 q 315 788 325 804 q 283 771 306 771 q 257 784 269 771 q 232 816 244 797 q 204 855 219 835 q 171 889 189 875 q 153 876 165 886 q 121 843 140 865 q 90 806 100 819 q 74 787 79 793 q 65 779 68 781 q 53 778 61 778 q 16 793 28 778 q 4 831 4 808 q 15 850 4 836 q 65 906 25 864 q 125 958 100 942 q 172 975 150 975 q 219 956 196 975 q 275 897 243 938 z "},"":{"ha":300,"x_min":1,"x_max":293,"o":"m 164 665 q 191 652 181 664 q 201 625 201 640 l 201 619 q 189 412 192 515 q 186 204 186 308 q 187 122 186 163 q 188 40 188 81 q 176 11 188 24 q 146 -1 164 -1 q 108 31 117 -1 q 100 104 100 63 q 103 363 99 233 q 119 628 108 493 q 134 656 121 646 q 164 665 147 665 m 60 871 q 100 854 83 871 q 117 814 117 838 q 100 772 117 789 q 60 756 83 756 q 18 772 35 756 q 1 814 1 789 q 18 854 1 838 q 60 871 35 871 m 236 871 q 276 854 260 871 q 293 814 293 838 q 276 772 293 789 q 236 756 260 756 q 194 772 211 756 q 178 814 178 789 q 194 854 178 838 q 236 871 211 871 z "},"":{"ha":589,"x_min":42,"x_max":553,"o":"m 497 632 q 538 541 525 601 q 550 372 550 481 q 547 230 550 311 q 536 38 543 149 q 523 10 535 21 q 494 -1 511 -1 q 464 12 475 -1 q 453 43 453 25 q 463 232 460 151 q 467 372 467 313 q 462 488 467 446 q 450 550 457 529 q 436 576 443 571 q 426 581 429 581 q 408 571 424 581 q 369 542 392 561 q 318 494 346 522 q 265 428 290 465 q 225 363 247 401 q 182 275 203 325 q 146 165 161 225 q 126 38 131 106 q 113 10 125 21 q 83 -1 100 -1 q 48 21 54 -1 q 42 69 42 43 q 45 228 42 144 q 55 393 49 311 q 70 551 61 475 q 92 685 79 626 q 106 709 94 700 q 133 718 118 718 q 163 706 151 718 q 175 679 175 694 q 174 674 175 676 q 174 669 174 672 q 153 536 163 611 q 138 378 144 461 q 206 490 168 438 q 283 581 244 543 q 360 642 322 619 q 425 664 397 664 q 497 632 468 664 m 511 910 q 540 898 528 910 q 553 868 553 886 q 519 774 553 807 q 439 742 486 742 q 374 757 400 742 q 326 791 347 772 q 287 825 306 810 q 247 840 268 840 q 216 826 224 840 q 204 794 208 811 q 192 763 200 778 q 161 749 185 749 q 131 760 143 749 q 119 789 119 772 q 131 843 119 818 q 159 886 142 868 q 199 914 176 904 q 247 924 222 924 q 313 907 279 924 q 369 861 346 890 q 401 835 381 846 q 440 825 422 825 q 462 838 457 825 q 469 867 467 851 q 480 897 472 883 q 511 910 488 910 z "},"":{"ha":543,"x_min":31,"x_max":515,"o":"m 318 578 q 398 547 361 571 q 460 488 435 524 q 501 405 486 451 q 515 307 515 358 q 495 184 515 240 q 438 88 475 128 q 349 24 400 47 q 235 1 297 1 q 149 21 186 1 q 85 76 111 40 q 44 160 58 111 q 31 269 31 210 q 53 426 31 350 q 113 560 75 501 q 202 653 151 618 q 310 689 253 689 q 339 677 326 689 q 351 647 351 665 q 339 618 351 631 q 310 606 326 606 q 263 595 285 606 q 225 569 242 585 q 195 535 208 553 q 174 503 182 517 q 130 391 146 453 q 114 269 114 329 q 144 135 114 185 q 235 85 175 85 q 328 106 290 85 q 388 160 365 128 q 422 232 411 193 q 432 307 432 271 q 426 366 432 335 q 405 424 419 397 q 367 471 390 451 q 307 496 343 490 q 281 510 290 499 q 271 538 271 521 q 284 567 271 556 q 313 578 297 578 l 318 578 m 357 818 q 371 788 371 806 q 358 758 371 769 q 331 746 346 746 q 301 756 315 746 q 280 775 300 757 q 235 819 260 793 q 192 874 211 844 q 172 926 172 903 q 184 954 172 942 q 214 967 196 967 q 253 942 242 967 q 272 908 258 926 q 302 872 286 889 q 333 840 318 854 q 357 818 349 826 z "},"":{"ha":543,"x_min":31,"x_max":515,"o":"m 318 578 q 398 547 361 571 q 460 488 435 524 q 501 405 486 451 q 515 307 515 358 q 495 184 515 240 q 438 88 475 128 q 349 24 400 47 q 235 1 297 1 q 149 21 186 1 q 85 76 111 40 q 44 160 58 111 q 31 269 31 210 q 53 426 31 350 q 113 560 75 501 q 202 653 151 618 q 310 689 253 689 q 339 677 326 689 q 351 647 351 665 q 339 618 351 631 q 310 606 326 606 q 263 595 285 606 q 225 569 242 585 q 195 535 208 553 q 174 503 182 517 q 130 391 146 453 q 114 269 114 329 q 144 135 114 185 q 235 85 175 85 q 328 106 290 85 q 388 160 365 128 q 422 232 411 193 q 432 307 432 271 q 426 366 432 335 q 405 424 419 397 q 367 471 390 451 q 307 496 343 490 q 281 510 290 499 q 271 538 271 521 q 284 567 271 556 q 313 578 297 578 l 318 578 m 186 818 q 210 840 194 826 q 241 872 225 854 q 270 908 257 889 q 290 942 283 926 q 328 967 301 967 q 359 954 347 967 q 371 926 371 942 q 361 892 371 911 q 338 855 351 874 q 307 819 324 836 q 276 788 290 801 q 252 765 263 774 q 242 756 242 756 q 213 746 226 746 q 184 758 196 746 q 172 788 172 769 q 186 818 172 806 z "},"":{"ha":543,"x_min":31,"x_max":515,"o":"m 318 578 q 398 547 361 571 q 460 488 435 524 q 501 405 486 451 q 515 307 515 358 q 495 184 515 240 q 438 88 475 128 q 349 24 400 47 q 235 1 297 1 q 149 21 186 1 q 85 76 111 40 q 44 160 58 111 q 31 269 31 210 q 53 426 31 350 q 113 560 75 501 q 202 653 151 618 q 310 689 253 689 q 339 677 326 689 q 351 647 351 665 q 339 618 351 631 q 310 606 326 606 q 263 595 285 606 q 225 569 242 585 q 195 535 208 553 q 174 503 182 517 q 130 391 146 453 q 114 269 114 329 q 144 135 114 185 q 235 85 175 85 q 328 106 290 85 q 388 160 365 128 q 422 232 411 193 q 432 307 432 271 q 426 366 432 335 q 405 424 419 397 q 367 471 390 451 q 307 496 343 490 q 281 510 290 499 q 271 538 271 521 q 284 567 271 556 q 313 578 297 578 l 318 578 m 382 897 q 408 861 399 875 q 423 840 418 847 q 430 828 428 832 q 432 822 432 825 q 422 788 432 804 q 390 771 413 771 q 364 784 376 771 q 339 816 351 797 q 311 855 326 835 q 278 889 296 875 q 260 876 272 886 q 228 843 247 865 q 197 806 207 819 q 181 787 186 793 q 172 779 175 781 q 160 778 168 778 q 123 793 135 778 q 111 831 111 808 q 122 850 111 836 q 172 906 132 864 q 232 958 207 942 q 279 975 257 975 q 326 956 303 975 q 382 897 350 938 z "},"":{"ha":543,"x_min":31,"x_max":515,"o":"m 318 578 q 398 547 361 571 q 460 488 435 524 q 501 405 486 451 q 515 307 515 358 q 495 184 515 240 q 438 88 475 128 q 349 24 400 47 q 235 1 297 1 q 149 21 186 1 q 85 76 111 40 q 44 160 58 111 q 31 269 31 210 q 53 426 31 350 q 113 560 75 501 q 202 653 151 618 q 310 689 253 689 q 339 677 326 689 q 351 647 351 665 q 339 618 351 631 q 310 606 326 606 q 263 595 285 606 q 225 569 242 585 q 195 535 208 553 q 174 503 182 517 q 130 391 146 453 q 114 269 114 329 q 144 135 114 185 q 235 85 175 85 q 328 106 290 85 q 388 160 365 128 q 422 232 411 193 q 432 307 432 271 q 426 366 432 335 q 405 424 419 397 q 367 471 390 451 q 307 496 343 490 q 281 510 290 499 q 271 538 271 521 q 284 567 271 556 q 313 578 297 578 l 318 578 m 446 896 q 475 884 463 896 q 488 854 488 872 q 454 760 488 793 q 374 728 421 728 q 308 743 335 728 q 261 777 282 758 q 222 811 240 796 q 182 826 203 826 q 151 812 158 826 q 139 781 143 797 q 127 749 135 764 q 96 735 119 735 q 66 747 78 735 q 54 775 54 758 q 65 829 54 804 q 94 872 76 854 q 134 900 111 890 q 182 910 157 910 q 247 893 214 910 q 304 847 281 876 q 336 822 315 832 q 375 811 357 811 q 397 824 392 811 q 404 853 401 838 q 415 883 407 869 q 446 896 422 896 z "},"":{"ha":543,"x_min":31,"x_max":515,"o":"m 318 578 q 398 547 361 571 q 460 488 435 524 q 501 405 486 451 q 515 307 515 358 q 495 184 515 240 q 438 88 475 128 q 349 24 400 47 q 235 1 297 1 q 149 21 186 1 q 85 76 111 40 q 44 160 58 111 q 31 269 31 210 q 53 426 31 350 q 113 560 75 501 q 202 653 151 618 q 310 689 253 689 q 339 677 326 689 q 351 647 351 665 q 339 618 351 631 q 310 606 326 606 q 263 595 285 606 q 225 569 242 585 q 195 535 208 553 q 174 503 182 517 q 130 391 146 453 q 114 269 114 329 q 144 135 114 185 q 235 85 175 85 q 328 106 290 85 q 388 160 365 128 q 422 232 411 193 q 432 307 432 271 q 426 366 432 335 q 405 424 419 397 q 367 471 390 451 q 307 496 343 490 q 281 510 290 499 q 271 538 271 521 q 284 567 271 556 q 313 578 297 578 l 318 578 m 183 871 q 224 854 207 871 q 240 814 240 838 q 224 772 240 789 q 183 756 207 756 q 142 772 158 756 q 125 814 125 789 q 142 854 125 838 q 183 871 158 871 m 360 871 q 400 854 383 871 q 417 814 417 838 q 400 772 417 789 q 360 756 383 756 q 318 772 335 756 q 301 814 301 789 q 318 854 301 838 q 360 871 335 871 z "},"":{"ha":593,"x_min":38,"x_max":550,"o":"m 513 676 q 545 650 540 672 q 550 597 550 628 q 545 429 550 522 q 534 249 540 336 q 521 90 528 161 q 508 -12 514 19 q 494 -37 506 -28 q 467 -47 482 -47 q 436 -35 447 -47 q 425 -4 425 -22 q 428 45 425 13 q 437 122 432 78 q 447 219 442 167 q 456 328 453 272 q 324 90 393 169 q 192 11 256 11 q 81 98 125 11 q 38 342 38 185 q 71 643 38 481 q 85 667 74 658 q 111 675 96 675 q 142 663 131 675 q 153 635 153 650 l 153 626 q 121 340 121 467 q 132 195 121 246 q 157 122 143 144 q 182 97 171 100 q 192 94 193 94 q 251 137 215 94 q 326 253 288 179 q 402 427 365 326 q 467 644 439 528 q 483 668 469 660 q 513 676 497 676 m 382 818 q 396 788 396 806 q 383 758 396 769 q 356 746 371 746 q 326 756 340 746 q 305 775 325 757 q 260 819 285 793 q 217 874 236 844 q 197 926 197 903 q 209 954 197 942 q 239 967 221 967 q 278 942 267 967 q 297 908 283 926 q 327 872 311 889 q 358 840 343 854 q 382 818 374 826 z "},"":{"ha":593,"x_min":38,"x_max":550,"o":"m 513 676 q 545 650 540 672 q 550 597 550 628 q 545 429 550 522 q 534 249 540 336 q 521 90 528 161 q 508 -12 514 19 q 494 -37 506 -28 q 467 -47 482 -47 q 436 -35 447 -47 q 425 -4 425 -22 q 428 45 425 13 q 437 122 432 78 q 447 219 442 167 q 456 328 453 272 q 324 90 393 169 q 192 11 256 11 q 81 98 125 11 q 38 342 38 185 q 71 643 38 481 q 85 667 74 658 q 111 675 96 675 q 142 663 131 675 q 153 635 153 650 l 153 626 q 121 340 121 467 q 132 195 121 246 q 157 122 143 144 q 182 97 171 100 q 192 94 193 94 q 251 137 215 94 q 326 253 288 179 q 402 427 365 326 q 467 644 439 528 q 483 668 469 660 q 513 676 497 676 m 211 818 q 235 840 219 826 q 266 872 250 854 q 295 908 282 889 q 315 942 308 926 q 353 967 326 967 q 384 954 372 967 q 396 926 396 942 q 387 892 396 911 q 363 855 378 874 q 332 819 349 836 q 301 788 315 801 q 277 765 288 774 q 267 756 267 756 q 238 746 251 746 q 209 758 221 746 q 197 788 197 769 q 211 818 197 806 z "},"":{"ha":593,"x_min":38,"x_max":550,"o":"m 513 676 q 545 650 540 672 q 550 597 550 628 q 545 429 550 522 q 534 249 540 336 q 521 90 528 161 q 508 -12 514 19 q 494 -37 506 -28 q 467 -47 482 -47 q 436 -35 447 -47 q 425 -4 425 -22 q 428 45 425 13 q 437 122 432 78 q 447 219 442 167 q 456 328 453 272 q 324 90 393 169 q 192 11 256 11 q 81 98 125 11 q 38 342 38 185 q 71 643 38 481 q 85 667 74 658 q 111 675 96 675 q 142 663 131 675 q 153 635 153 650 l 153 626 q 121 340 121 467 q 132 195 121 246 q 157 122 143 144 q 182 97 171 100 q 192 94 193 94 q 251 137 215 94 q 326 253 288 179 q 402 427 365 326 q 467 644 439 528 q 483 668 469 660 q 513 676 497 676 m 407 897 q 433 861 424 875 q 448 840 443 847 q 455 828 453 832 q 457 822 457 825 q 447 788 457 804 q 415 771 438 771 q 389 784 401 771 q 364 816 376 797 q 336 855 351 835 q 303 889 321 875 q 285 876 297 886 q 253 843 272 865 q 222 806 232 819 q 206 787 211 793 q 197 779 200 781 q 185 778 193 778 q 148 793 160 778 q 136 831 136 808 q 147 850 136 836 q 197 906 157 864 q 257 958 232 942 q 304 975 282 975 q 351 956 328 975 q 407 897 375 938 z "},"":{"ha":593,"x_min":38,"x_max":550,"o":"m 513 676 q 545 650 540 672 q 550 597 550 628 q 545 429 550 522 q 534 249 540 336 q 521 90 528 161 q 508 -12 514 19 q 494 -37 506 -28 q 467 -47 482 -47 q 436 -35 447 -47 q 425 -4 425 -22 q 428 45 425 13 q 437 122 432 78 q 447 219 442 167 q 456 328 453 272 q 324 90 393 169 q 192 11 256 11 q 81 98 125 11 q 38 342 38 185 q 71 643 38 481 q 85 667 74 658 q 111 675 96 675 q 142 663 131 675 q 153 635 153 650 l 153 626 q 121 340 121 467 q 132 195 121 246 q 157 122 143 144 q 182 97 171 100 q 192 94 193 94 q 251 137 215 94 q 326 253 288 179 q 402 427 365 326 q 467 644 439 528 q 483 668 469 660 q 513 676 497 676 m 208 871 q 249 854 232 871 q 265 814 265 838 q 249 772 265 789 q 208 756 232 756 q 167 772 183 756 q 150 814 150 789 q 167 854 150 838 q 208 871 183 871 m 385 871 q 425 854 408 871 q 442 814 442 838 q 425 772 442 789 q 385 756 408 756 q 343 772 360 756 q 326 814 326 789 q 343 854 326 838 q 385 871 360 871 z "},"":{"ha":536,"x_min":22,"x_max":522,"o":"m 486 692 q 513 677 503 689 q 522 650 522 665 l 522 644 q 486 471 511 558 q 429 298 461 383 q 363 130 397 213 q 301 -30 329 47 q 256 -177 274 -107 q 238 -307 238 -247 q 226 -336 238 -324 q 196 -349 214 -349 q 167 -336 179 -349 q 154 -307 154 -324 q 176 -155 154 -235 q 229 13 197 -75 q 133 97 172 32 q 69 248 93 163 q 33 427 44 333 q 22 596 22 521 q 35 626 22 614 q 64 638 47 638 q 94 626 82 638 q 106 596 106 614 q 115 438 106 529 q 149 264 125 347 q 165 214 154 242 q 189 161 175 186 q 220 117 203 136 q 260 92 238 97 q 315 230 288 160 q 368 371 343 300 q 412 513 393 442 q 440 656 431 585 q 454 681 443 671 q 481 692 465 692 l 486 692 m 182 818 q 206 840 190 826 q 237 872 221 854 q 266 908 253 889 q 286 942 279 926 q 324 967 297 967 q 355 954 343 967 q 367 926 367 942 q 358 892 367 911 q 334 855 349 874 q 303 819 319 836 q 272 788 286 801 q 248 765 258 774 q 238 756 238 756 q 208 746 222 746 q 180 758 192 746 q 168 788 168 769 q 182 818 168 806 z "},"":{"ha":536,"x_min":22,"x_max":522,"o":"m 486 692 q 513 677 503 689 q 522 650 522 665 l 522 644 q 486 471 511 558 q 429 298 461 383 q 363 130 397 213 q 301 -30 329 47 q 256 -177 274 -107 q 238 -307 238 -247 q 226 -336 238 -324 q 196 -349 214 -349 q 167 -336 179 -349 q 154 -307 154 -324 q 176 -155 154 -235 q 229 13 197 -75 q 133 97 172 32 q 69 248 93 163 q 33 427 44 333 q 22 596 22 521 q 35 626 22 614 q 64 638 47 638 q 94 626 82 638 q 106 596 106 614 q 115 438 106 529 q 149 264 125 347 q 165 214 154 242 q 189 161 175 186 q 220 117 203 136 q 260 92 238 97 q 315 230 288 160 q 368 371 343 300 q 412 513 393 442 q 440 656 431 585 q 454 681 443 671 q 481 692 465 692 l 486 692 m 181 871 q 221 854 204 871 q 238 814 238 838 q 221 772 238 789 q 181 756 204 756 q 139 772 156 756 q 122 814 122 789 q 139 854 122 838 q 181 871 156 871 m 357 871 q 397 854 381 871 q 414 814 414 838 q 397 772 414 789 q 357 756 381 756 q 315 772 332 756 q 299 814 299 789 q 315 854 299 838 q 357 871 332 871 z "},"":{"ha":639,"x_min":39,"x_max":608,"o":"m 549 126 q 565 131 557 131 q 594 119 581 131 q 608 89 608 107 q 576 48 608 65 q 499 19 544 31 q 402 1 453 7 q 313 -4 351 -4 q 204 8 254 -4 q 117 44 154 19 q 60 105 81 68 q 39 190 39 142 q 64 291 39 243 q 127 381 89 339 q 213 459 165 422 q 306 527 260 496 q 389 583 351 558 q 447 629 426 608 q 432 631 440 631 q 408 632 424 632 q 368 631 392 632 q 313 624 344 629 q 236 610 264 615 q 194 601 208 604 q 176 596 179 597 q 171 594 172 594 q 142 606 154 594 q 129 636 129 617 q 137 662 129 650 q 160 676 144 674 q 188 683 160 676 q 258 696 217 689 q 341 709 299 703 q 410 715 383 715 q 479 707 453 715 q 519 686 506 699 q 536 659 532 674 q 540 631 540 644 q 509 578 540 607 q 432 517 478 550 q 331 447 386 485 q 231 369 276 410 q 153 283 185 328 q 122 192 122 239 q 167 109 122 139 q 313 79 213 79 q 438 92 374 79 q 549 126 503 106 m 210 850 q 183 886 193 872 q 167 908 172 900 q 160 919 163 915 q 158 925 158 922 q 168 960 158 943 q 201 976 178 976 q 227 963 215 976 q 252 931 239 950 q 280 892 265 913 q 314 858 294 872 q 332 872 319 861 q 364 904 344 882 q 395 941 385 928 q 411 960 406 954 q 420 968 417 967 q 432 969 424 969 q 468 953 457 969 q 479 917 479 938 q 478 908 479 913 q 470 897 476 904 q 452 876 464 889 q 419 842 440 863 q 359 789 385 806 q 313 772 333 772 q 265 791 289 772 q 210 850 242 810 z "},"":{"ha":549,"x_min":26,"x_max":525,"o":"m 458 297 q 525 167 525 247 q 508 100 525 131 q 461 47 490 69 q 393 10 432 24 q 311 -3 354 -3 q 142 55 217 -3 q 29 214 67 113 q 27 222 28 218 q 26 229 26 225 q 38 257 26 244 q 67 269 49 269 q 107 243 96 269 q 148 167 124 197 q 199 117 172 136 q 255 89 226 97 q 310 81 283 81 q 405 106 368 81 q 442 167 442 132 q 433 203 442 188 q 408 231 425 218 q 366 254 392 243 q 306 279 340 265 q 221 316 260 296 q 153 362 182 336 q 109 422 125 388 q 93 501 93 456 q 107 578 93 543 q 144 641 121 614 q 200 683 168 668 q 268 699 232 699 q 375 656 328 699 q 450 536 422 613 q 451 522 451 532 q 440 494 451 507 q 410 481 429 481 q 387 488 399 481 q 371 508 375 496 q 268 614 335 614 q 207 585 236 614 q 178 501 178 556 q 188 451 178 472 q 218 413 199 429 q 267 384 238 397 q 335 357 297 371 q 399 331 367 344 q 458 297 431 317 m 164 850 q 137 886 147 872 q 122 908 126 900 q 115 919 117 915 q 113 925 113 922 q 122 960 113 943 q 156 976 132 976 q 181 963 169 976 q 206 931 193 950 q 234 892 219 913 q 268 858 249 872 q 286 872 274 861 q 318 904 299 882 q 349 941 339 928 q 365 960 360 954 q 374 968 371 967 q 386 969 378 969 q 422 953 411 969 q 433 917 433 938 q 432 908 433 913 q 424 897 431 904 q 406 876 418 889 q 374 842 394 863 q 313 789 339 806 q 267 772 288 772 q 219 791 243 772 q 164 850 196 810 z "},"":{"ha":628,"x_min":29,"x_max":600,"o":"m 536 147 q 558 154 547 154 q 587 142 574 154 q 600 113 600 131 q 567 67 600 88 q 488 31 535 46 q 390 8 440 17 q 304 0 339 0 q 98 70 167 0 q 29 258 29 140 q 59 403 29 335 q 134 531 89 471 q 232 640 179 590 q 332 731 285 690 q 403 797 376 768 q 433 831 431 826 l 433 829 l 433 831 q 435 833 433 831 q 428 846 435 838 q 399 862 422 854 q 333 876 376 869 q 214 882 289 882 q 123 879 161 882 q 83 876 85 876 l 78 876 q 49 888 61 876 q 38 918 38 900 q 48 945 38 933 q 75 958 58 957 q 117 963 78 960 q 214 965 157 965 q 443 932 369 965 q 517 829 517 899 q 487 766 517 800 q 412 692 457 732 q 315 605 367 651 q 217 505 263 558 q 142 390 172 451 q 113 257 113 328 q 161 125 113 167 q 306 83 210 83 q 430 101 368 83 q 536 147 492 119 m 314 1149 q 354 1132 338 1149 q 371 1092 371 1115 q 354 1050 371 1067 q 314 1033 338 1033 q 272 1050 289 1033 q 256 1092 256 1067 q 272 1132 256 1115 q 314 1149 289 1149 z "},"":{"ha":731,"x_min":36,"x_max":697,"o":"m 694 46 q 697 31 697 35 q 685 1 697 14 q 656 -11 674 -11 q 617 15 625 -11 q 550 133 593 75 q 449 241 507 192 q 321 326 390 290 q 176 375 251 361 q 156 374 169 374 q 153 254 154 311 q 153 149 153 197 q 153 92 153 118 q 154 43 154 65 q 142 13 154 26 q 114 0 131 0 q 76 23 83 0 q 68 82 68 46 q 69 218 68 142 q 72 382 69 294 q 47 395 57 382 q 36 422 36 408 q 47 451 36 439 q 74 464 58 463 q 76 603 75 533 q 81 735 78 672 q 87 852 83 799 q 94 944 90 906 q 108 971 96 960 q 138 982 119 982 q 166 969 154 982 q 178 939 178 956 q 176 910 178 926 q 172 876 175 894 q 469 947 351 947 q 611 905 560 947 q 663 788 663 863 q 636 678 663 735 q 565 570 610 622 q 463 476 521 518 q 340 410 404 433 q 454 342 400 382 q 554 256 508 303 q 635 156 600 210 q 694 46 671 103 m 157 461 q 168 460 163 461 q 181 458 174 460 q 328 496 256 463 q 456 577 400 529 q 545 681 511 625 q 579 788 579 736 q 471 864 579 864 q 168 783 354 864 q 162 630 164 713 q 157 461 160 547 m 279 1096 q 303 1118 288 1104 q 334 1149 318 1132 q 363 1185 350 1167 q 383 1219 376 1204 q 421 1244 394 1244 q 452 1232 440 1244 q 464 1204 464 1219 q 455 1170 464 1189 q 431 1133 446 1151 q 400 1097 417 1115 q 369 1065 383 1079 q 345 1042 356 1051 q 335 1033 335 1033 q 306 1024 319 1024 q 277 1035 289 1024 q 265 1065 265 1047 q 279 1096 265 1083 z "},"":{"ha":801,"x_min":21,"x_max":785,"o":"m 779 468 q 785 447 785 458 q 744 400 785 417 q 647 371 704 383 q 656 213 654 285 q 658 96 658 140 q 653 21 658 42 q 617 0 647 0 q 587 13 599 0 q 575 43 575 26 l 575 81 q 574 194 575 121 q 565 354 572 267 q 374 319 478 336 q 175 279 269 303 q 173 231 174 256 q 172 178 172 206 q 174 124 172 151 q 175 67 175 96 q 168 19 175 39 q 133 0 161 0 q 108 3 117 0 q 94 20 99 7 q 90 60 90 33 q 89 135 89 88 q 90 189 89 158 q 90 253 90 219 q 76 247 83 250 q 63 244 69 244 q 33 257 46 244 q 21 286 21 269 q 28 309 21 300 q 45 324 35 318 q 69 333 56 329 q 93 342 82 338 q 123 617 103 497 q 176 819 143 738 q 258 944 210 901 q 371 986 306 986 q 542 858 475 986 q 640 454 608 729 q 705 477 678 465 q 743 489 732 489 q 779 468 767 489 m 558 438 q 529 633 547 546 q 487 779 511 719 q 434 871 463 839 q 372 903 406 903 q 303 871 332 903 q 268 820 288 854 q 231 727 249 786 q 199 580 214 668 q 178 365 185 492 q 310 394 242 382 q 442 417 378 406 l 558 438 m 490 1244 q 519 1232 507 1244 q 532 1203 532 1219 q 483 1082 532 1125 q 349 1039 433 1039 q 267 1056 299 1039 q 217 1098 235 1074 q 192 1149 199 1122 q 186 1193 186 1175 q 198 1223 186 1211 q 228 1235 210 1235 q 262 1217 257 1235 q 270 1178 267 1200 q 287 1140 274 1157 q 347 1122 300 1122 q 449 1203 449 1122 q 460 1232 449 1219 q 490 1244 472 1244 z "},"":{"ha":596,"x_min":53,"x_max":589,"o":"m 533 133 q 549 136 542 136 q 576 124 564 136 q 589 93 589 113 q 561 56 589 65 q 529 47 560 56 q 454 27 499 38 q 360 8 410 17 q 268 -1 310 -1 q 140 26 189 -1 q 81 110 92 53 q 59 281 65 186 q 53 481 53 376 q 58 710 53 596 q 71 924 64 825 q 84 951 72 939 q 113 963 96 963 q 143 949 132 963 q 154 918 154 935 q 142 707 147 821 q 136 479 136 593 q 142 289 136 379 q 163 126 147 199 q 168 110 164 118 q 183 96 172 103 q 215 85 194 89 q 269 81 235 81 q 341 88 296 81 q 430 104 386 94 q 504 122 474 114 q 533 133 535 131 m 213 1096 q 236 1118 221 1104 q 267 1149 251 1132 q 297 1185 283 1167 q 317 1219 310 1204 q 354 1244 328 1244 q 385 1232 374 1244 q 397 1204 397 1219 q 388 1170 397 1189 q 365 1133 379 1151 q 333 1097 350 1115 q 303 1065 317 1079 q 278 1042 289 1051 q 268 1033 268 1033 q 239 1024 253 1024 q 210 1035 222 1024 q 199 1065 199 1047 q 213 1096 199 1083 z "},"":{"ha":713,"x_min":35,"x_max":694,"o":"m 249 -6 q 90 106 144 -6 q 35 417 35 218 q 56 634 35 533 q 116 809 78 735 q 206 926 154 883 q 319 969 258 969 q 384 953 350 969 q 450 899 418 936 q 510 805 482 863 q 557 665 538 747 l 557 657 q 546 628 557 642 q 517 614 535 614 q 490 623 501 614 q 475 647 478 632 q 408 823 450 760 q 317 886 365 886 q 241 848 276 886 q 178 745 206 810 q 134 595 150 681 q 118 417 118 510 q 127 278 118 340 q 153 171 136 215 q 193 102 169 126 q 247 78 217 78 q 324 104 282 78 q 414 180 367 131 q 513 300 461 229 q 617 461 564 371 q 653 482 626 482 q 683 469 672 482 q 694 440 694 456 q 689 419 694 431 q 455 103 565 211 q 249 -6 344 -6 m 271 1096 q 294 1118 279 1104 q 326 1149 310 1132 q 355 1185 342 1167 q 375 1219 368 1204 q 413 1244 386 1244 q 444 1232 432 1244 q 456 1204 456 1219 q 447 1170 456 1189 q 423 1133 438 1151 q 392 1097 408 1115 q 361 1065 375 1079 q 337 1042 347 1051 q 326 1033 326 1033 q 297 1024 311 1024 q 269 1035 281 1024 q 257 1065 257 1047 q 271 1096 257 1083 z "},"":{"ha":713,"x_min":35,"x_max":694,"o":"m 249 -6 q 90 106 144 -6 q 35 417 35 218 q 56 634 35 533 q 116 809 78 735 q 206 926 154 883 q 319 969 258 969 q 384 953 350 969 q 450 899 418 936 q 510 805 482 863 q 557 665 538 747 l 557 657 q 546 628 557 642 q 517 614 535 614 q 490 623 501 614 q 475 647 478 632 q 408 823 450 760 q 317 886 365 886 q 241 848 276 886 q 178 745 206 810 q 134 595 150 681 q 118 417 118 510 q 127 278 118 340 q 153 171 136 215 q 193 102 169 126 q 247 78 217 78 q 324 104 282 78 q 414 180 367 131 q 513 300 461 229 q 617 461 564 371 q 653 482 626 482 q 683 469 672 482 q 694 440 694 456 q 689 419 694 431 q 455 103 565 211 q 249 -6 344 -6 m 246 1128 q 219 1164 229 1150 q 203 1185 208 1178 q 197 1197 199 1193 q 194 1203 194 1200 q 204 1238 194 1221 q 238 1254 214 1254 q 263 1241 251 1254 q 288 1209 275 1228 q 316 1170 301 1190 q 350 1136 331 1150 q 368 1149 356 1139 q 400 1182 381 1160 q 431 1219 421 1206 q 447 1238 442 1232 q 456 1246 453 1244 q 468 1247 460 1247 q 504 1231 493 1247 q 515 1194 515 1215 q 514 1186 515 1190 q 506 1174 513 1182 q 488 1153 500 1167 q 456 1119 476 1140 q 395 1067 421 1083 q 349 1050 369 1050 q 301 1069 325 1050 q 246 1128 278 1088 z "},"":{"ha":635,"x_min":33,"x_max":619,"o":"m 569 129 q 574 130 572 129 q 579 131 576 131 q 608 118 596 131 q 619 88 619 106 q 610 63 619 74 q 586 49 601 51 q 545 41 585 49 q 450 25 506 33 q 334 10 394 17 q 231 3 274 3 q 138 15 169 3 q 97 56 107 28 q 94 73 97 57 q 87 128 90 89 q 79 236 83 168 q 74 411 75 304 q 46 423 58 411 q 33 451 33 435 q 44 481 33 468 q 74 494 56 493 q 73 531 74 514 q 72 567 72 549 q 74 723 72 665 q 80 812 76 781 q 86 853 83 843 q 90 868 89 864 q 202 941 114 915 q 447 967 290 967 q 472 967 458 967 q 499 963 486 967 q 519 952 511 960 q 528 928 528 944 q 517 899 528 911 q 489 883 507 886 l 447 883 q 307 876 361 883 q 222 860 253 869 q 178 843 190 851 q 165 833 167 835 q 160 768 165 831 q 156 564 156 706 q 156 532 156 549 q 157 499 157 515 q 240 503 193 500 q 333 511 286 507 q 424 519 381 515 q 501 529 468 524 l 508 529 q 537 518 524 529 q 550 490 550 507 q 540 463 550 475 q 515 447 531 450 q 434 437 481 442 q 339 428 388 432 q 242 420 290 424 q 157 415 194 417 q 164 204 160 289 q 174 92 168 119 q 192 88 179 89 q 229 86 204 86 q 275 90 243 86 q 345 97 307 93 q 424 108 383 101 q 497 118 464 114 q 551 126 531 122 q 569 129 571 129 m 207 1128 q 180 1164 190 1150 q 165 1185 169 1178 q 158 1197 160 1193 q 156 1203 156 1200 q 165 1238 156 1221 q 199 1254 175 1254 q 224 1241 213 1254 q 249 1209 236 1228 q 277 1170 263 1190 q 311 1136 292 1150 q 329 1149 317 1139 q 361 1182 342 1160 q 392 1219 382 1206 q 408 1238 403 1232 q 417 1246 414 1244 q 429 1247 421 1247 q 465 1231 454 1247 q 476 1194 476 1215 q 475 1186 476 1190 q 467 1174 474 1182 q 449 1153 461 1167 q 417 1119 438 1140 q 356 1067 382 1083 q 310 1050 331 1050 q 263 1069 286 1050 q 207 1128 239 1088 z "},"":{"ha":692,"x_min":38,"x_max":663,"o":"m 451 932 q 509 888 483 913 q 555 835 535 863 q 590 778 575 807 q 615 724 604 749 q 651 606 639 667 q 663 488 663 546 q 638 296 663 385 q 568 141 613 207 q 462 37 524 75 q 326 -1 400 -1 q 250 9 290 -1 q 164 43 210 19 q 152 6 157 22 q 121 -11 147 -11 q 91 1 103 -11 q 79 29 79 14 q 80 60 79 43 q 82 97 81 78 q 53 120 68 107 q 38 153 38 133 q 49 181 38 168 q 81 194 61 194 l 85 194 q 88 388 86 282 q 93 599 90 494 q 98 795 96 703 q 100 946 100 888 l 100 965 q 112 995 100 983 q 142 1007 124 1007 q 172 994 160 1007 q 183 964 183 981 l 183 944 q 182 929 182 940 q 258 956 222 949 q 325 964 293 964 q 396 955 364 964 q 451 932 428 946 m 579 489 q 569 591 579 538 q 539 693 558 644 q 509 755 528 722 q 464 816 490 788 q 402 863 438 844 q 324 882 367 882 q 181 835 260 882 q 178 669 179 760 q 174 483 176 578 q 170 299 172 389 q 167 139 168 210 q 326 82 251 82 q 424 112 379 82 q 503 194 469 142 q 557 318 538 247 q 579 472 576 389 l 579 489 m 236 1128 q 209 1164 219 1150 q 194 1185 199 1178 q 187 1197 189 1193 q 185 1203 185 1200 q 194 1238 185 1221 q 228 1254 204 1254 q 253 1241 242 1254 q 278 1209 265 1228 q 306 1170 292 1190 q 340 1136 321 1150 q 358 1149 346 1139 q 390 1182 371 1160 q 422 1219 411 1206 q 438 1238 432 1232 q 447 1246 443 1244 q 458 1247 450 1247 q 494 1231 483 1247 q 506 1194 506 1215 q 504 1186 506 1190 q 497 1174 503 1182 q 478 1153 490 1167 q 446 1119 467 1140 q 385 1067 411 1083 q 339 1050 360 1050 q 292 1069 315 1050 q 236 1128 268 1088 z "},"":{"ha":736,"x_min":14,"x_max":722,"o":"m 671 957 q 681 958 674 958 q 710 947 697 958 q 722 915 722 935 q 690 878 722 892 q 610 857 658 864 q 506 848 563 850 q 403 846 450 846 q 397 683 400 776 q 392 491 394 590 q 388 297 389 392 q 386 128 386 201 q 387 65 386 93 q 388 15 388 36 q 376 -14 388 0 q 347 -28 364 -28 q 308 -4 315 -28 q 300 60 300 19 q 301 167 300 106 q 303 299 301 229 q 306 443 304 368 q 310 590 308 518 q 315 728 313 663 q 319 847 317 794 q 131 866 206 858 q 49 876 56 874 q 24 890 33 879 q 14 917 14 901 q 27 947 14 935 q 56 958 40 958 l 64 958 q 85 955 64 958 q 141 947 106 951 q 224 938 176 942 q 325 931 271 933 q 341 950 331 942 q 364 958 351 958 q 390 950 379 958 q 404 929 401 942 q 542 935 474 929 q 671 957 610 942 m 258 1128 q 231 1164 242 1150 q 216 1185 221 1178 q 209 1197 211 1193 q 207 1203 207 1200 q 217 1238 207 1221 q 250 1254 226 1254 q 276 1241 264 1254 q 301 1209 288 1228 q 328 1170 314 1190 q 363 1136 343 1150 q 381 1149 368 1139 q 413 1182 393 1160 q 444 1219 433 1206 q 460 1238 454 1232 q 469 1246 465 1244 q 481 1247 472 1247 q 517 1231 506 1247 q 528 1194 528 1215 q 526 1186 528 1190 q 519 1174 525 1182 q 501 1153 513 1167 q 468 1119 489 1140 q 408 1067 433 1083 q 361 1050 382 1050 q 314 1069 338 1050 q 258 1128 290 1088 z "},"":{"ha":814,"x_min":42,"x_max":765,"o":"m 321 1096 q 344 1118 329 1104 q 376 1149 360 1132 q 405 1185 392 1167 q 425 1219 418 1204 q 463 1244 436 1244 q 494 1232 482 1244 q 506 1204 506 1219 q 497 1170 506 1189 q 473 1133 488 1151 q 442 1097 458 1115 q 411 1065 425 1079 q 387 1042 397 1051 q 376 1033 376 1033 q 347 1024 361 1024 q 319 1035 331 1024 q 307 1065 307 1047 q 321 1096 307 1083 m 714 864 q 733 789 724 828 q 750 703 743 750 q 761 598 757 656 q 765 465 765 540 q 697 118 765 242 q 499 -6 628 -6 q 374 40 429 -6 q 274 172 318 86 q 198 383 231 258 q 143 665 165 508 q 135 540 139 603 q 128 417 131 476 q 125 306 126 358 q 124 217 124 254 q 130 81 124 118 q 136 40 136 43 q 124 13 136 25 q 93 0 113 0 q 69 8 81 0 q 54 29 58 15 q 49 48 51 36 q 46 81 47 60 q 43 135 44 101 q 42 217 42 168 q 44 350 42 275 q 50 504 46 425 q 59 659 54 583 q 71 793 64 735 q 81 876 76 844 q 89 924 85 907 q 97 949 93 942 q 103 960 100 956 q 124 978 113 975 q 139 982 136 982 q 182 942 169 982 q 204 826 194 901 q 228 645 214 751 q 276 406 243 539 q 500 78 360 78 q 586 112 551 78 q 642 201 621 146 q 673 324 664 256 q 682 461 682 393 q 678 572 682 522 q 669 664 675 622 q 656 743 664 706 q 640 817 649 781 q 617 894 625 875 q 603 916 608 913 q 597 918 599 919 q 596 936 596 917 q 612 968 596 958 q 647 978 628 978 q 660 974 653 978 q 675 960 667 971 q 693 926 683 949 q 714 864 703 903 z "},"":{"ha":814,"x_min":42,"x_max":765,"o":"m 714 864 q 733 789 724 828 q 750 703 743 750 q 761 598 757 656 q 765 465 765 540 q 697 118 765 242 q 499 -6 628 -6 q 374 40 429 -6 q 274 172 318 86 q 198 383 231 258 q 143 665 165 508 q 135 540 139 603 q 128 417 131 476 q 125 306 126 358 q 124 217 124 254 q 130 81 124 118 q 136 40 136 43 q 124 13 136 25 q 93 0 113 0 q 69 8 81 0 q 54 29 58 15 q 49 48 51 36 q 46 81 47 60 q 43 135 44 101 q 42 217 42 168 q 44 350 42 275 q 50 504 46 425 q 59 659 54 583 q 71 793 64 735 q 81 876 76 844 q 89 924 85 907 q 97 949 93 942 q 103 960 100 956 q 124 978 113 975 q 139 982 136 982 q 182 942 169 982 q 204 826 194 901 q 228 645 214 751 q 276 406 243 539 q 500 78 360 78 q 586 112 551 78 q 642 201 621 146 q 673 324 664 256 q 682 461 682 393 q 678 572 682 522 q 669 664 675 622 q 656 743 664 706 q 640 817 649 781 q 617 894 625 875 q 603 916 608 913 q 597 918 599 919 q 596 936 596 917 q 612 968 596 958 q 647 978 628 978 q 660 974 653 978 q 675 960 667 971 q 693 926 683 949 q 714 864 703 903 m 297 1128 q 270 1164 281 1150 q 255 1185 260 1178 q 248 1197 250 1193 q 246 1203 246 1200 q 256 1238 246 1221 q 289 1254 265 1254 q 315 1241 303 1254 q 340 1209 326 1228 q 367 1170 353 1190 q 401 1136 382 1150 q 419 1149 407 1139 q 451 1182 432 1160 q 483 1219 472 1206 q 499 1238 493 1232 q 508 1246 504 1244 q 519 1247 511 1247 q 556 1231 544 1247 q 567 1194 567 1215 q 565 1186 567 1190 q 558 1174 564 1182 q 540 1153 551 1167 q 507 1119 528 1140 q 447 1067 472 1083 q 400 1050 421 1050 q 353 1069 376 1050 q 297 1128 329 1088 z "},"":{"ha":733,"x_min":33,"x_max":706,"o":"m 660 731 q 698 708 690 731 q 706 660 706 685 q 680 402 706 522 q 606 192 654 282 q 488 51 557 103 q 332 0 419 0 q 208 35 264 0 q 114 135 153 71 q 54 287 75 199 q 33 479 33 375 q 60 669 33 581 q 131 824 86 758 q 237 927 176 889 q 365 965 297 965 q 474 936 426 965 q 552 854 521 907 q 599 727 583 801 q 615 564 615 653 q 608 515 615 538 q 572 492 601 492 q 542 503 553 492 q 531 533 531 515 q 531 563 531 549 q 532 592 532 578 q 488 803 532 725 q 367 882 444 882 q 269 849 314 882 q 190 762 224 817 q 136 634 156 707 q 117 482 117 561 q 133 320 117 393 q 176 194 149 247 q 244 113 204 142 q 332 83 283 83 q 427 115 376 83 q 522 211 478 146 q 594 379 565 276 q 622 625 622 482 q 622 656 622 640 q 621 688 621 672 q 631 717 621 704 q 660 731 642 729 m 221 1096 q 244 1118 229 1104 q 276 1149 260 1132 q 305 1185 292 1167 q 325 1219 318 1204 q 363 1244 336 1244 q 394 1232 382 1244 q 406 1204 406 1219 q 397 1170 406 1189 q 373 1133 388 1151 q 342 1097 358 1115 q 311 1065 325 1079 q 287 1042 297 1051 q 276 1033 276 1033 q 247 1024 261 1024 q 219 1035 231 1024 q 207 1065 207 1047 q 221 1096 207 1083 m 397 1096 q 421 1118 406 1104 q 452 1149 436 1132 q 481 1185 468 1167 q 501 1219 494 1204 q 539 1244 513 1244 q 570 1232 558 1244 q 582 1204 582 1219 q 572 1170 582 1189 q 549 1133 563 1151 q 518 1097 535 1115 q 488 1065 501 1079 q 463 1042 474 1051 q 453 1033 453 1033 q 424 1024 438 1024 q 395 1035 407 1024 q 383 1065 383 1047 q 397 1096 383 1083 z "},"":{"ha":731,"x_min":36,"x_max":697,"o":"m 694 46 q 697 31 697 35 q 685 1 697 14 q 656 -11 674 -11 q 617 15 625 -11 q 550 133 593 75 q 449 241 507 192 q 321 326 390 290 q 176 375 251 361 q 156 374 169 374 q 153 254 154 311 q 153 149 153 197 q 153 92 153 118 q 154 43 154 65 q 142 13 154 26 q 114 0 131 0 q 76 23 83 0 q 68 82 68 46 q 69 218 68 142 q 72 382 69 294 q 47 395 57 382 q 36 422 36 408 q 47 451 36 439 q 74 464 58 463 q 76 603 75 533 q 81 735 78 672 q 87 852 83 799 q 94 944 90 906 q 108 971 96 960 q 138 982 119 982 q 166 969 154 982 q 178 939 178 956 q 176 910 178 926 q 172 876 175 894 q 469 947 351 947 q 611 905 560 947 q 663 788 663 863 q 636 678 663 735 q 565 570 610 622 q 463 476 521 518 q 340 410 404 433 q 454 342 400 382 q 554 256 508 303 q 635 156 600 210 q 694 46 671 103 m 157 461 q 168 460 163 461 q 181 458 174 460 q 328 496 256 463 q 456 577 400 529 q 545 681 511 625 q 579 788 579 736 q 471 864 579 864 q 168 783 354 864 q 162 630 164 713 q 157 461 160 547 m 256 1128 q 228 1164 239 1150 q 213 1185 218 1178 q 206 1197 208 1193 q 204 1203 204 1200 q 214 1238 204 1221 q 247 1254 224 1254 q 273 1241 261 1254 q 298 1209 285 1228 q 326 1170 311 1190 q 360 1136 340 1150 q 378 1149 365 1139 q 410 1182 390 1160 q 441 1219 431 1206 q 457 1238 451 1232 q 466 1246 463 1244 q 478 1247 469 1247 q 514 1231 503 1247 q 525 1194 525 1215 q 524 1186 525 1190 q 516 1174 522 1182 q 498 1153 510 1167 q 465 1119 486 1140 q 405 1067 431 1083 q 358 1050 379 1050 q 311 1069 335 1050 q 256 1128 288 1088 z "},"":{"ha":718,"x_min":38,"x_max":676,"o":"m 639 974 q 665 959 654 971 q 676 931 676 947 q 669 747 674 843 q 660 556 664 651 q 652 368 656 460 q 649 197 649 276 q 651 96 649 142 q 660 18 653 50 l 660 11 q 648 -19 660 -6 q 618 -32 636 -32 q 588 -16 599 -32 q 573 27 578 0 q 567 88 568 54 q 565 160 565 122 q 567 322 565 235 q 575 507 569 410 q 476 265 531 374 q 431 182 457 228 q 371 96 404 136 q 300 28 338 56 q 224 1 263 1 q 151 28 185 1 q 92 106 117 54 q 52 233 67 158 q 38 407 38 308 q 56 667 38 532 q 114 943 75 801 q 128 965 117 957 q 154 974 139 974 q 185 961 174 974 q 196 932 196 949 q 194 921 196 924 q 140 663 158 790 q 121 419 121 535 q 128 289 121 350 q 150 183 136 228 q 183 111 164 138 q 224 85 201 85 q 250 95 233 85 q 293 133 267 106 q 385 269 340 185 q 469 459 431 353 q 540 688 508 565 q 593 939 572 811 q 609 964 596 954 q 639 974 622 974 m 379 1313 q 415 1317 397 1317 q 469 1303 444 1317 q 513 1268 494 1290 q 540 1216 531 1246 q 550 1154 550 1186 q 538 1087 550 1118 q 504 1031 526 1056 q 452 993 482 1007 q 386 979 422 979 q 290 1019 329 979 q 250 1132 250 1060 q 285 1248 250 1199 q 379 1313 321 1297 m 461 1121 q 465 1138 464 1129 q 467 1156 467 1146 q 453 1209 467 1185 q 414 1233 440 1233 q 378 1224 393 1233 q 353 1199 363 1214 q 340 1167 344 1185 q 335 1135 335 1150 q 349 1081 335 1099 q 386 1063 364 1063 q 439 1083 422 1063 q 461 1121 456 1104 z "},"":{"ha":718,"x_min":38,"x_max":676,"o":"m 639 974 q 665 959 654 971 q 676 931 676 947 q 669 747 674 843 q 660 556 664 651 q 652 368 656 460 q 649 197 649 276 q 651 96 649 142 q 660 18 653 50 l 660 11 q 648 -19 660 -6 q 618 -32 636 -32 q 588 -16 599 -32 q 573 27 578 0 q 567 88 568 54 q 565 160 565 122 q 567 322 565 235 q 575 507 569 410 q 476 265 531 374 q 431 182 457 228 q 371 96 404 136 q 300 28 338 56 q 224 1 263 1 q 151 28 185 1 q 92 106 117 54 q 52 233 67 158 q 38 407 38 308 q 56 667 38 532 q 114 943 75 801 q 128 965 117 957 q 154 974 139 974 q 185 961 174 974 q 196 932 196 949 q 194 921 196 924 q 140 663 158 790 q 121 419 121 535 q 128 289 121 350 q 150 183 136 228 q 183 111 164 138 q 224 85 201 85 q 250 95 233 85 q 293 133 267 106 q 385 269 340 185 q 469 459 431 353 q 540 688 508 565 q 593 939 572 811 q 609 964 596 954 q 639 974 622 974 m 444 1096 q 468 1118 453 1104 q 499 1149 483 1132 q 528 1185 515 1167 q 549 1219 542 1204 q 586 1244 560 1244 q 617 1232 606 1244 q 629 1204 629 1219 q 620 1170 629 1189 q 597 1133 611 1151 q 565 1097 582 1115 q 535 1065 549 1079 q 510 1042 521 1051 q 500 1033 500 1033 q 471 1024 485 1024 q 442 1035 454 1024 q 431 1065 431 1047 q 444 1096 431 1083 m 268 1096 q 292 1118 276 1104 q 323 1149 307 1132 q 352 1185 339 1167 q 372 1219 365 1204 q 410 1244 383 1244 q 441 1232 429 1244 q 453 1204 453 1219 q 444 1170 453 1189 q 420 1133 435 1151 q 389 1097 406 1115 q 358 1065 372 1079 q 334 1042 344 1051 q 324 1033 324 1033 q 294 1024 308 1024 q 266 1035 278 1024 q 254 1065 254 1047 q 268 1096 254 1083 z "},"":{"ha":626,"x_min":24,"x_max":592,"o":"m 357 553 q 446 481 403 518 q 521 403 489 444 q 572 317 553 363 q 592 221 592 272 q 535 65 592 125 q 376 6 478 6 q 279 22 328 6 q 186 67 231 38 q 143 101 165 81 q 99 148 121 121 q 58 210 76 175 q 25 290 39 246 q 24 301 24 293 q 35 331 24 317 q 64 344 46 344 q 90 336 78 344 q 106 314 101 328 q 158 202 125 246 q 230 133 192 158 q 306 99 268 108 q 375 89 344 89 q 406 91 383 89 q 451 105 428 93 q 492 142 474 117 q 510 215 510 168 q 480 319 510 274 q 405 406 450 365 q 307 485 360 447 q 209 563 254 522 q 134 651 164 604 q 104 757 104 697 q 121 846 104 806 q 165 915 138 886 q 231 958 193 943 q 310 974 268 974 q 476 904 401 974 q 586 717 550 835 q 588 704 588 713 q 576 675 588 688 q 546 663 564 663 q 506 693 515 663 q 424 838 478 785 q 307 890 371 890 q 222 854 257 890 q 188 761 188 818 q 235 656 188 706 q 357 553 283 606 m 339 1096 q 363 1118 347 1104 q 394 1149 378 1132 q 423 1185 410 1167 q 443 1219 436 1204 q 481 1244 454 1244 q 512 1232 500 1244 q 524 1204 524 1219 q 515 1170 524 1189 q 491 1133 506 1151 q 460 1097 476 1115 q 429 1065 443 1079 q 405 1042 415 1051 q 394 1033 394 1033 q 365 1024 379 1024 q 337 1035 349 1024 q 325 1065 325 1047 q 339 1096 325 1083 z "},"":{"ha":628,"x_min":29,"x_max":600,"o":"m 536 147 q 558 154 547 154 q 587 142 574 154 q 600 113 600 131 q 567 67 600 88 q 488 31 535 46 q 390 8 440 17 q 304 0 339 0 q 98 70 167 0 q 29 258 29 140 q 59 403 29 335 q 134 531 89 471 q 232 640 179 590 q 332 731 285 690 q 403 797 376 768 q 433 831 431 826 l 433 829 l 433 831 q 435 833 433 831 q 428 846 435 838 q 399 862 422 854 q 333 876 376 869 q 214 882 289 882 q 123 879 161 882 q 83 876 85 876 l 78 876 q 49 888 61 876 q 38 918 38 900 q 48 945 38 933 q 75 958 58 957 q 117 963 78 960 q 214 965 157 965 q 443 932 369 965 q 517 829 517 899 q 487 766 517 800 q 412 692 457 732 q 315 605 367 651 q 217 505 263 558 q 142 390 172 451 q 113 257 113 328 q 161 125 113 167 q 306 83 210 83 q 430 101 368 83 q 536 147 492 119 m 228 1096 q 251 1118 236 1104 q 283 1149 267 1132 q 312 1185 299 1167 q 332 1219 325 1204 q 369 1244 343 1244 q 401 1232 389 1244 q 413 1204 413 1219 q 403 1170 413 1189 q 380 1133 394 1151 q 349 1097 365 1115 q 318 1065 332 1079 q 294 1042 304 1051 q 283 1033 283 1033 q 254 1024 268 1024 q 226 1035 238 1024 q 214 1065 214 1047 q 228 1096 214 1083 z "},"":{"ha":549,"x_min":26,"x_max":525,"o":"m 458 297 q 525 167 525 247 q 508 100 525 131 q 461 47 490 69 q 393 10 432 24 q 311 -3 354 -3 q 142 55 217 -3 q 29 214 67 113 q 27 222 28 218 q 26 229 26 225 q 38 257 26 244 q 67 269 49 269 q 107 243 96 269 q 148 167 124 197 q 199 117 172 136 q 255 89 226 97 q 310 81 283 81 q 405 106 368 81 q 442 167 442 132 q 433 203 442 188 q 408 231 425 218 q 366 254 392 243 q 306 279 340 265 q 221 316 260 296 q 153 362 182 336 q 109 422 125 388 q 93 501 93 456 q 107 578 93 543 q 144 641 121 614 q 200 683 168 668 q 268 699 232 699 q 375 656 328 699 q 450 536 422 613 q 451 522 451 532 q 440 494 451 507 q 410 481 429 481 q 387 488 399 481 q 371 508 375 496 q 268 614 335 614 q 207 585 236 614 q 178 501 178 556 q 188 451 178 472 q 218 413 199 429 q 267 384 238 397 q 335 357 297 371 q 399 331 367 344 q 458 297 431 317 m 272 818 q 296 840 281 826 q 327 872 311 854 q 356 908 343 889 q 376 942 369 926 q 414 967 388 967 q 445 954 433 967 q 457 926 457 942 q 448 892 457 911 q 424 855 439 874 q 393 819 410 836 q 363 788 376 801 q 338 765 349 774 q 328 756 328 756 q 299 746 313 746 q 270 758 282 746 q 258 788 258 769 q 272 818 258 806 z "},"":{"ha":639,"x_min":39,"x_max":608,"o":"m 549 126 q 565 131 557 131 q 594 119 581 131 q 608 89 608 107 q 576 48 608 65 q 499 19 544 31 q 402 1 453 7 q 313 -4 351 -4 q 204 8 254 -4 q 117 44 154 19 q 60 105 81 68 q 39 190 39 142 q 64 291 39 243 q 127 381 89 339 q 213 459 165 422 q 306 527 260 496 q 389 583 351 558 q 447 629 426 608 q 432 631 440 631 q 408 632 424 632 q 368 631 392 632 q 313 624 344 629 q 236 610 264 615 q 194 601 208 604 q 176 596 179 597 q 171 594 172 594 q 142 606 154 594 q 129 636 129 617 q 137 662 129 650 q 160 676 144 674 q 188 683 160 676 q 258 696 217 689 q 341 709 299 703 q 410 715 383 715 q 479 707 453 715 q 519 686 506 699 q 536 659 532 674 q 540 631 540 644 q 509 578 540 607 q 432 517 478 550 q 331 447 386 485 q 231 369 276 410 q 153 283 185 328 q 122 192 122 239 q 167 109 122 139 q 313 79 213 79 q 438 92 374 79 q 549 126 503 106 m 275 818 q 299 840 283 826 q 330 872 314 854 q 359 908 346 889 q 379 942 372 926 q 417 967 390 967 q 448 954 436 967 q 460 926 460 942 q 450 892 460 911 q 426 855 440 874 q 396 819 413 836 q 365 788 379 801 q 341 765 351 774 q 331 756 331 756 q 301 746 315 746 q 273 758 285 746 q 261 788 261 769 q 275 818 261 806 z "},"":{"ha":639,"x_min":39,"x_max":608,"o":"m 549 126 q 565 131 557 131 q 594 119 581 131 q 608 89 608 107 q 576 48 608 65 q 499 19 544 31 q 402 1 453 7 q 313 -4 351 -4 q 204 8 254 -4 q 117 44 154 19 q 60 105 81 68 q 39 190 39 142 q 64 291 39 243 q 127 381 89 339 q 213 459 165 422 q 306 527 260 496 q 389 583 351 558 q 447 629 426 608 q 432 631 440 631 q 408 632 424 632 q 368 631 392 632 q 313 624 344 629 q 236 610 264 615 q 194 601 208 604 q 176 596 179 597 q 171 594 172 594 q 142 606 154 594 q 129 636 129 617 q 137 662 129 650 q 160 676 144 674 q 188 683 160 676 q 258 696 217 689 q 341 709 299 703 q 410 715 383 715 q 479 707 453 715 q 519 686 506 699 q 536 659 532 674 q 540 631 540 644 q 509 578 540 607 q 432 517 478 550 q 331 447 386 485 q 231 369 276 410 q 153 283 185 328 q 122 192 122 239 q 167 109 122 139 q 313 79 213 79 q 438 92 374 79 q 549 126 503 106 m 319 871 q 360 854 343 871 q 376 814 376 838 q 360 772 376 789 q 319 756 343 756 q 278 772 294 756 q 261 814 261 789 q 278 854 261 838 q 319 871 294 871 z "},"":{"ha":513,"x_min":42,"x_max":504,"o":"m 454 518 q 481 451 471 478 q 497 409 492 425 q 503 386 501 393 q 504 378 504 379 q 492 346 504 360 q 463 332 481 332 q 422 363 432 332 q 417 373 421 363 q 409 400 414 383 q 397 438 404 417 q 381 481 389 458 q 340 564 357 539 q 317 596 324 589 q 292 547 308 583 q 255 442 276 510 q 207 274 233 375 q 150 31 181 172 q 136 8 147 17 q 110 -1 125 -1 q 79 10 90 -1 q 68 40 68 22 q 61 354 68 193 q 42 653 54 515 l 42 657 q 52 685 42 672 q 79 699 63 699 q 108 688 94 699 q 124 660 121 678 q 135 519 129 593 q 143 365 140 444 q 190 513 169 453 q 228 612 210 574 q 267 667 247 650 q 311 685 286 685 q 384 645 350 685 q 454 518 418 606 m 171 818 q 194 840 179 826 q 226 872 210 854 q 255 908 242 889 q 275 942 268 926 q 313 967 286 967 q 344 954 332 967 q 356 926 356 942 q 346 892 356 911 q 322 855 336 874 q 292 819 308 836 q 261 788 275 801 q 237 765 247 774 q 226 756 226 756 q 197 746 211 746 q 169 758 181 746 q 157 788 157 769 q 171 818 157 806 z "},"":{"ha":542,"x_min":25,"x_max":490,"o":"m 358 681 q 458 548 425 650 q 490 264 490 446 q 488 160 490 215 q 481 44 485 106 q 467 17 479 28 q 439 6 456 6 q 409 18 421 6 q 397 47 397 31 q 399 77 397 63 q 401 107 400 92 q 291 31 349 57 q 181 4 233 4 q 67 48 108 4 q 25 163 25 92 q 50 244 25 208 q 118 305 75 281 q 220 342 161 329 q 347 356 279 356 q 375 356 361 356 q 404 354 389 356 q 385 494 399 443 q 358 572 372 546 q 328 603 343 597 q 307 610 314 610 q 227 582 275 610 q 119 494 179 554 q 89 482 107 482 q 60 494 72 482 q 47 524 47 507 q 60 553 47 540 q 190 658 132 624 q 301 693 249 693 q 358 681 331 693 m 400 235 q 406 260 406 247 q 398 268 406 265 q 380 272 390 271 q 358 273 369 274 q 342 272 347 272 q 252 265 294 272 q 178 243 210 257 q 127 209 146 229 q 108 163 108 189 q 126 107 108 126 q 181 88 144 88 q 220 92 197 88 q 272 111 243 96 q 333 156 300 126 q 400 235 365 185 m 401 967 q 431 954 418 967 q 443 925 443 942 q 394 804 443 847 q 260 761 344 761 q 178 778 210 761 q 128 820 146 796 q 103 871 110 844 q 97 915 97 897 q 109 945 97 933 q 139 957 121 957 q 173 940 168 957 q 181 901 178 922 q 198 862 185 879 q 258 844 211 844 q 360 925 360 844 q 372 954 360 942 q 401 967 383 967 z "},"":{"ha":174,"x_min":25,"x_max":242,"o":"m 94 1044 q 133 1014 125 1044 q 142 938 142 983 q 140 724 142 847 q 133 472 138 600 q 123 227 129 343 q 108 36 117 111 q 94 10 106 21 q 67 -1 82 -1 q 37 11 49 -1 q 25 39 25 24 l 25 44 q 38 206 32 108 q 47 415 43 304 q 54 640 51 526 q 57 846 57 753 q 56 931 57 892 q 54 1001 54 971 q 65 1031 54 1018 q 94 1044 75 1043 m 57 1174 q 81 1196 65 1182 q 112 1227 96 1210 q 141 1263 128 1244 q 161 1297 154 1282 q 199 1322 172 1322 q 230 1310 218 1322 q 242 1282 242 1297 q 233 1249 242 1267 q 209 1211 224 1231 q 178 1174 194 1192 q 147 1143 161 1157 q 123 1120 133 1129 q 113 1111 113 1111 q 83 1101 97 1101 q 55 1113 67 1101 q 43 1143 43 1125 q 57 1174 43 1161 z "},"":{"ha":588,"x_min":33,"x_max":569,"o":"m 546 357 q 569 319 569 346 q 565 301 569 310 q 404 70 490 142 q 247 -1 318 -1 q 160 23 199 -1 q 92 90 121 47 q 49 194 64 133 q 33 325 33 254 q 49 468 33 401 q 91 583 64 535 q 155 658 118 631 q 233 686 192 686 q 349 619 299 686 q 424 425 399 551 q 424 420 424 422 q 425 415 425 418 q 413 387 425 399 q 382 375 400 375 q 356 384 367 375 q 343 408 346 393 q 291 557 322 511 q 232 603 260 603 q 188 580 208 603 q 151 519 167 557 q 126 430 135 481 q 117 325 117 379 q 126 228 117 272 q 153 151 136 183 q 194 100 171 118 q 247 82 218 82 q 370 150 306 82 q 490 338 435 218 q 528 361 501 361 q 546 357 538 361 m 208 818 q 232 840 217 826 q 263 872 247 854 q 292 908 279 889 q 313 942 306 926 q 350 967 324 967 q 381 954 369 967 q 393 926 393 942 q 384 892 393 911 q 360 855 375 874 q 329 819 346 836 q 299 788 313 801 q 274 765 285 774 q 264 756 264 756 q 235 746 249 746 q 206 758 218 746 q 194 788 194 769 q 208 818 194 806 z "},"":{"ha":588,"x_min":33,"x_max":569,"o":"m 546 357 q 569 319 569 346 q 565 301 569 310 q 404 70 490 142 q 247 -1 318 -1 q 160 23 199 -1 q 92 90 121 47 q 49 194 64 133 q 33 325 33 254 q 49 468 33 401 q 91 583 64 535 q 155 658 118 631 q 233 686 192 686 q 349 619 299 686 q 424 425 399 551 q 424 420 424 422 q 425 415 425 418 q 413 387 425 399 q 382 375 400 375 q 356 384 367 375 q 343 408 346 393 q 291 557 322 511 q 232 603 260 603 q 188 580 208 603 q 151 519 167 557 q 126 430 135 481 q 117 325 117 379 q 126 228 117 272 q 153 151 136 183 q 194 100 171 118 q 247 82 218 82 q 370 150 306 82 q 490 338 435 218 q 528 361 501 361 q 546 357 538 361 m 142 850 q 115 886 125 872 q 99 908 104 900 q 92 919 94 915 q 90 925 90 922 q 100 960 90 943 q 133 976 110 976 q 159 963 147 976 q 184 931 171 950 q 212 892 197 913 q 246 858 226 872 q 264 872 251 861 q 296 904 276 882 q 327 941 317 928 q 343 960 338 954 q 352 968 349 967 q 364 969 356 969 q 400 953 389 969 q 411 917 411 938 q 410 908 411 913 q 402 897 408 904 q 384 876 396 889 q 351 842 372 863 q 291 789 317 806 q 244 772 265 772 q 197 791 221 772 q 142 850 174 810 z "},"":{"ha":656,"x_min":28,"x_max":636,"o":"m 614 368 q 636 332 636 354 q 631 313 636 324 q 540 172 586 231 q 447 75 493 114 q 359 18 401 36 q 281 0 317 0 q 154 54 207 0 q 81 207 101 108 q 43 216 58 207 q 28 249 28 225 q 40 278 28 265 q 68 290 51 290 q 66 316 67 303 q 65 342 65 329 q 85 484 65 418 q 138 597 104 550 q 220 672 172 644 q 325 699 268 699 q 414 658 381 699 q 447 556 447 618 q 424 444 447 499 q 363 343 401 389 q 272 264 324 297 q 164 218 221 231 q 209 119 179 156 q 281 83 239 83 q 336 97 306 83 q 403 143 367 111 q 478 226 439 175 q 558 353 517 278 q 593 374 569 374 q 614 368 600 374 m 150 301 q 254 351 213 318 q 320 422 296 385 q 354 497 344 460 q 364 556 364 533 q 356 598 364 581 q 325 615 347 615 q 254 595 286 615 q 199 538 222 575 q 162 451 175 501 q 149 343 149 401 q 149 322 149 332 q 150 301 150 311 m 218 850 q 191 886 201 872 q 176 908 181 900 q 169 919 171 915 q 167 925 167 922 q 176 960 167 943 q 210 976 186 976 q 235 963 224 976 q 260 931 247 950 q 288 892 274 913 q 322 858 303 872 q 340 872 328 861 q 372 904 353 882 q 403 941 393 928 q 419 960 414 954 q 428 968 425 967 q 440 969 432 969 q 476 953 465 969 q 488 917 488 938 q 486 908 488 913 q 478 897 485 904 q 460 876 472 889 q 428 842 449 863 q 367 789 393 806 q 321 772 342 772 q 274 791 297 772 q 218 850 250 810 z "},"":{"ha":589,"x_min":42,"x_max":550,"o":"m 497 632 q 538 541 525 601 q 550 372 550 481 q 547 230 550 311 q 536 38 543 149 q 523 10 535 21 q 494 -1 511 -1 q 464 12 475 -1 q 453 43 453 25 q 463 232 460 151 q 467 372 467 313 q 462 488 467 446 q 450 550 457 529 q 436 576 443 571 q 426 581 429 581 q 408 571 424 581 q 369 542 392 561 q 318 494 346 522 q 265 428 290 465 q 225 363 247 401 q 182 275 203 325 q 146 165 161 225 q 126 38 131 106 q 113 10 125 21 q 83 -1 100 -1 q 48 21 54 -1 q 42 69 42 43 q 45 228 42 144 q 55 393 49 311 q 70 551 61 475 q 92 685 79 626 q 106 709 94 700 q 133 718 118 718 q 163 706 151 718 q 175 679 175 694 q 174 674 175 676 q 174 669 174 672 q 153 536 163 611 q 138 378 144 461 q 206 490 168 438 q 283 581 244 543 q 360 642 322 619 q 425 664 397 664 q 497 632 468 664 m 292 818 q 315 840 300 826 q 347 872 331 854 q 376 908 363 889 q 396 942 389 926 q 433 967 407 967 q 465 954 453 967 q 476 926 476 942 q 467 892 476 911 q 443 855 457 874 q 413 819 429 836 q 382 788 396 801 q 358 765 368 774 q 347 756 347 756 q 318 746 332 746 q 290 758 301 746 q 278 788 278 769 q 292 818 278 806 z "},"":{"ha":589,"x_min":42,"x_max":550,"o":"m 497 632 q 538 541 525 601 q 550 372 550 481 q 547 230 550 311 q 536 38 543 149 q 523 10 535 21 q 494 -1 511 -1 q 464 12 475 -1 q 453 43 453 25 q 463 232 460 151 q 467 372 467 313 q 462 488 467 446 q 450 550 457 529 q 436 576 443 571 q 426 581 429 581 q 408 571 424 581 q 369 542 392 561 q 318 494 346 522 q 265 428 290 465 q 225 363 247 401 q 182 275 203 325 q 146 165 161 225 q 126 38 131 106 q 113 10 125 21 q 83 -1 100 -1 q 48 21 54 -1 q 42 69 42 43 q 45 228 42 144 q 55 393 49 311 q 70 551 61 475 q 92 685 79 626 q 106 709 94 700 q 133 718 118 718 q 163 706 151 718 q 175 679 175 694 q 174 674 175 676 q 174 669 174 672 q 153 536 163 611 q 138 378 144 461 q 206 490 168 438 q 283 581 244 543 q 360 642 322 619 q 425 664 397 664 q 497 632 468 664 m 268 850 q 241 886 251 872 q 226 908 231 900 q 219 919 221 915 q 217 925 217 922 q 226 960 217 943 q 260 976 236 976 q 285 963 274 976 q 310 931 297 950 q 338 892 324 913 q 372 858 353 872 q 390 872 378 861 q 422 904 403 882 q 453 941 443 928 q 469 960 464 954 q 478 968 475 967 q 490 969 482 969 q 526 953 515 969 q 538 917 538 938 q 536 908 538 913 q 528 897 535 904 q 510 876 522 889 q 478 842 499 863 q 417 789 443 806 q 371 772 392 772 q 324 791 347 772 q 268 850 300 810 z "},"":{"ha":543,"x_min":31,"x_max":515,"o":"m 318 578 q 398 547 361 571 q 460 488 435 524 q 501 405 486 451 q 515 307 515 358 q 495 184 515 240 q 438 88 475 128 q 349 24 400 47 q 235 1 297 1 q 149 21 186 1 q 85 76 111 40 q 44 160 58 111 q 31 269 31 210 q 53 426 31 350 q 113 560 75 501 q 202 653 151 618 q 310 689 253 689 q 339 677 326 689 q 351 647 351 665 q 339 618 351 631 q 310 606 326 606 q 263 595 285 606 q 225 569 242 585 q 195 535 208 553 q 174 503 182 517 q 130 391 146 453 q 114 269 114 329 q 144 135 114 185 q 235 85 175 85 q 328 106 290 85 q 388 160 365 128 q 422 232 411 193 q 432 307 432 271 q 426 366 432 335 q 405 424 419 397 q 367 471 390 451 q 307 496 343 490 q 281 510 290 499 q 271 538 271 521 q 284 567 271 556 q 313 578 297 578 l 318 578 m 329 818 q 353 840 338 826 q 384 872 368 854 q 413 908 400 889 q 433 942 426 926 q 471 967 444 967 q 502 954 490 967 q 514 926 514 942 q 504 892 514 911 q 481 855 494 874 q 450 819 467 836 q 419 788 433 801 q 395 765 406 774 q 385 756 385 756 q 356 746 369 746 q 327 758 339 746 q 315 788 315 769 q 329 818 315 806 m 153 818 q 176 840 161 826 q 208 872 192 854 q 237 908 224 889 q 257 942 250 926 q 294 967 268 967 q 326 954 314 967 q 338 926 338 942 q 328 892 338 911 q 305 855 319 874 q 274 819 290 836 q 243 788 257 801 q 219 765 229 774 q 208 756 208 756 q 179 746 193 746 q 151 758 163 746 q 139 788 139 769 q 153 818 139 806 z "},"":{"ha":513,"x_min":42,"x_max":504,"o":"m 454 518 q 481 451 471 478 q 497 409 492 425 q 503 386 501 393 q 504 378 504 379 q 492 346 504 360 q 463 332 481 332 q 422 363 432 332 q 417 373 421 363 q 409 400 414 383 q 397 438 404 417 q 381 481 389 458 q 340 564 357 539 q 317 596 324 589 q 292 547 308 583 q 255 442 276 510 q 207 274 233 375 q 150 31 181 172 q 136 8 147 17 q 110 -1 125 -1 q 79 10 90 -1 q 68 40 68 22 q 61 354 68 193 q 42 653 54 515 l 42 657 q 52 685 42 672 q 79 699 63 699 q 108 688 94 699 q 124 660 121 678 q 135 519 129 593 q 143 365 140 444 q 190 513 169 453 q 228 612 210 574 q 267 667 247 650 q 311 685 286 685 q 384 645 350 685 q 454 518 418 606 m 146 850 q 119 886 129 872 q 103 908 108 900 q 97 919 99 915 q 94 925 94 922 q 104 960 94 943 q 138 976 114 976 q 163 963 151 976 q 188 931 175 950 q 216 892 201 913 q 250 858 231 872 q 268 872 256 861 q 300 904 281 882 q 331 941 321 928 q 347 960 342 954 q 356 968 353 967 q 368 969 360 969 q 404 953 393 969 q 415 917 415 938 q 414 908 415 913 q 406 897 413 904 q 388 876 400 889 q 356 842 376 863 q 295 789 321 806 q 249 772 269 772 q 201 791 225 772 q 146 850 178 810 z "},"":{"ha":593,"x_min":38,"x_max":550,"o":"m 513 676 q 545 650 540 672 q 550 597 550 628 q 545 429 550 522 q 534 249 540 336 q 521 90 528 161 q 508 -12 514 19 q 494 -37 506 -28 q 467 -47 482 -47 q 436 -35 447 -47 q 425 -4 425 -22 q 428 45 425 13 q 437 122 432 78 q 447 219 442 167 q 456 328 453 272 q 324 90 393 169 q 192 11 256 11 q 81 98 125 11 q 38 342 38 185 q 71 643 38 481 q 85 667 74 658 q 111 675 96 675 q 142 663 131 675 q 153 635 153 650 l 153 626 q 121 340 121 467 q 132 195 121 246 q 157 122 143 144 q 182 97 171 100 q 192 94 193 94 q 251 137 215 94 q 326 253 288 179 q 402 427 365 326 q 467 644 439 528 q 483 668 469 660 q 513 676 497 676 m 275 1035 q 311 1039 293 1039 q 365 1026 340 1039 q 408 990 390 1013 q 436 938 426 968 q 446 876 446 908 q 434 809 446 840 q 400 753 422 778 q 348 715 378 729 q 282 701 318 701 q 185 742 225 701 q 146 854 146 782 q 181 970 146 921 q 275 1035 217 1019 m 357 843 q 361 860 360 851 q 363 878 363 868 q 349 931 363 907 q 310 956 336 956 q 274 946 289 956 q 249 922 258 936 q 235 890 240 907 q 231 857 231 872 q 245 803 231 821 q 282 785 260 785 q 335 806 318 785 q 357 843 351 826 z "},"":{"ha":593,"x_min":38,"x_max":550,"o":"m 513 676 q 545 650 540 672 q 550 597 550 628 q 545 429 550 522 q 534 249 540 336 q 521 90 528 161 q 508 -12 514 19 q 494 -37 506 -28 q 467 -47 482 -47 q 436 -35 447 -47 q 425 -4 425 -22 q 428 45 425 13 q 437 122 432 78 q 447 219 442 167 q 456 328 453 272 q 324 90 393 169 q 192 11 256 11 q 81 98 125 11 q 38 342 38 185 q 71 643 38 481 q 85 667 74 658 q 111 675 96 675 q 142 663 131 675 q 153 635 153 650 l 153 626 q 121 340 121 467 q 132 195 121 246 q 157 122 143 144 q 182 97 171 100 q 192 94 193 94 q 251 137 215 94 q 326 253 288 179 q 402 427 365 326 q 467 644 439 528 q 483 668 469 660 q 513 676 497 676 m 354 818 q 378 840 363 826 q 409 872 393 854 q 438 908 425 889 q 458 942 451 926 q 496 967 469 967 q 527 954 515 967 q 539 926 539 942 q 529 892 539 911 q 506 855 519 874 q 475 819 492 836 q 444 788 458 801 q 420 765 431 774 q 410 756 410 756 q 381 746 394 746 q 352 758 364 746 q 340 788 340 769 q 354 818 340 806 m 178 818 q 201 840 186 826 q 233 872 217 854 q 262 908 249 889 q 282 942 275 926 q 319 967 293 967 q 351 954 339 967 q 363 926 363 942 q 353 892 363 911 q 330 855 344 874 q 299 819 315 836 q 268 788 282 801 q 244 765 254 774 q 233 756 233 756 q 204 746 218 746 q 176 758 188 746 q 164 788 164 769 q 178 818 164 806 z "},"":{"ha":1128,"x_min":21,"x_max":1111,"o":"m 1061 129 q 1066 130 1064 129 q 1071 131 1068 131 q 1099 118 1088 131 q 1111 88 1111 106 q 1102 63 1111 74 q 1078 49 1093 51 q 1037 41 1076 49 q 942 25 997 33 q 826 10 886 17 q 722 3 765 3 q 630 15 661 3 q 589 56 599 28 q 586 71 589 57 q 580 118 583 85 q 572 208 576 151 q 567 353 568 265 q 474 336 524 344 q 374 319 425 328 q 272 301 322 311 q 175 279 221 292 q 173 231 174 256 q 172 178 172 206 q 174 124 172 151 q 175 67 175 96 q 168 19 175 39 q 133 0 161 0 q 108 3 117 0 q 94 20 99 7 q 90 60 90 33 q 89 135 89 88 q 90 189 89 158 q 90 253 90 219 q 76 247 83 250 q 63 244 69 244 q 33 257 46 244 q 21 286 21 269 q 28 309 21 300 q 45 324 35 318 q 69 333 56 329 q 93 342 82 338 q 123 617 103 497 q 176 819 143 738 q 258 944 210 901 q 371 986 306 986 q 569 793 497 986 q 576 849 572 836 q 582 868 579 863 q 694 941 606 915 q 939 967 782 967 q 964 967 950 967 q 990 963 978 967 q 1011 952 1003 960 q 1019 928 1019 944 q 1009 899 1019 911 q 981 883 999 886 l 939 883 q 799 876 853 883 q 713 860 744 869 q 670 843 682 851 q 657 833 658 835 q 652 768 657 831 q 647 564 647 706 q 648 532 647 549 q 649 499 649 515 q 731 503 685 500 q 825 511 778 507 q 916 519 872 515 q 993 529 960 524 l 1000 529 q 1028 518 1015 529 q 1042 490 1042 507 q 1032 463 1042 475 q 1007 447 1022 450 q 926 437 972 442 q 831 428 879 432 q 734 420 782 424 q 649 415 686 417 q 656 204 651 289 q 665 92 660 119 q 683 88 671 89 q 721 86 696 86 q 767 90 736 86 q 837 97 799 93 q 915 108 875 101 q 989 118 956 114 q 1042 126 1022 122 q 1061 129 1063 129 m 558 438 q 529 633 547 546 q 487 779 511 719 q 434 871 463 839 q 372 903 406 903 q 303 871 332 903 q 268 820 288 854 q 231 727 249 786 q 199 580 214 668 q 178 365 185 492 q 310 394 242 382 q 442 417 378 406 l 558 438 z "},"":{"ha":996,"x_min":25,"x_max":975,"o":"m 953 368 q 975 332 975 354 q 969 313 975 324 q 878 172 925 231 q 786 75 832 114 q 698 18 740 36 q 619 0 656 0 q 510 39 557 0 q 436 149 463 78 q 382 95 413 121 q 317 49 351 69 q 248 17 283 29 q 181 4 213 4 q 67 48 108 4 q 25 163 25 92 q 50 244 25 208 q 118 305 75 281 q 220 342 161 329 q 347 356 279 356 q 375 356 361 356 q 404 354 389 356 q 385 494 399 443 q 358 572 372 546 q 328 603 343 597 q 307 610 314 610 q 227 582 275 610 q 119 494 179 554 q 89 482 107 482 q 60 494 72 482 q 47 524 47 507 q 60 553 47 540 q 190 658 132 624 q 301 693 249 693 q 392 659 353 693 q 453 558 431 625 q 542 661 488 624 q 664 699 596 699 q 753 658 719 699 q 786 556 786 618 q 763 444 786 499 q 701 343 740 389 q 611 264 663 297 q 503 218 560 231 q 548 119 518 156 q 619 83 578 83 q 675 97 644 83 q 742 143 706 111 q 817 226 778 175 q 897 353 856 278 q 932 374 908 374 q 953 368 939 374 m 490 301 q 594 351 553 318 q 659 423 635 385 q 693 497 683 461 q 703 556 703 533 q 694 598 703 581 q 664 615 686 615 q 594 596 626 615 q 540 542 563 576 q 503 461 517 508 q 488 358 489 414 l 490 301 m 400 235 q 406 260 406 247 q 392 270 406 268 q 365 272 379 272 q 269 266 315 272 q 187 246 222 260 q 130 212 151 232 q 108 163 108 192 q 126 107 108 126 q 181 88 144 88 q 220 92 197 88 q 272 111 243 96 q 333 156 300 126 q 400 235 365 185 z "},"":{"ha":1092,"x_min":33,"x_max":1078,"o":"m 1028 129 q 1033 130 1031 129 q 1038 131 1035 131 q 1066 118 1054 131 q 1078 88 1078 106 q 1069 63 1078 74 q 1044 49 1060 51 q 1003 41 1043 49 q 908 25 964 33 q 792 10 853 17 q 689 3 732 3 q 620 7 646 3 q 579 23 594 11 q 558 55 564 35 q 547 107 551 75 q 449 28 503 56 q 332 0 394 0 q 208 35 264 0 q 114 135 153 71 q 54 287 75 199 q 33 479 33 375 q 60 669 33 581 q 131 824 86 758 q 237 927 176 889 q 365 965 297 965 q 467 940 421 965 q 549 867 514 914 l 549 868 q 660 941 572 915 q 906 967 749 967 q 931 967 917 967 q 957 963 944 967 q 978 952 969 960 q 986 928 986 944 q 976 899 986 911 q 947 883 965 886 l 906 883 q 765 876 819 883 q 680 860 711 869 q 637 843 649 851 q 624 833 625 835 q 619 768 624 831 q 614 564 614 706 q 615 532 614 549 q 615 499 615 515 q 698 503 651 500 q 792 511 744 507 q 883 519 839 515 q 960 529 926 524 l 967 529 q 995 518 982 529 q 1008 490 1008 507 q 999 463 1008 475 q 974 447 989 450 q 892 437 939 442 q 797 428 846 432 q 701 420 749 424 q 615 415 653 417 q 622 204 618 289 q 632 92 626 119 q 650 88 638 89 q 688 86 663 86 q 733 90 701 86 q 803 97 765 93 q 882 108 842 101 q 956 118 922 114 q 1009 126 989 122 q 1028 129 1029 129 m 332 83 q 436 121 381 83 q 538 238 492 158 q 534 315 535 274 q 532 411 533 357 q 504 423 517 411 q 492 451 492 435 q 503 481 492 468 q 532 494 514 493 q 531 531 532 514 q 531 567 531 549 q 531 632 531 603 q 532 686 531 661 q 473 830 517 778 q 367 882 429 882 q 269 849 314 882 q 190 762 224 817 q 136 634 156 707 q 117 482 117 561 q 133 320 117 393 q 176 194 149 247 q 244 113 204 142 q 332 83 283 83 z "},"":{"ha":289,"x_min":39,"x_max":268,"o":"m 128 -56 q 228 -97 188 -58 q 268 -197 268 -136 q 224 -303 268 -262 q 115 -343 179 -343 q 68 -335 88 -343 q 49 -299 49 -326 q 62 -269 49 -281 q 90 -258 75 -258 q 103 -259 97 -258 q 115 -260 110 -260 q 167 -242 147 -260 q 186 -196 186 -225 q 169 -155 186 -171 q 122 -139 151 -139 q 102 -142 113 -139 q 81 -144 92 -144 q 52 -133 65 -144 q 39 -103 39 -121 l 54 38 q 68 65 57 54 q 94 75 79 75 q 126 63 114 75 q 138 33 138 50 l 128 -56 l 128 -56 z "},"":{"ha":332,"x_min":32,"x_max":304,"o":"m 293 -226 q 304 -254 304 -240 q 265 -304 304 -282 q 167 -326 225 -326 q 70 -291 108 -326 q 32 -196 32 -256 q 96 -33 32 -125 q 151 37 125 8 q 179 67 178 65 q 208 79 192 79 q 238 67 225 79 q 250 38 250 56 q 238 8 250 18 q 218 -13 238 10 q 176 -69 199 -36 q 134 -137 153 -101 q 115 -196 115 -172 q 129 -232 115 -219 q 165 -244 143 -244 q 203 -240 189 -244 q 228 -229 218 -235 q 245 -219 238 -224 q 263 -214 253 -214 q 293 -226 281 -214 z "},"":{"ha":713,"x_min":35,"x_max":694,"o":"m 249 -6 q 90 106 144 -6 q 35 417 35 218 q 56 634 35 533 q 116 809 78 735 q 206 926 154 883 q 319 969 258 969 q 384 953 350 969 q 450 899 418 936 q 510 805 482 863 q 557 665 538 747 l 557 657 q 546 628 557 642 q 517 614 535 614 q 490 623 501 614 q 475 647 478 632 q 408 823 450 760 q 317 886 365 886 q 241 848 276 886 q 178 745 206 810 q 134 595 150 681 q 118 417 118 510 q 127 278 118 340 q 153 171 136 215 q 193 102 169 126 q 247 78 217 78 q 324 104 282 78 q 414 180 367 131 q 513 300 461 229 q 617 461 564 371 q 653 482 626 482 q 683 469 672 482 q 694 440 694 456 q 689 419 694 431 q 506 157 593 258 q 339 17 418 56 l 331 -56 q 431 -97 390 -58 q 471 -197 471 -136 q 426 -303 471 -262 q 318 -343 382 -343 q 271 -335 290 -343 q 251 -299 251 -326 q 265 -269 251 -281 q 293 -258 278 -258 q 306 -259 300 -258 q 318 -260 313 -260 q 369 -242 350 -260 q 389 -196 389 -225 q 372 -155 389 -171 q 325 -139 354 -139 q 305 -142 315 -139 q 283 -144 294 -144 q 255 -133 268 -144 q 242 -103 242 -121 l 251 -6 l 249 -6 l 249 -6 z "},"":{"ha":588,"x_min":33,"x_max":569,"o":"m 268 -56 q 368 -97 328 -58 q 408 -197 408 -136 q 364 -303 408 -262 q 256 -343 319 -343 q 208 -335 228 -343 q 189 -299 189 -326 q 202 -269 189 -281 q 231 -258 215 -258 q 244 -259 238 -258 q 256 -260 250 -260 q 307 -242 288 -260 q 326 -196 326 -225 q 309 -155 326 -171 q 263 -139 292 -139 q 242 -142 253 -139 q 221 -144 232 -144 q 192 -133 206 -144 q 179 -103 179 -121 l 190 8 q 76 119 118 33 q 33 325 33 204 q 49 468 33 401 q 91 583 64 535 q 155 658 118 631 q 233 686 192 686 q 349 619 299 686 q 424 425 399 551 q 424 420 424 422 q 425 415 425 418 q 413 387 425 399 q 382 375 400 375 q 356 384 367 375 q 343 408 346 393 q 291 557 322 511 q 232 603 260 603 q 188 580 208 603 q 151 519 167 557 q 126 430 135 481 q 117 325 117 379 q 126 228 117 272 q 153 151 136 183 q 194 100 171 118 q 247 82 218 82 q 370 150 306 82 q 490 338 435 218 q 528 361 501 361 q 558 348 547 361 q 569 319 569 335 q 565 301 569 310 q 419 85 497 157 q 274 1 342 13 l 268 -56 l 268 -56 z "},"":{"ha":542,"x_min":25,"x_max":517,"o":"m 506 -226 q 517 -254 517 -240 q 477 -304 517 -282 q 379 -326 438 -326 q 283 -291 321 -326 q 244 -196 244 -256 q 308 -33 244 -125 q 364 37 338 8 q 392 67 390 65 l 397 72 l 401 107 q 291 31 349 57 q 181 4 233 4 q 67 48 108 4 q 25 163 25 92 q 50 244 25 208 q 118 305 75 281 q 220 342 161 329 q 347 356 279 356 q 375 356 361 356 q 404 354 389 356 q 385 494 399 443 q 358 572 372 546 q 328 603 343 597 q 307 610 314 610 q 227 582 275 610 q 119 494 179 554 q 89 482 107 482 q 60 494 72 482 q 47 524 47 507 q 60 553 47 540 q 190 658 132 624 q 301 693 249 693 q 490 264 490 693 q 488 160 490 215 q 481 44 485 106 q 447 6 478 13 q 422 -22 442 1 q 382 -77 403 -46 q 344 -141 361 -108 q 328 -196 328 -174 q 342 -232 328 -219 q 378 -244 356 -244 q 416 -240 401 -244 q 440 -229 431 -235 q 458 -219 450 -224 q 475 -214 465 -214 q 506 -226 493 -214 m 400 235 q 406 260 406 247 q 398 268 406 265 q 380 272 390 271 q 358 273 369 274 q 342 272 347 272 q 252 265 294 272 q 178 243 210 257 q 127 209 146 229 q 108 163 108 189 q 126 107 108 126 q 181 88 144 88 q 220 92 197 88 q 272 111 243 96 q 333 156 300 126 q 400 235 365 185 z "},"":{"ha":801,"x_min":21,"x_max":785,"o":"m 704 -199 q 715 -226 715 -212 q 676 -276 715 -254 q 578 -299 636 -299 q 481 -263 519 -299 q 443 -168 443 -228 q 455 -108 443 -142 q 486 -42 467 -75 q 528 23 506 -8 q 575 78 551 54 l 575 81 q 574 194 575 121 q 565 354 572 267 q 374 319 478 336 q 175 279 269 303 q 173 231 174 256 q 172 178 172 206 q 174 124 172 151 q 175 67 175 96 q 168 19 175 39 q 133 0 161 0 q 108 3 117 0 q 94 20 99 7 q 90 60 90 33 q 89 135 89 88 q 90 189 89 158 q 90 253 90 219 q 76 247 83 250 q 63 244 69 244 q 33 257 46 244 q 21 286 21 269 q 28 309 21 300 q 45 324 35 318 q 69 333 56 329 q 93 342 82 338 q 123 617 103 497 q 176 819 143 738 q 258 944 210 901 q 371 986 306 986 q 542 858 475 986 q 640 454 608 729 q 705 477 678 465 q 743 489 732 489 q 772 478 758 489 q 785 447 785 467 q 744 400 785 417 q 647 371 704 383 q 656 213 654 285 q 658 96 658 140 l 658 81 q 660 73 660 76 q 661 65 661 69 q 651 15 661 29 q 617 0 640 0 q 587 -40 603 -17 q 558 -85 571 -62 q 535 -130 544 -108 q 526 -168 526 -151 q 540 -204 526 -192 q 576 -217 554 -217 q 615 -212 600 -217 q 639 -201 629 -207 q 656 -191 649 -196 q 674 -186 664 -186 q 704 -199 692 -186 m 558 438 q 529 633 547 546 q 487 779 511 719 q 434 871 463 839 q 372 903 406 903 q 303 871 332 903 q 268 820 288 854 q 231 727 249 786 q 199 580 214 668 q 178 365 185 492 q 310 394 242 382 q 442 417 378 406 l 558 438 z "},"":{"ha":635,"x_min":33,"x_max":619,"o":"m 608 -199 q 619 -226 619 -212 q 580 -276 619 -254 q 482 -299 540 -299 q 385 -263 424 -299 q 347 -168 347 -228 q 411 -6 347 -97 l 431 22 q 324 8 378 14 q 231 3 269 3 q 138 15 169 3 q 97 56 107 28 q 94 73 97 57 q 87 128 90 89 q 79 236 83 168 q 74 411 75 304 q 46 423 58 411 q 33 451 33 435 q 44 481 33 468 q 74 494 56 493 q 73 531 74 514 q 72 567 72 549 q 74 723 72 665 q 80 812 76 781 q 86 853 83 843 q 90 868 89 864 q 202 941 114 915 q 447 967 290 967 q 472 967 458 967 q 499 963 486 967 q 519 952 511 960 q 528 928 528 944 q 517 899 528 911 q 489 883 507 886 l 447 883 q 307 876 361 883 q 222 860 253 869 q 178 843 190 851 q 165 833 167 835 q 160 768 165 831 q 156 564 156 706 q 156 532 156 549 q 157 499 157 515 q 240 503 193 500 q 333 511 286 507 q 424 519 381 515 q 501 529 468 524 l 508 529 q 537 518 524 529 q 550 490 550 507 q 540 463 550 475 q 515 447 531 450 q 434 437 481 442 q 339 428 388 432 q 242 420 290 424 q 157 415 194 417 q 164 204 160 289 q 174 92 168 119 q 192 88 179 89 q 229 86 204 86 q 275 90 243 86 q 345 97 307 93 q 424 108 383 101 q 497 118 464 114 q 551 126 531 122 q 569 129 571 129 q 574 130 572 129 q 579 131 576 131 q 608 118 596 131 q 619 88 619 106 q 603 56 619 64 q 558 43 588 49 l 553 36 q 533 15 553 38 q 491 -41 514 -8 q 449 -109 468 -74 q 431 -168 431 -144 q 444 -204 431 -192 q 481 -217 458 -217 q 519 -212 504 -217 q 543 -201 533 -207 q 560 -191 553 -196 q 578 -186 568 -186 q 608 -199 596 -186 z "},"":{"ha":656,"x_min":28,"x_max":636,"o":"m 481 -181 q 492 -208 492 -194 q 452 -258 492 -236 q 354 -281 413 -281 q 258 -245 296 -281 q 219 -150 219 -210 q 275 0 219 -83 q 152 57 204 3 q 81 207 100 111 q 43 216 58 207 q 28 249 28 225 q 40 278 28 265 q 68 290 51 290 q 66 316 67 303 q 65 342 65 329 q 85 484 65 418 q 138 597 104 550 q 220 672 172 644 q 325 699 268 699 q 414 658 381 699 q 447 556 447 618 q 424 444 447 499 q 363 343 401 389 q 272 264 324 297 q 164 218 221 231 q 209 119 179 156 q 281 83 239 83 q 336 97 306 83 q 403 143 367 111 q 478 226 439 175 q 558 353 517 278 q 593 374 569 374 q 624 360 611 374 q 636 332 636 347 q 631 313 636 324 q 531 162 582 224 q 432 63 481 100 q 428 58 429 60 q 425 54 428 56 q 406 33 425 56 q 363 -23 386 10 q 322 -91 340 -56 q 303 -150 303 -126 q 317 -186 303 -174 q 353 -199 331 -199 q 391 -194 376 -199 q 415 -183 406 -189 q 433 -173 425 -178 q 450 -168 440 -168 q 481 -181 468 -168 m 150 301 q 254 351 213 318 q 320 422 296 385 q 354 497 344 460 q 364 556 364 533 q 356 598 364 581 q 325 615 347 615 q 254 595 286 615 q 199 538 222 575 q 162 451 175 501 q 149 343 149 401 q 149 322 149 332 q 150 301 150 311 z "},",":{"ha":207,"x_min":35,"x_max":183,"o":"m 100 154 q 162 101 140 138 q 183 15 183 64 q 171 -61 183 -24 q 155 -97 165 -76 q 132 -135 144 -117 q 105 -165 119 -153 q 76 -176 90 -176 q 46 -163 57 -176 q 35 -135 35 -150 q 46 -106 35 -117 q 88 -44 75 -76 q 100 14 100 -12 q 91 52 100 39 q 71 74 82 65 q 51 92 60 83 q 42 117 42 100 q 55 147 42 135 q 83 158 68 158 q 100 154 92 158 z "},"":{"ha":614,"x_min":25,"x_max":599,"o":"m 347 1126 q 409 1073 388 1110 q 431 988 431 1036 q 418 911 431 949 q 402 876 413 896 q 379 838 392 856 q 352 808 367 819 q 324 796 338 796 q 293 809 304 796 q 282 838 282 822 q 293 867 282 856 q 335 928 322 896 q 347 986 347 960 q 338 1024 347 1011 q 318 1047 329 1038 q 298 1064 307 1056 q 289 1089 289 1072 q 302 1119 289 1107 q 331 1131 315 1131 q 347 1126 339 1131 m 571 497 q 599 458 599 486 q 596 444 599 453 q 279 0 432 0 q 185 51 221 0 q 130 179 150 101 q 103 350 110 257 q 96 526 96 443 q 97 593 96 560 q 99 658 97 626 q 44 666 63 661 q 25 700 25 671 q 37 731 25 718 q 67 743 49 743 q 77 742 68 743 q 103 742 86 742 q 102 780 103 760 q 101 822 101 800 q 103 877 101 850 q 110 926 106 904 q 125 960 115 947 q 151 974 135 974 q 181 961 168 974 q 193 932 193 949 q 190 844 193 892 q 186 744 186 796 q 322 753 269 744 q 402 772 374 761 q 440 790 431 782 q 450 797 450 797 q 463 826 450 814 q 492 838 475 838 q 522 826 510 838 q 533 796 533 814 q 513 745 533 769 q 450 702 493 721 q 341 672 407 683 q 182 661 275 661 q 180 596 181 629 q 179 528 179 563 q 185 388 179 464 q 201 244 190 311 q 231 132 213 178 q 278 83 250 86 q 286 85 279 83 q 305 93 293 86 q 331 115 317 100 q 365 156 346 129 q 440 284 401 204 q 518 472 479 364 q 556 500 528 500 q 563 499 560 500 q 571 497 567 499 z "},"":{"ha":347,"x_min":25,"x_max":347,"o":"m 94 1044 q 133 1014 125 1044 q 142 938 142 983 q 140 724 142 847 q 133 472 138 600 q 123 227 129 343 q 108 36 117 111 q 94 10 106 21 q 67 -1 82 -1 q 37 11 49 -1 q 25 39 25 24 l 25 44 q 38 206 32 108 q 47 415 43 304 q 54 640 51 526 q 57 846 57 753 q 56 931 57 892 q 54 1001 54 971 q 65 1031 54 1018 q 94 1044 75 1043 m 264 960 q 326 906 304 943 q 347 821 347 869 q 335 744 347 782 q 319 709 329 729 q 296 671 308 689 q 269 641 283 653 q 240 629 254 629 q 210 642 221 629 q 199 671 199 656 q 210 700 199 689 q 251 761 239 729 q 264 819 264 793 q 255 858 264 844 q 235 880 246 871 q 215 897 224 889 q 206 922 206 906 q 219 952 206 940 q 247 964 232 964 q 264 960 256 964 z "},"":{"ha":596,"x_min":53,"x_max":589,"o":"m 319 932 q 381 878 360 915 q 403 793 403 842 q 390 717 403 754 q 374 681 385 701 q 351 643 364 661 q 324 613 339 625 q 296 601 310 601 q 265 615 276 601 q 254 643 254 628 q 265 672 254 661 q 307 733 294 701 q 319 792 319 765 q 310 830 319 817 q 290 852 301 843 q 270 869 279 861 q 261 894 261 878 q 274 924 261 913 q 303 936 288 936 q 319 932 311 936 m 533 133 q 549 136 542 136 q 576 124 564 136 q 589 93 589 113 q 561 56 589 65 q 529 47 560 56 q 454 27 499 38 q 360 8 410 17 q 268 -1 310 -1 q 140 26 189 -1 q 81 110 92 53 q 59 281 65 186 q 53 481 53 376 q 58 710 53 596 q 71 924 64 825 q 84 951 72 939 q 113 963 96 963 q 143 949 132 963 q 154 918 154 935 q 142 707 147 821 q 136 479 136 593 q 142 289 136 379 q 163 126 147 199 q 168 110 164 118 q 183 96 172 103 q 215 85 194 89 q 269 81 235 81 q 341 88 296 81 q 430 104 386 94 q 504 122 474 114 q 533 133 535 131 z "},"":{"ha":626,"x_min":24,"x_max":592,"o":"m 329 -51 q 391 -105 369 -68 q 413 -190 413 -142 q 400 -267 413 -229 q 384 -302 394 -282 q 361 -340 374 -322 q 334 -370 349 -358 q 306 -382 319 -382 q 275 -369 286 -382 q 264 -340 264 -356 q 275 -311 264 -322 q 317 -250 304 -282 q 329 -192 329 -218 q 320 -153 329 -167 q 300 -131 311 -140 q 280 -114 289 -122 q 271 -89 271 -106 q 284 -59 271 -71 q 313 -47 297 -47 q 329 -51 321 -47 m 357 553 q 446 481 403 518 q 521 403 489 444 q 572 317 553 363 q 592 221 592 272 q 535 65 592 125 q 376 6 478 6 q 279 22 328 6 q 186 67 231 38 q 143 101 165 81 q 99 148 121 121 q 58 210 76 175 q 25 290 39 246 q 24 301 24 293 q 35 331 24 317 q 64 344 46 344 q 90 336 78 344 q 106 314 101 328 q 158 202 125 246 q 230 133 192 158 q 306 99 268 108 q 375 89 344 89 q 406 91 383 89 q 451 105 428 93 q 492 142 474 117 q 510 215 510 168 q 480 319 510 274 q 405 406 450 365 q 307 485 360 447 q 209 563 254 522 q 134 651 164 604 q 104 757 104 697 q 121 846 104 806 q 165 915 138 886 q 231 958 193 943 q 310 974 268 974 q 476 904 401 974 q 586 717 550 835 q 588 704 588 713 q 576 675 588 688 q 546 663 564 663 q 506 693 515 663 q 424 838 478 785 q 307 890 371 890 q 222 854 257 890 q 188 761 188 818 q 235 656 188 706 q 357 553 283 606 z "},"":{"ha":549,"x_min":26,"x_max":525,"o":"m 329 -51 q 391 -105 369 -68 q 413 -190 413 -142 q 400 -267 413 -229 q 384 -302 394 -282 q 361 -340 374 -322 q 334 -370 349 -358 q 306 -382 319 -382 q 275 -369 286 -382 q 264 -340 264 -356 q 275 -311 264 -322 q 317 -250 304 -282 q 329 -192 329 -218 q 320 -153 329 -167 q 300 -131 311 -140 q 280 -114 289 -122 q 271 -89 271 -106 q 284 -59 271 -71 q 313 -47 297 -47 q 329 -51 321 -47 m 458 297 q 525 167 525 247 q 508 100 525 131 q 461 47 490 69 q 393 10 432 24 q 311 -3 354 -3 q 142 55 217 -3 q 29 214 67 113 q 27 222 28 218 q 26 229 26 225 q 38 257 26 244 q 67 269 49 269 q 107 243 96 269 q 148 167 124 197 q 199 117 172 136 q 255 89 226 97 q 310 81 283 81 q 405 106 368 81 q 442 167 442 132 q 433 203 442 188 q 408 231 425 218 q 366 254 392 243 q 306 279 340 265 q 221 316 260 296 q 153 362 182 336 q 109 422 125 388 q 93 501 93 456 q 107 578 93 543 q 144 641 121 614 q 200 683 168 668 q 268 699 232 699 q 375 656 328 699 q 450 536 422 613 q 451 522 451 532 q 440 494 451 507 q 410 481 429 481 q 387 488 399 481 q 371 508 375 496 q 268 614 335 614 q 207 585 236 614 q 178 501 178 556 q 188 451 178 472 q 218 413 199 429 q 267 384 238 397 q 335 357 297 371 q 399 331 367 344 q 458 297 431 317 z "},"":{"ha":678,"x_min":13,"x_max":683,"o":"m 417 1047 q 444 1037 432 1047 q 458 1011 456 1026 q 469 883 465 956 q 476 728 474 810 q 478 558 478 646 q 479 385 479 471 l 479 183 q 480 138 479 161 q 481 90 481 114 q 472 18 481 49 q 436 -12 464 -12 q 407 -1 419 -12 q 394 29 394 11 q 395 117 394 69 q 396 214 396 164 q 288 53 343 106 q 178 1 232 1 q 110 24 140 1 q 58 87 79 46 q 24 186 36 128 q 13 317 13 244 q 26 448 13 389 q 67 549 40 507 q 132 615 93 592 q 219 639 171 639 q 396 579 297 639 q 390 812 393 701 q 376 1000 386 922 l 376 1006 q 386 1033 376 1021 q 413 1047 396 1044 l 417 1047 m 258 147 q 327 263 293 192 q 396 429 361 333 l 396 478 q 309 531 356 507 q 221 556 263 556 q 153 529 178 556 q 115 465 128 503 q 98 386 101 428 q 94 314 94 344 q 99 236 94 276 q 115 163 104 196 q 140 107 125 129 q 176 85 156 85 q 258 147 211 85 m 600 943 q 662 890 640 926 q 683 804 683 853 q 671 728 683 765 q 655 692 665 713 q 632 654 644 672 q 605 624 619 636 q 576 613 590 613 q 546 626 557 613 q 535 654 535 639 q 546 683 535 672 q 588 744 575 713 q 600 803 600 776 q 591 841 600 828 q 571 863 582 854 q 551 881 560 872 q 542 906 542 889 q 555 935 542 924 q 583 947 568 947 q 600 943 592 947 z "},"":{"ha":614,"x_min":25,"x_max":599,"o":"m 315 -51 q 377 -105 356 -68 q 399 -190 399 -142 q 386 -267 399 -229 q 370 -302 381 -282 q 347 -340 360 -322 q 320 -370 335 -358 q 292 -382 306 -382 q 261 -369 272 -382 q 250 -340 250 -356 q 261 -311 250 -322 q 303 -250 290 -282 q 315 -192 315 -218 q 306 -153 315 -167 q 286 -131 297 -140 q 266 -114 275 -122 q 257 -89 257 -106 q 270 -59 257 -71 q 299 -47 283 -47 q 315 -51 307 -47 m 571 497 q 599 458 599 486 q 596 444 599 453 q 279 0 432 0 q 185 51 221 0 q 130 179 150 101 q 103 350 110 257 q 96 526 96 443 q 97 593 96 560 q 99 658 97 626 q 44 666 63 661 q 25 700 25 671 q 37 731 25 718 q 67 743 49 743 q 77 742 68 743 q 103 742 86 742 q 102 780 103 760 q 101 822 101 800 q 103 877 101 850 q 110 926 106 904 q 125 960 115 947 q 151 974 135 974 q 181 961 168 974 q 193 932 193 949 q 190 844 193 892 q 186 744 186 796 q 322 753 269 744 q 402 772 374 761 q 440 790 431 782 q 450 797 450 797 q 463 826 450 814 q 492 838 475 838 q 522 826 510 838 q 533 796 533 814 q 513 745 533 769 q 450 702 493 721 q 341 672 407 683 q 182 661 275 661 q 180 596 181 629 q 179 528 179 563 q 185 388 179 464 q 201 244 190 311 q 231 132 213 178 q 278 83 250 86 q 286 85 279 83 q 305 93 293 86 q 331 115 317 100 q 365 156 346 129 q 440 284 401 204 q 518 472 479 364 q 556 500 528 500 q 563 499 560 500 q 571 497 567 499 z "},"":{"ha":736,"x_min":14,"x_max":722,"o":"m 671 957 q 681 958 674 958 q 710 947 697 958 q 722 915 722 935 q 690 878 722 892 q 610 857 658 864 q 506 848 563 850 q 403 846 450 846 q 397 683 400 776 q 392 491 394 590 q 388 297 389 392 q 386 128 386 201 q 387 65 386 93 q 388 15 388 36 q 376 -14 388 0 q 347 -28 364 -28 q 308 -4 315 -28 q 300 60 300 19 q 301 167 300 106 q 303 299 301 229 q 306 443 304 368 q 310 590 308 518 q 315 728 313 663 q 319 847 317 794 q 131 866 206 858 q 49 876 56 874 q 24 890 33 879 q 14 917 14 901 q 27 947 14 935 q 56 958 40 958 l 64 958 q 85 955 64 958 q 141 947 106 951 q 224 938 176 942 q 325 931 271 933 q 341 950 331 942 q 364 958 351 958 q 390 950 379 958 q 404 929 401 942 q 542 935 474 929 q 671 957 610 942 m 357 -93 q 419 -147 397 -110 q 440 -232 440 -183 q 428 -308 440 -271 q 412 -344 422 -324 q 389 -382 401 -364 q 362 -412 376 -400 q 333 -424 347 -424 q 303 -410 314 -424 q 292 -382 292 -397 q 303 -353 292 -364 q 344 -292 332 -324 q 357 -233 357 -260 q 348 -195 357 -208 q 328 -173 339 -182 q 308 -156 317 -164 q 299 -131 299 -147 q 312 -101 299 -112 q 340 -89 325 -89 q 357 -93 349 -89 z "},"":{"ha":692,"x_min":31,"x_max":663,"o":"m 451 932 q 509 888 483 913 q 555 835 535 863 q 590 778 575 807 q 615 724 604 749 q 651 606 639 667 q 663 488 663 546 q 638 296 663 385 q 568 141 613 207 q 462 37 524 75 q 326 -1 400 -1 q 250 9 290 -1 q 164 43 210 19 q 152 6 157 22 q 121 -11 147 -11 q 91 1 103 -11 q 79 29 79 14 q 80 60 79 43 q 82 97 81 78 q 53 120 68 107 q 38 153 38 133 q 49 181 38 168 q 81 194 61 194 l 85 194 q 89 411 85 296 q 47 424 63 414 q 31 456 31 433 q 41 484 31 471 q 71 497 51 497 q 80 497 76 497 q 90 496 83 496 q 94 626 92 561 q 97 749 96 690 q 99 858 99 808 q 100 946 100 908 l 100 965 q 112 995 100 983 q 142 1007 124 1007 q 172 994 160 1007 q 183 964 183 981 l 183 944 q 182 929 182 940 q 258 956 222 949 q 325 964 293 964 q 396 955 364 964 q 451 932 428 946 m 579 489 q 569 591 579 538 q 539 693 558 644 q 509 755 528 722 q 464 816 490 788 q 402 863 438 844 q 324 882 367 882 q 181 835 260 882 l 175 493 q 219 499 199 493 q 251 506 239 506 q 281 492 269 506 q 293 463 293 479 q 283 435 293 446 q 255 419 272 425 q 216 410 238 413 q 172 407 194 407 l 167 139 q 326 82 251 82 q 424 112 379 82 q 503 194 469 142 q 557 318 538 247 q 579 472 576 389 l 579 489 z "},"":{"ha":525,"x_min":13,"x_max":529,"o":"m 417 1047 q 448 1031 438 1047 q 463 989 458 1014 q 467 934 467 964 q 469 876 468 904 q 478 878 474 876 q 488 881 483 881 q 517 867 506 881 q 529 838 529 854 q 474 790 529 803 q 478 592 476 696 q 479 385 479 488 l 479 183 q 480 138 479 161 q 481 90 481 114 q 472 18 481 49 q 436 -12 464 -12 q 407 -1 419 -12 q 394 29 394 11 q 395 117 394 69 q 396 214 396 164 q 288 53 343 106 q 178 1 232 1 q 110 24 140 1 q 58 87 79 46 q 24 186 36 128 q 13 317 13 244 q 26 448 13 389 q 67 549 40 507 q 132 615 93 592 q 219 639 171 639 q 396 579 297 639 q 394 683 394 632 q 390 783 393 735 q 373 783 382 783 q 356 782 364 782 q 263 785 303 782 q 221 789 222 789 q 194 804 204 793 q 183 831 183 815 q 194 859 183 846 q 224 872 204 872 q 263 869 228 872 q 342 867 297 867 q 365 867 353 867 q 388 868 376 867 q 382 938 385 904 q 376 1000 379 972 l 376 1006 q 386 1033 376 1021 q 413 1047 396 1044 l 417 1047 m 258 147 q 327 263 293 192 q 396 429 361 333 l 396 478 q 309 531 356 507 q 221 556 263 556 q 153 529 178 556 q 115 465 128 503 q 98 386 101 428 q 94 314 94 344 q 99 236 94 276 q 115 163 104 196 q 140 107 125 129 q 176 85 156 85 q 258 147 211 85 z "},"":{"ha":633,"x_min":-1,"x_max":626,"o":"m 571 133 q 586 136 579 136 q 614 124 601 136 q 626 93 626 113 q 599 56 626 65 q 567 47 597 56 q 492 27 536 38 q 397 8 447 17 q 306 -1 347 -1 q 185 24 226 -1 q 124 94 143 50 q 102 197 106 138 q 94 322 99 256 q 70 306 79 311 q 56 298 61 300 q 45 297 50 296 q 33 297 40 297 q 8 312 18 300 q -1 339 -1 324 q 3 359 -1 351 q 17 374 7 367 q 46 393 28 382 q 90 424 64 404 l 90 481 q 96 710 90 596 q 108 924 101 825 q 122 951 110 939 q 150 963 133 963 q 181 949 169 963 q 192 918 192 935 q 179 713 185 822 q 174 492 174 603 q 198 515 189 504 q 213 533 207 526 q 226 544 219 540 q 244 549 233 549 q 275 534 264 549 q 286 506 286 519 q 276 480 286 494 q 251 449 267 465 q 216 415 236 432 q 175 381 196 397 q 183 244 178 310 q 200 126 189 179 q 206 110 201 118 q 221 96 210 103 q 252 85 232 89 q 307 81 272 81 q 378 88 333 81 q 467 104 424 94 q 542 122 511 114 q 571 133 572 131 z "},"":{"ha":285,"x_min":-3,"x_max":285,"o":"m 147 1044 q 186 1014 178 1044 q 194 938 194 983 q 192 739 194 851 q 186 504 190 626 q 215 536 206 524 q 243 549 224 549 q 274 534 263 549 q 285 506 285 519 q 254 452 285 483 q 183 389 224 421 q 174 191 179 283 q 161 36 168 99 q 147 10 158 21 q 119 -1 135 -1 q 90 11 101 -1 q 78 39 78 24 l 78 44 q 88 167 83 94 q 96 325 92 240 q 69 306 78 313 q 54 298 60 300 q 44 297 49 296 q 32 297 40 297 q 7 312 17 300 q -3 339 -3 324 q 3 360 -3 351 q 21 378 8 368 q 53 400 33 388 q 101 433 74 413 q 108 649 106 542 q 110 846 110 756 q 108 931 110 892 q 107 1001 107 971 q 117 1031 107 1018 q 147 1044 128 1043 z "},".":{"ha":181,"x_min":32,"x_max":147,"o":"m 90 121 q 131 104 114 121 q 147 64 147 88 q 131 22 147 39 q 90 6 114 6 q 49 22 65 6 q 32 64 32 39 q 49 104 32 88 q 90 121 65 121 z "},":":{"ha":192,"x_min":38,"x_max":153,"o":"m 96 121 q 136 104 119 121 q 153 64 153 88 q 136 22 153 39 q 96 6 119 6 q 54 22 71 6 q 38 64 38 39 q 54 104 38 88 q 96 121 71 121 m 96 565 q 136 549 119 565 q 153 508 153 532 q 136 467 153 483 q 96 450 119 450 q 54 467 71 450 q 38 508 38 483 q 54 549 38 532 q 96 565 71 565 z "},";":{"ha":199,"x_min":32,"x_max":181,"o":"m 93 565 q 133 549 117 565 q 150 508 150 532 q 133 467 150 483 q 93 450 117 450 q 51 467 68 450 q 35 508 35 483 q 51 549 35 532 q 93 565 68 565 m 97 154 q 159 101 138 138 q 181 15 181 64 q 168 -61 181 -24 q 152 -97 163 -76 q 129 -135 142 -117 q 102 -165 117 -153 q 74 -176 88 -176 q 43 -163 54 -176 q 32 -135 32 -150 q 43 -106 32 -117 q 85 -44 72 -76 q 97 14 97 -12 q 88 52 97 39 q 68 74 79 65 q 48 92 57 83 q 39 117 39 100 q 52 147 39 135 q 81 158 65 158 q 97 154 89 158 z "},"":{"ha":692,"x_min":31,"x_max":663,"o":"m 451 932 q 509 888 483 913 q 555 835 535 863 q 590 778 575 807 q 615 724 604 749 q 651 606 639 667 q 663 488 663 546 q 638 296 663 385 q 568 141 613 207 q 462 37 524 75 q 326 -1 400 -1 q 250 9 290 -1 q 164 43 210 19 q 152 6 157 22 q 121 -11 147 -11 q 91 1 103 -11 q 79 29 79 14 q 80 60 79 43 q 82 97 81 78 q 53 120 68 107 q 38 153 38 133 q 49 181 38 168 q 81 194 61 194 l 85 194 q 89 411 85 296 q 47 424 63 414 q 31 456 31 433 q 41 484 31 471 q 71 497 51 497 q 80 497 76 497 q 90 496 83 496 q 94 626 92 561 q 97 749 96 690 q 99 858 99 808 q 100 946 100 908 l 100 965 q 112 995 100 983 q 142 1007 124 1007 q 172 994 160 1007 q 183 964 183 981 l 183 944 q 182 929 182 940 q 258 956 222 949 q 325 964 293 964 q 396 955 364 964 q 451 932 428 946 m 579 489 q 569 591 579 538 q 539 693 558 644 q 509 755 528 722 q 464 816 490 788 q 402 863 438 844 q 324 882 367 882 q 181 835 260 882 l 175 493 q 219 499 199 493 q 251 506 239 506 q 281 492 269 506 q 293 463 293 479 q 283 435 293 446 q 255 419 272 425 q 216 410 238 413 q 172 407 194 407 l 167 139 q 326 82 251 82 q 424 112 379 82 q 503 194 469 142 q 557 318 538 247 q 579 472 576 389 l 579 489 z "},"":{"ha":733,"x_min":11,"x_max":706,"o":"m 660 731 q 698 708 690 731 q 706 660 706 685 q 680 402 706 522 q 606 192 654 282 q 488 51 557 103 q 332 0 419 0 q 226 25 274 0 q 142 96 178 50 q 117 58 128 75 q 99 31 106 42 q 82 7 89 17 q 53 -3 67 -3 q 24 9 36 -3 q 13 39 13 21 q 12 53 13 51 q 18 63 11 56 q 42 93 25 71 q 94 171 58 115 q 49 310 65 232 q 33 479 33 388 q 60 669 33 581 q 131 824 86 758 q 237 927 176 889 q 365 965 297 965 q 461 942 418 965 q 536 876 504 919 q 567 931 557 911 q 584 960 578 950 q 597 972 590 969 q 615 974 603 974 q 647 961 635 974 q 658 933 658 949 q 638 884 658 922 q 583 789 618 846 q 608 685 601 740 q 615 564 615 631 q 608 515 615 538 q 572 492 601 492 q 542 503 553 492 q 531 533 531 515 q 531 563 531 549 q 532 592 532 578 q 524 690 532 644 q 442 560 486 629 q 354 423 399 492 q 267 289 310 354 q 190 169 225 224 q 332 83 249 83 q 427 115 376 83 q 522 211 478 146 q 594 379 565 276 q 622 625 622 482 q 622 656 622 640 q 621 688 621 672 q 631 717 621 704 q 660 731 642 729 m 150 256 q 234 387 189 315 q 324 531 279 458 q 413 673 369 604 q 490 799 456 742 q 438 860 468 839 q 367 882 407 882 q 269 849 314 882 q 190 762 224 817 q 136 634 156 707 q 117 482 117 561 q 150 256 117 349 z "},"":{"ha":543,"x_min":13,"x_max":528,"o":"m 318 578 q 348 570 333 575 q 376 558 363 565 q 426 638 410 610 q 451 678 443 665 q 465 692 460 690 q 485 694 471 694 q 516 682 504 694 q 528 654 528 669 q 504 602 528 642 q 444 507 481 563 q 497 417 478 469 q 515 307 515 365 q 495 184 515 240 q 438 88 475 128 q 349 24 400 47 q 235 1 297 1 q 111 46 163 1 q 87 15 94 25 q 74 1 79 4 q 65 -3 69 -3 q 53 -3 61 -3 q 24 9 36 -3 q 13 39 13 21 q 13 52 13 49 q 19 61 14 56 q 33 78 24 67 q 61 114 43 89 q 31 269 31 179 q 53 426 31 350 q 113 560 75 501 q 202 653 151 618 q 310 689 253 689 q 339 677 326 689 q 351 647 351 665 q 339 618 351 631 q 310 606 326 606 q 263 595 285 606 q 225 569 242 585 q 195 535 208 553 q 174 503 182 517 q 130 391 146 453 q 114 269 114 329 q 115 230 114 249 q 121 194 117 211 l 329 490 l 307 496 q 281 510 290 499 q 271 538 271 521 q 284 567 271 556 q 313 578 297 578 l 318 578 m 397 438 q 337 353 368 396 q 275 267 306 310 q 215 185 244 224 q 161 113 186 146 q 235 85 192 85 q 328 106 290 85 q 388 160 365 128 q 422 232 411 193 q 432 307 432 271 q 424 374 432 339 q 397 438 417 408 z "},"":{"ha":672,"x_min":44,"x_max":663,"o":"m 435 804 q 551 785 507 804 q 621 738 596 767 q 654 676 646 710 q 663 615 663 643 q 627 473 663 540 q 534 355 592 406 q 405 275 476 304 q 261 246 333 246 q 132 268 194 246 q 131 222 132 233 q 130 203 131 210 q 129 189 129 197 q 129 154 129 181 q 130 93 129 121 q 131 43 131 65 q 119 13 131 26 q 90 0 107 0 q 52 24 60 0 q 44 83 44 47 q 45 213 44 139 q 47 371 46 288 q 51 542 49 454 q 56 710 53 629 q 63 858 60 790 q 71 972 67 926 q 85 999 72 988 q 114 1010 97 1010 q 142 997 131 1010 q 154 967 154 983 q 153 926 154 958 q 151 856 153 893 q 149 784 150 818 q 147 736 149 750 q 435 804 314 801 m 576 585 q 578 599 578 592 q 579 614 579 606 q 544 692 579 663 q 436 721 508 721 q 143 644 321 721 q 138 505 140 578 q 133 356 136 432 q 260 329 199 329 q 382 354 326 329 q 478 417 438 379 q 544 501 519 456 q 576 585 569 546 z "},"":{"ha":533,"x_min":39,"x_max":518,"o":"m 467 621 q 506 519 493 581 q 518 389 518 457 q 501 227 518 299 q 452 106 483 156 q 377 28 421 56 q 281 1 333 1 q 122 53 207 1 l 122 -199 l 122 -256 q 115 -327 122 -308 q 81 -346 108 -346 q 51 -334 63 -346 q 39 -304 39 -322 q 40 -129 39 -237 q 45 106 42 -21 q 53 369 49 233 q 65 630 58 506 q 81 856 72 754 q 101 1014 90 957 q 115 1038 104 1029 q 140 1047 125 1047 q 171 1035 158 1047 q 183 1007 183 1024 q 183 1002 183 1004 q 182 997 182 1000 q 167 898 174 954 q 153 777 160 842 q 143 641 147 713 q 135 496 139 569 q 240 643 186 592 q 351 694 293 694 q 403 681 371 694 q 467 621 436 668 m 332 99 q 378 143 358 114 q 410 211 397 172 q 428 294 422 250 q 435 385 435 339 q 428 472 435 431 q 410 544 422 513 q 383 593 399 575 q 350 611 368 611 q 299 587 326 611 q 243 517 272 563 q 184 408 214 472 q 126 264 154 343 q 124 207 125 235 q 124 151 124 179 q 208 101 168 119 q 279 83 247 83 q 332 99 306 83 z "},"!":{"ha":164,"x_min":8,"x_max":138,"o":"m 67 121 q 107 104 90 121 q 124 64 124 88 q 107 22 124 39 q 67 6 90 6 q 25 22 42 6 q 8 64 8 39 q 25 104 8 88 q 67 121 42 121 m 90 968 q 129 935 121 968 q 138 851 138 901 q 135 642 138 735 q 131 474 133 550 q 124 336 128 399 q 114 218 119 274 q 99 191 111 201 q 72 181 88 181 q 42 194 53 181 q 31 226 31 207 q 39 328 35 275 q 47 442 43 381 q 51 578 50 504 q 53 742 53 651 q 51 843 53 796 q 50 925 50 890 q 60 954 50 942 q 90 968 71 967 z "},"":{"ha":164,"x_min":10,"x_max":139,"o":"m 81 575 q 40 592 57 575 q 24 632 24 608 q 40 674 24 657 q 81 690 57 690 q 122 674 106 690 q 139 632 139 657 q 122 592 139 608 q 81 575 106 575 m 57 -272 q 18 -240 26 -272 q 10 -156 10 -207 q 11 52 10 -40 q 16 220 13 144 q 24 358 19 296 q 33 478 28 421 q 47 505 35 494 q 75 515 60 515 q 106 502 94 515 q 117 469 117 489 q 108 368 113 421 q 101 253 104 315 q 96 118 97 192 q 94 -46 94 44 q 96 -147 94 -100 q 97 -229 97 -194 q 87 -258 97 -246 q 57 -272 76 -271 z "},"":{"ha":188,"x_min":24,"x_max":172,"o":"m 89 154 q 151 101 129 138 q 172 15 172 64 q 160 -61 172 -24 q 144 -97 154 -76 q 121 -135 133 -117 q 94 -165 108 -153 q 65 -176 79 -176 q 35 -163 46 -176 q 24 -135 24 -150 q 35 -106 24 -117 q 76 -44 64 -76 q 89 14 89 -12 q 80 52 89 39 q 60 74 71 65 q 40 92 49 83 q 31 117 31 100 q 44 147 31 135 q 72 158 57 158 q 89 154 81 158 z "},"":{"ha":378,"x_min":26,"x_max":356,"o":"m 92 154 q 153 101 132 138 q 175 15 175 64 q 163 -61 175 -24 q 147 -97 157 -76 q 124 -135 136 -117 q 97 -165 111 -153 q 68 -176 82 -176 q 38 -163 49 -176 q 26 -135 26 -150 q 38 -106 26 -117 q 79 -44 67 -76 q 92 14 92 -12 q 83 52 92 39 q 63 74 74 65 q 42 92 51 83 q 33 117 33 100 q 47 147 33 135 q 75 158 60 158 q 92 154 83 158 m 272 154 q 334 101 313 138 q 356 15 356 64 q 343 -61 356 -24 q 327 -97 338 -76 q 304 -135 317 -117 q 277 -165 292 -153 q 249 -176 263 -176 q 218 -163 229 -176 q 207 -135 207 -150 q 218 -106 207 -117 q 260 -44 247 -76 q 272 14 272 -12 q 263 52 272 39 q 243 74 254 65 q 223 92 232 83 q 214 117 214 100 q 227 147 214 135 q 256 158 240 158 q 272 154 264 158 z "},"":{"ha":378,"x_min":26,"x_max":356,"o":"m 92 890 q 153 837 132 874 q 175 751 175 800 q 163 675 175 713 q 147 640 157 660 q 124 601 136 619 q 97 572 111 583 q 68 560 82 560 q 38 573 49 560 q 26 601 26 586 q 38 631 26 619 q 79 692 67 660 q 92 750 92 724 q 83 788 92 775 q 63 810 74 801 q 42 828 51 819 q 33 853 33 836 q 47 883 33 871 q 75 894 60 894 q 92 890 83 894 m 272 890 q 334 837 313 874 q 356 751 356 800 q 343 675 356 713 q 327 640 338 660 q 304 601 317 619 q 277 572 292 583 q 249 560 263 560 q 218 573 229 560 q 207 601 207 586 q 218 631 207 619 q 260 692 247 660 q 272 750 272 724 q 263 788 272 775 q 243 810 254 801 q 223 828 232 819 q 214 853 214 836 q 227 883 214 871 q 256 894 240 894 q 272 890 264 894 z "},"":{"ha":376,"x_min":22,"x_max":351,"o":"m 286 569 q 224 623 246 586 q 203 708 203 660 q 206 747 203 728 q 215 785 208 765 q 231 820 221 800 q 253 858 240 840 q 281 888 267 875 q 310 900 296 900 q 340 887 329 900 q 351 858 351 874 q 340 829 351 843 q 299 768 311 800 q 286 708 286 736 q 295 670 286 683 q 315 649 304 657 q 335 632 326 640 q 344 607 344 624 q 331 577 344 589 q 303 565 318 565 q 286 569 294 565 m 106 569 q 44 623 65 586 q 22 708 22 660 q 25 747 22 728 q 35 785 28 765 q 50 820 40 800 q 73 858 60 840 q 101 888 86 875 q 129 900 115 900 q 160 887 149 900 q 171 858 171 874 q 160 829 171 843 q 118 768 131 800 q 106 708 106 736 q 115 670 106 683 q 135 649 124 657 q 155 632 146 640 q 164 607 164 624 q 151 577 164 589 q 122 565 138 565 q 106 569 114 565 z "},"":{"ha":188,"x_min":24,"x_max":172,"o":"m 89 890 q 151 837 129 874 q 172 751 172 800 q 160 675 172 713 q 144 640 154 660 q 121 601 133 619 q 94 572 108 583 q 65 560 79 560 q 35 573 46 560 q 24 601 24 586 q 35 631 24 619 q 76 692 64 660 q 89 750 89 724 q 80 788 89 775 q 60 810 71 801 q 40 828 49 819 q 31 853 31 836 q 44 883 31 871 q 72 894 57 894 q 89 890 81 894 z "},"":{"ha":185,"x_min":15,"x_max":164,"o":"m 99 569 q 37 623 58 586 q 15 708 15 660 q 18 747 15 728 q 28 785 21 765 q 43 820 33 800 q 66 858 53 840 q 94 888 79 875 q 122 900 108 900 q 153 887 142 900 q 164 858 164 874 q 153 829 164 843 q 111 768 124 800 q 99 708 99 736 q 108 670 99 683 q 128 649 117 657 q 148 632 139 640 q 157 607 157 624 q 144 577 157 589 q 115 565 131 565 q 99 569 107 565 z "},"":{"ha":1000,"x_min":31,"x_max":982,"o":"m 960 368 q 982 332 982 354 q 976 313 982 324 q 885 172 932 231 q 793 75 839 114 q 705 18 747 36 q 626 0 663 0 q 530 29 574 0 q 458 114 486 58 q 364 31 421 61 q 235 1 307 1 q 149 21 186 1 q 85 76 111 40 q 44 160 58 111 q 31 269 31 210 q 53 426 31 350 q 113 560 75 501 q 202 653 151 618 q 310 689 253 689 q 339 677 326 689 q 351 647 351 665 q 339 618 351 631 q 310 606 326 606 q 263 595 285 606 q 225 569 242 585 q 195 535 208 553 q 174 503 182 517 q 130 391 146 453 q 114 269 114 329 q 144 135 114 185 q 235 85 175 85 q 352 121 310 85 q 414 207 394 157 q 385 219 396 210 q 374 249 374 229 q 385 278 374 265 q 414 290 397 290 q 412 316 413 303 q 411 342 411 329 q 412 372 411 357 q 414 403 413 388 q 374 462 400 435 q 307 496 349 489 q 271 538 271 500 q 284 567 271 556 q 313 578 297 578 l 318 578 q 439 513 390 565 q 531 649 471 599 q 671 699 592 699 q 760 658 726 699 q 793 556 793 618 q 770 444 793 499 q 708 343 747 389 q 618 264 669 297 q 510 218 567 231 q 555 119 525 156 q 626 83 585 83 q 682 97 651 83 q 749 143 713 111 q 824 226 785 175 q 904 353 863 278 q 939 374 915 374 q 960 368 946 374 m 496 301 q 600 351 558 318 q 666 422 642 385 q 700 497 690 460 q 710 556 710 533 q 701 598 710 581 q 671 615 693 615 q 600 595 632 615 q 544 538 568 575 q 508 451 521 501 q 494 343 494 401 q 495 322 494 332 q 496 301 496 311 z "}}}
